<svg width="500" height="500" viewBox="0 0 500 500" fill="none" xmlns="http://www.w3.org/2000/svg">
<path d="M449.901 398.494H416.779V398.744H449.901V398.494Z" fill="#EBEBEB"/>
<path d="M331.22 401.208H322.527V401.458H331.22V401.208Z" fill="#EBEBEB"/>
<path d="M415.778 389.208H396.586V389.458H415.778V389.208Z" fill="#EBEBEB"/>
<path d="M95.652 390.888H52.459V391.138H95.652V390.888Z" fill="#EBEBEB"/>
<path d="M110.889 390.888H104.556V391.138H110.889V390.888Z" fill="#EBEBEB"/>
<path d="M225.147 395.111H131.471V395.361H225.147V395.111Z" fill="#EBEBEB"/>
<path d="M238.401 337.8H45.302C42.155 337.8 39.594 335.239 39.594 332.092V60.6601C39.594 57.5131 42.155 54.9521 45.302 54.9521H238.401C241.547 54.9521 244.108 57.5131 244.108 60.6601V332.092C244.108 335.239 241.547 337.8 238.401 337.8ZM45.302 55.2031C42.292 55.2031 39.844 57.6511 39.844 60.6611V332.093C39.844 335.103 42.292 337.551 45.302 337.551H238.401C241.41 337.551 243.858 335.103 243.858 332.093V60.6601C243.858 57.6511 241.41 55.2021 238.401 55.2021L45.302 55.2031Z" fill="#EBEBEB"/>
<path d="M454.698 337.8H261.599C258.453 337.8 255.892 335.239 255.892 332.092V60.6601C255.892 57.5131 258.453 54.9521 261.599 54.9521H454.698C457.846 54.9521 460.406 57.5131 460.406 60.6601V332.092C460.406 335.239 457.845 337.8 454.698 337.8ZM261.599 55.2031C258.59 55.2031 256.142 57.6511 256.142 60.6611V332.093C256.142 335.103 258.59 337.551 261.599 337.551H454.698C457.708 337.551 460.156 335.103 460.156 332.093V60.6601C460.156 57.6511 457.708 55.2021 454.698 55.2021L261.599 55.2031Z" fill="#EBEBEB"/>
<path d="M500 382.398H0V382.648H500V382.398Z" fill="#EBEBEB"/>
<path d="M119.331 314.75C118.486 305.092 108.627 301.477 96.944 302.499C85.262 303.521 76.18 308.794 77.025 318.452L119.331 314.75Z" fill="#F0F0F0"/>
<path d="M96.5579 298.085C101.98 297.611 103.711 293.031 103.236 287.609C102.762 282.187 100.262 277.977 94.8399 278.452C89.4179 278.926 87.6869 283.506 88.1619 288.928C88.6359 294.35 91.1359 298.56 96.5579 298.085Z" fill="#F0F0F0"/>
<path d="M340.1 108.971C340.362 111.961 338.15 114.597 335.16 114.858C332.17 115.12 329.534 112.908 329.273 109.918C329.011 106.928 331.223 104.292 334.213 104.03C337.203 103.769 339.839 105.981 340.1 108.971Z" fill="#F5F5F5"/>
<path d="M370.173 106.34C370.435 109.33 368.223 111.966 365.233 112.227C362.243 112.489 359.607 110.277 359.345 107.287C359.083 104.297 361.295 101.661 364.285 101.399C367.276 101.138 369.911 103.35 370.173 106.34Z" fill="#F5F5F5"/>
<path d="M400.246 103.709C400.508 106.699 398.296 109.335 395.306 109.597C392.316 109.859 389.68 107.647 389.418 104.657C389.156 101.667 391.368 99.0311 394.358 98.7691C397.348 98.5071 399.984 100.719 400.246 103.709Z" fill="#F5F5F5"/>
<path d="M342.782 139.624C343.044 142.614 340.832 145.25 337.842 145.512C334.852 145.774 332.216 143.562 331.954 140.572C331.692 137.582 333.904 134.946 336.894 134.685C339.885 134.422 342.521 136.633 342.782 139.624Z" fill="#F5F5F5"/>
<path d="M372.855 136.992C373.117 139.982 370.905 142.618 367.915 142.88C364.925 143.142 362.289 140.93 362.027 137.94C361.765 134.95 363.977 132.314 366.967 132.052C369.957 131.791 372.593 134.003 372.855 136.992Z" fill="#F5F5F5"/>
<path d="M402.928 134.361C403.19 137.351 400.978 139.987 397.988 140.248C394.998 140.51 392.362 138.298 392.1 135.308C391.838 132.318 394.05 129.682 397.04 129.42C400.03 129.16 402.666 131.372 402.928 134.361Z" fill="#F5F5F5"/>
<path d="M345.464 170.276C345.726 173.266 343.514 175.902 340.524 176.164C337.534 176.426 334.898 174.214 334.637 171.224C334.375 168.234 336.587 165.598 339.577 165.336C342.566 165.074 345.202 167.286 345.464 170.276Z" fill="#F5F5F5"/>
<path d="M375.537 167.645C375.799 170.635 373.587 173.271 370.597 173.533C367.607 173.795 364.971 171.583 364.709 168.593C364.447 165.603 366.659 162.967 369.649 162.706C372.639 162.443 375.275 164.655 375.537 167.645Z" fill="#F5F5F5"/>
<path d="M405.609 165.014C405.871 168.004 403.659 170.64 400.669 170.901C397.679 171.162 395.043 168.951 394.781 165.961C394.519 162.971 396.731 160.335 399.721 160.074C402.712 159.812 405.348 162.024 405.609 165.014Z" fill="#F5F5F5"/>
<path d="M399.112 166.779L337.326 172.185L392.108 105.618L335.978 110.529C335.322 110.586 334.744 110.101 334.687 109.445C334.63 108.789 335.115 108.211 335.771 108.154L397.557 102.748L342.775 169.315L398.905 164.404C399.561 164.347 400.139 164.832 400.196 165.487C400.253 166.143 399.768 166.722 399.112 166.779Z" fill="#E6E6E6"/>
<path d="M400.059 285.606C399.855 285.017 399.328 284.58 398.706 284.539C395.872 284.349 393.478 283.289 391.583 281.386C389.112 278.905 387.659 275.129 387.424 270.646C387.38 269.811 386.68 269.16 385.844 269.155C384.918 269.149 384.18 269.931 384.23 270.855C384.515 276.113 386.293 280.61 389.315 283.645C391.676 286.016 394.721 287.405 398.191 287.708C398.251 287.713 398.329 287.72 398.419 287.727C399.57 287.818 400.437 286.696 400.059 285.606Z" fill="#F0F0F0"/>
<path d="M396.864 304.8C383.61 303.64 374.053 294.607 371.028 280.511C370.835 279.612 371.408 278.727 372.314 278.57C373.151 278.425 373.969 278.955 374.146 279.786C376.856 292.463 385.364 300.581 397.142 301.612C410.059 302.742 423.932 294.244 426.417 272.82C426.518 271.952 427.275 271.311 428.145 271.387C429.036 271.465 429.704 272.26 429.599 273.148C427.218 293.347 413.937 306.294 396.864 304.8Z" fill="#F0F0F0"/>
<path d="M371.86 266.462C370.969 266.384 370.301 265.589 370.406 264.701C372.788 244.501 386.07 231.555 403.142 233.048C418.101 234.357 428.187 245.556 429.758 262.426C429.841 263.317 429.15 264.093 428.257 264.146H428.254C427.383 264.198 426.648 263.54 426.565 262.672C425.123 247.473 416.147 237.398 402.862 236.236C389.945 235.106 376.072 243.603 373.587 265.028C373.487 265.897 372.73 266.538 371.86 266.462Z" fill="#F0F0F0"/>
<path d="M397.515 296.232C395.051 296.016 392.74 295.441 390.619 294.514C389.756 294.137 389.4 293.098 389.851 292.271C390.244 291.55 391.121 291.238 391.872 291.569C393.866 292.445 396.07 292.96 398.445 293.09C408.242 293.651 418.582 286.712 419.595 269.946C420.219 259.62 416.682 251.279 410.078 247.29C409.37 246.862 409.107 245.967 409.472 245.225C409.887 244.382 410.939 244.071 411.743 244.556C419.385 249.17 423.489 258.584 422.79 270.139C421.813 286.306 411.726 297.058 398.261 296.287C398.012 296.271 397.762 296.253 397.515 296.232Z" fill="#F0F0F0"/>
<path d="M383.266 286.258C382.492 286.787 381.434 286.54 380.964 285.728C378.129 280.824 376.803 274.501 377.214 267.71C378.149 252.245 387.421 241.734 400.012 241.527C400.946 241.512 401.701 242.293 401.648 243.226V243.23C401.6 244.061 400.923 244.715 400.091 244.731C390.754 244.915 381.373 251.973 380.41 267.903C380.036 274.087 381.219 279.794 383.755 284.158C384.171 284.875 383.951 285.79 383.266 286.258Z" fill="#F0F0F0"/>
<path d="M405.13 284.95C404.804 284.209 405.089 283.353 405.783 282.935C409.988 280.403 412.571 275.089 412.615 268.684C412.65 263.553 411.161 259.213 408.422 256.463C406.31 254.341 403.579 253.273 400.306 253.279C395.376 253.292 391.384 255.993 389.172 260.746C388.824 261.494 387.958 261.848 387.183 261.563C386.302 261.239 385.883 260.224 386.281 259.374C389.017 253.535 394.15 250.094 400.297 250.077C404.396 250.071 407.991 251.494 410.69 254.204C414.036 257.564 415.856 262.713 415.815 268.705C415.764 276.264 412.58 282.6 407.394 285.701C406.578 286.189 405.513 285.821 405.13 284.95Z" fill="#F0F0F0"/>
<path d="M393.609 273.193C392.7 273.558 391.683 273.03 391.45 272.078C391.344 271.645 391.256 271.199 391.187 270.74C390.282 264.756 393.499 259.545 398.67 258.621C401.339 258.142 403.719 258.77 405.538 260.394C406.276 261.054 406.219 262.231 405.414 262.808L405.314 262.879C404.708 263.313 403.909 263.215 403.344 262.729C402.259 261.798 400.881 261.476 399.233 261.771C395.292 262.476 393.794 266.576 394.352 270.261C394.406 270.62 394.474 270.968 394.556 271.302C394.746 272.087 394.358 272.891 393.609 273.193Z" fill="#F0F0F0"/>
<path d="M398.897 279.35C398.893 279.35 398.888 279.349 398.884 279.349C397.781 279.251 397.172 278.015 397.76 277.076L397.896 276.859C398.191 276.389 398.718 276.13 399.272 276.169C399.746 276.201 400.248 276.171 400.773 276.077C404.214 275.461 405.793 272.257 405.766 269.001C405.759 268.188 406.322 267.486 407.125 267.365C408.064 267.223 408.951 267.921 408.969 268.871C409.064 274.089 405.992 278.396 401.336 279.228C400.496 279.378 399.679 279.419 398.897 279.35Z" fill="#F0F0F0"/>
<path d="M399.608 273.442C397.904 273.293 396.634 272.145 396.173 270.506C395.906 269.556 396.703 268.636 397.685 268.722L398.052 268.754C398.622 268.804 399.092 269.194 399.282 269.734C399.375 269.998 399.553 270.224 399.886 270.253C400.655 270.32 400.79 269.217 400.81 268.995C400.824 268.837 400.857 268.224 400.595 267.863C400.338 267.509 400.162 267.104 400.2 266.668C400.325 265.245 402.123 264.673 403.03 265.777C403.751 266.655 404.121 267.884 403.999 269.274C403.77 271.891 401.923 273.645 399.608 273.442Z" fill="#F0F0F0"/>
<path d="M369.534 237.653C368.653 237.576 368.002 236.8 368.079 235.919L369.292 222.053L383.158 223.266C384.039 223.343 384.69 224.119 384.613 225C384.536 225.881 383.76 226.532 382.879 226.455L372.202 225.521L371.268 236.198C371.191 237.079 370.414 237.73 369.534 237.653Z" fill="#F0F0F0"/>
<path d="M435.462 243.421C434.581 243.344 433.93 242.568 434.007 241.687L434.941 231.01L424.264 230.076C423.383 229.999 422.732 229.223 422.809 228.342C422.886 227.461 423.662 226.81 424.543 226.887L438.409 228.1L437.196 241.966C437.119 242.847 436.343 243.498 435.462 243.421Z" fill="#F0F0F0"/>
<path d="M430.547 317.97L416.681 316.757C415.8 316.68 415.149 315.904 415.226 315.023C415.303 314.142 416.079 313.491 416.96 313.568L427.637 314.502L428.571 303.825C428.648 302.944 429.424 302.293 430.305 302.37C431.186 302.447 431.837 303.223 431.76 304.104L430.547 317.97Z" fill="#F0F0F0"/>
<path d="M375.295 313.136L361.429 311.923L362.642 298.057C362.719 297.176 363.495 296.525 364.376 296.602C365.257 296.679 365.908 297.455 365.831 298.336L364.897 309.013L375.574 309.947C376.455 310.024 377.106 310.8 377.029 311.681C376.952 312.562 376.176 313.213 375.295 313.136Z" fill="#F0F0F0"/>
<path d="M74.73 283.126C74.189 283.173 73.711 282.773 73.664 282.231L72.918 273.706L81.443 272.96C81.985 272.913 82.462 273.313 82.509 273.855C82.556 274.396 82.156 274.874 81.614 274.921L75.049 275.495L75.623 282.06C75.672 282.602 75.271 283.079 74.73 283.126Z" fill="#E0E0E0"/>
<path d="M115.266 279.58C114.725 279.627 114.247 279.227 114.2 278.685L113.626 272.12L107.061 272.694C106.52 272.741 106.042 272.341 105.995 271.799C105.948 271.258 106.348 270.78 106.89 270.733L115.415 269.987L116.161 278.512C116.208 279.055 115.808 279.533 115.266 279.58Z" fill="#E0E0E0"/>
<path d="M119.466 316.29L110.941 317.036C110.4 317.083 109.922 316.683 109.875 316.141C109.828 315.6 110.228 315.122 110.77 315.075L117.335 314.501L116.761 307.936C116.714 307.394 117.114 306.917 117.656 306.87C118.197 306.823 118.675 307.223 118.722 307.765L119.466 316.29Z" fill="#E0E0E0"/>
<path d="M85.494 319.262L76.969 320.008L76.223 311.482C76.176 310.941 76.576 310.463 77.118 310.416C77.659 310.369 78.137 310.769 78.184 311.311L78.758 317.876L85.323 317.302C85.864 317.255 86.342 317.655 86.389 318.197C86.436 318.737 86.035 319.214 85.494 319.262Z" fill="#E0E0E0"/>
<path d="M114.583 140.948L81.952 143.803L81.284 136.167C80.591 128.245 86.472 121.237 94.393 120.544C102.315 119.851 109.323 125.732 110.016 133.653L110.404 138.09L115.112 137.678L114.724 133.241C113.804 122.723 104.499 114.916 93.981 115.836C83.463 116.756 75.656 126.061 76.576 136.579L77.248 144.259C73.451 144.999 70.748 148.501 71.092 152.44L73.423 179.083C73.792 183.296 77.506 186.412 81.719 186.044L118.249 182.848C122.462 182.48 125.578 178.766 125.21 174.553L122.879 147.91C122.51 143.696 118.796 140.579 114.583 140.948ZM100.722 161.478L101.525 170.652C101.657 172.158 100.543 173.485 99.037 173.617C97.531 173.749 96.204 172.635 96.072 171.129L95.269 161.955C94.071 161.217 93.216 159.954 93.084 158.444C92.862 155.909 94.738 153.674 97.273 153.452C99.808 153.23 102.043 155.106 102.265 157.641C102.396 159.15 101.773 160.543 100.722 161.478Z" fill="#EBEBEB"/>
<path d="M170.445 156.393L167.146 151.015C165.359 151.262 163.897 151.262 162.11 151.015L158.811 156.393L158.178 156.225C156.052 155.66 154.001 154.808 152.083 153.695L151.516 153.366L152.915 147.528C153.028 147.055 153.503 146.764 153.976 146.877C154.449 146.99 154.74 147.465 154.626 147.938L153.534 152.492C154.959 153.268 156.457 153.89 158.001 154.348L161.223 149.094L161.806 149.189C163.674 149.494 165.58 149.494 167.448 149.189L168.031 149.094L171.253 154.348C172.797 153.889 174.295 153.268 175.72 152.492L174.286 146.507L174.766 146.163C176.074 145.223 177.24 144.112 178.241 142.855C178.538 142.481 179.067 142.393 179.454 142.672C179.856 142.961 179.95 143.531 179.643 143.919C178.659 145.161 177.529 146.273 176.271 147.237L177.74 153.366L177.174 153.695C175.256 154.808 173.205 155.66 171.079 156.225L170.445 156.393ZM150.225 144.652C149.948 144.335 149.68 144.009 149.423 143.674L143.293 145.142L142.964 144.576C141.851 142.658 140.999 140.607 140.434 138.481L140.266 137.848L145.644 134.549C145.52 133.653 145.46 132.825 145.46 132.031C145.46 131.238 145.521 130.409 145.644 129.513L140.266 126.215L140.434 125.582C140.999 123.456 141.851 121.405 142.964 119.487L143.293 118.921L149.422 120.389C150.449 119.049 151.644 117.855 152.984 116.827L151.872 112.189C151.759 111.717 152.05 111.243 152.521 111.13L152.524 111.129C152.996 111.016 153.47 111.307 153.583 111.778L154.967 117.556L154.483 117.904C152.947 119.01 151.6 120.357 150.495 121.893L150.15 122.372L144.165 120.938C143.39 122.363 142.769 123.861 142.31 125.405L147.562 128.626L147.467 129.209C147.299 130.24 147.217 131.163 147.217 132.03C147.217 132.899 147.299 133.821 147.467 134.851L147.562 135.433L142.309 138.656C142.767 140.201 143.389 141.698 144.164 143.123L150.149 141.689L150.494 142.168C150.819 142.62 151.168 143.059 151.536 143.48C151.842 143.83 151.834 144.353 151.499 144.676L151.467 144.707C151.115 145.05 150.549 145.022 150.225 144.652ZM185.962 145.143L183.702 144.602C183.229 144.489 182.938 144.014 183.051 143.541C183.164 143.069 183.639 142.777 184.112 142.89L185.088 143.124C185.863 141.699 186.484 140.201 186.943 138.657L181.69 135.434L181.785 134.852C181.953 133.822 182.035 132.899 182.035 132.031C182.035 131.163 181.953 130.241 181.785 129.21L181.69 128.627L186.942 125.406C186.484 123.861 185.862 122.364 185.087 120.939L179.102 122.373L178.757 121.894C177.652 120.358 176.305 119.011 174.769 117.905L174.285 117.557L175.719 111.572C174.294 110.797 172.796 110.175 171.252 109.716L168.03 114.969L167.447 114.875C165.578 114.572 163.672 114.572 161.803 114.875L161.221 114.969L157.999 109.717C157.799 109.776 157.599 109.839 157.399 109.904C156.953 110.05 156.473 109.81 156.312 109.37C156.142 108.907 156.383 108.385 156.851 108.232C157.29 108.088 157.733 107.957 158.174 107.84L158.808 107.671L162.107 113.05C163.902 112.801 165.347 112.801 167.142 113.05L170.441 107.671L171.075 107.839C173.201 108.405 175.252 109.257 177.17 110.369L177.736 110.698L176.267 116.828C177.607 117.856 178.802 119.05 179.829 120.39L185.958 118.922L186.287 119.488C187.4 121.406 188.252 123.457 188.817 125.583L188.985 126.216L183.607 129.514C183.731 130.41 183.791 131.239 183.791 132.032C183.791 132.826 183.73 133.654 183.607 134.55L188.985 137.849L188.817 138.482C188.252 140.608 187.4 142.659 186.287 144.577L185.962 145.143ZM164.381 140.6C159.913 140.474 156.187 136.75 156.059 132.282C155.93 127.779 159.295 124.018 163.638 123.517C164.163 123.456 164.628 123.867 164.628 124.396C164.628 124.84 164.297 125.213 163.856 125.263C160.026 125.697 157.149 129.319 157.951 133.403C158.472 136.055 160.609 138.192 163.262 138.71C167.615 139.561 171.441 136.235 171.441 132.031C171.441 130.624 171.007 129.262 170.208 128.121C169.956 127.761 170.024 127.269 170.354 126.978C170.749 126.629 171.365 126.702 171.666 127.135C172.661 128.565 173.201 130.27 173.201 132.031C173.199 136.84 169.22 140.736 164.381 140.6Z" fill="#F0F0F0"/>
<path d="M108.314 229.592L106.183 226.118C105.029 226.278 104.084 226.278 102.93 226.118L100.799 229.592L100.39 229.483C99.0161 229.118 97.6911 228.568 96.4521 227.848L96.0861 227.635L96.9901 223.863C97.0631 223.558 97.3701 223.369 97.6751 223.443C97.9801 223.516 98.1681 223.823 98.0951 224.128L97.3901 227.07C98.3111 227.571 99.2781 227.973 100.276 228.269L102.357 224.875L102.734 224.937C103.941 225.134 105.172 225.134 106.379 224.937L106.756 224.875L108.838 228.269C109.836 227.973 110.803 227.571 111.724 227.07L110.797 223.204L111.107 222.981C111.952 222.374 112.705 221.656 113.352 220.844C113.544 220.603 113.886 220.546 114.136 220.726C114.395 220.913 114.456 221.281 114.258 221.532C113.622 222.334 112.892 223.053 112.079 223.676L113.028 227.635L112.662 227.848C111.423 228.567 110.098 229.117 108.724 229.483L108.314 229.592ZM95.2511 222.008C95.0721 221.803 94.8991 221.593 94.7331 221.376L90.7731 222.325L90.5611 221.959C89.8421 220.72 89.2921 219.395 88.9271 218.021L88.8181 217.612L92.2921 215.481C92.2121 214.902 92.1731 214.367 92.1731 213.854C92.1731 213.342 92.2121 212.806 92.2921 212.227L88.8181 210.096L88.9271 209.687C89.2921 208.313 89.8421 206.989 90.5611 205.749L90.7731 205.383L94.7331 206.332C95.3961 205.466 96.1681 204.695 97.0341 204.031L96.3161 201.035C96.2431 200.73 96.4311 200.424 96.7351 200.351L96.7371 200.35C97.0421 200.277 97.3481 200.465 97.4211 200.77L98.3151 204.503L98.0021 204.728C97.0101 205.442 96.1401 206.312 95.4261 207.305L95.2031 207.615L91.3361 206.689C90.8361 207.61 90.4341 208.577 90.1381 209.575L93.5311 211.656L93.4701 212.033C93.3611 212.699 93.3091 213.295 93.3091 213.856C93.3091 214.417 93.3621 215.013 93.4701 215.679L93.5321 216.055L90.1391 218.137C90.4351 219.135 90.8371 220.102 91.3371 221.023L95.2041 220.097L95.4271 220.407C95.6371 220.699 95.8621 220.983 96.1001 221.255C96.2981 221.481 96.2921 221.819 96.0761 222.027L96.0551 222.047C95.8261 222.264 95.4611 222.246 95.2511 222.008ZM118.338 222.324L116.878 221.975C116.573 221.902 116.384 221.595 116.457 221.29C116.53 220.985 116.837 220.797 117.142 220.87L117.773 221.021C118.273 220.1 118.675 219.133 118.971 218.135L115.578 216.053L115.64 215.677C115.748 215.012 115.801 214.415 115.801 213.854C115.801 213.293 115.748 212.697 115.64 212.031L115.579 211.654L118.972 209.573C118.676 208.575 118.274 207.608 117.774 206.687L113.907 207.613L113.684 207.303C112.97 206.311 112.1 205.44 111.108 204.726L110.795 204.501L111.722 200.634C110.801 200.133 109.834 199.732 108.836 199.435L106.755 202.828L106.379 202.767C105.172 202.571 103.941 202.571 102.733 202.767L102.357 202.828L100.276 199.435C100.147 199.473 100.017 199.514 99.8891 199.556C99.6011 199.65 99.2911 199.495 99.1871 199.211C99.0771 198.912 99.2331 198.575 99.5351 198.476C99.8191 198.383 100.105 198.298 100.389 198.223L100.799 198.114L102.93 201.589C104.09 201.428 105.023 201.428 106.183 201.589L108.314 198.114L108.723 198.223C110.096 198.589 111.421 199.139 112.661 199.857L113.027 200.07L112.078 204.03C112.944 204.694 113.715 205.465 114.379 206.331L118.339 205.382L118.551 205.748C119.27 206.987 119.82 208.312 120.185 209.686L120.294 210.095L116.82 212.226C116.9 212.805 116.939 213.34 116.939 213.853C116.939 214.366 116.9 214.901 116.82 215.48L120.294 217.611L120.185 218.02C119.82 219.394 119.27 220.719 118.551 221.958L118.338 222.324ZM104.397 219.389C101.51 219.308 99.1041 216.902 99.0211 214.015C98.9371 211.106 101.111 208.676 103.917 208.352C104.256 208.313 104.556 208.579 104.556 208.92C104.556 209.207 104.342 209.448 104.057 209.48C101.583 209.76 99.7241 212.1 100.242 214.739C100.578 216.452 101.959 217.833 103.673 218.168C106.485 218.718 108.957 216.569 108.957 213.853C108.957 212.944 108.677 212.064 108.161 211.327C107.998 211.095 108.042 210.776 108.255 210.588C108.511 210.362 108.908 210.41 109.103 210.69C109.746 211.614 110.095 212.715 110.095 213.853C110.093 216.96 107.522 219.478 104.397 219.389Z" fill="#E6E6E6"/>
<path d="M250 427.016C357.082 427.016 443.889 421.947 443.889 415.693C443.889 409.44 357.082 404.37 250 404.37C142.918 404.37 56.1111 409.44 56.1111 415.693C56.1111 421.947 142.918 427.016 250 427.016Z" fill="#F5F5F5"/>
<path d="M363.45 145.827H330.889L307.858 409.076H340.419C349.679 409.076 357.871 401.543 358.681 392.283L378.774 162.62C379.584 153.36 372.71 145.827 363.45 145.827Z" fill="#46760A"/>
<path d="M356.806 145.827H246.607C237.347 145.827 229.155 153.36 228.345 162.62L208.252 392.283C207.442 401.543 214.316 409.076 223.576 409.076H333.775C343.035 409.076 351.227 401.543 352.037 392.283L372.13 162.62C372.94 153.36 366.066 145.827 356.806 145.827Z" fill="#46760A"/>
<path opacity="0.3" d="M356.806 145.827H246.607C237.347 145.827 229.155 153.36 228.345 162.62L208.252 392.283C207.442 401.543 214.316 409.076 223.576 409.076H333.775C343.035 409.076 351.227 401.543 352.037 392.283L372.13 162.62C372.94 153.36 366.066 145.827 356.806 145.827Z" fill="white"/>
<path opacity="0.4" d="M356.335 151.207H327.281C325.567 151.207 323.958 152.332 323.323 153.974C320.974 160.044 315.026 164.201 308.69 164.201H291.509C285.173 164.201 279.951 160.043 278.664 153.974C278.316 152.332 276.904 151.208 275.19 151.208H246.136C239.833 151.208 234.277 156.317 233.725 162.62L213.632 392.283C213.081 398.586 217.743 403.695 224.046 403.695H334.245C340.548 403.695 346.104 398.586 346.656 392.283L366.749 162.62C367.3 156.317 362.638 151.207 356.335 151.207Z" fill="white"/>
<path d="M328.883 275.958H251.759C249.472 275.958 247.781 274.104 247.981 271.818L248.367 267.405C248.567 265.118 250.583 263.265 252.87 263.265H329.994C332.281 263.265 333.972 265.119 333.772 267.405L333.386 271.818C333.186 274.104 331.17 275.958 328.883 275.958Z" fill="white"/>
<path d="M327.217 294.998H250.093C247.806 294.998 246.115 293.144 246.315 290.858L246.701 286.445C246.901 284.158 248.917 282.305 251.204 282.305H328.328C330.615 282.305 332.306 284.159 332.106 286.445L331.72 290.858C331.52 293.144 329.504 294.998 327.217 294.998Z" fill="white"/>
<path opacity="0.1" d="M305.45 155.509C305.228 158.045 302.993 160.1 300.457 160.1C297.921 160.1 296.046 158.045 296.268 155.509C296.49 152.973 298.725 150.918 301.261 150.918C303.796 150.918 305.672 152.973 305.45 155.509Z" fill="black"/>
<path opacity="0.1" d="M303.367 155.509C303.246 156.894 302.025 158.017 300.639 158.017C299.254 158.017 298.229 156.894 298.35 155.509C298.471 154.124 299.692 153.001 301.078 153.001C302.464 153.001 303.488 154.124 303.367 155.509Z" fill="black"/>
<g opacity="0.8">
<path d="M342.769 163.167C342.026 163.167 341.476 162.565 341.541 161.822L341.756 159.363C341.821 158.62 342.476 158.018 343.219 158.018C343.962 158.018 344.512 158.62 344.447 159.363L344.232 161.822C344.167 162.565 343.512 163.167 342.769 163.167Z" fill="white"/>
<path d="M353.531 163.167C352.788 163.167 352.238 162.565 352.303 161.822L352.808 156.051C352.873 155.308 353.528 154.706 354.271 154.706C355.014 154.706 355.564 155.308 355.499 156.051L354.994 161.822C354.929 162.565 354.274 163.167 353.531 163.167Z" fill="white"/>
<path d="M348.15 163.167C347.407 163.167 346.857 162.565 346.922 161.822L347.282 157.707C347.347 156.964 348.002 156.362 348.745 156.362C349.488 156.362 350.038 156.964 349.973 157.707L349.613 161.822C349.548 162.565 348.893 163.167 348.15 163.167Z" fill="white"/>
</g>
<g opacity="0.8">
<path d="M250.635 163.167H243.88C243.459 163.167 243.148 162.826 243.185 162.405L243.502 158.778C243.539 158.357 243.91 158.016 244.33 158.016H251.085C251.506 158.016 251.817 158.357 251.78 158.778L251.463 162.405C251.426 162.826 251.056 163.167 250.635 163.167Z" fill="white"/>
<path d="M253.767 162.183C253.346 162.183 253.035 161.842 253.072 161.421L253.217 159.762C253.254 159.341 253.625 159 254.045 159C254.466 159 254.777 159.341 254.74 159.762L254.595 161.421C254.559 161.842 254.188 162.183 253.767 162.183Z" fill="white"/>
</g>
<path d="M316.188 246.951C329.644 234.07 330.985 213.633 319.183 201.303C307.38 188.973 286.904 189.42 273.448 202.301C259.991 215.182 258.65 235.619 270.453 247.949C282.255 260.279 302.731 259.832 316.188 246.951Z" fill="white"/>
<path d="M294.921 223.379C286.436 223.379 279.274 226.607 278.661 233.622L277.98 241.407H308.709L309.39 233.622C310.003 226.607 303.407 223.379 294.921 223.379Z" fill="#46760A"/>
<path d="M295.202 220.173C299.14 220.173 300.956 216.981 301.3 213.043C301.645 209.105 300.387 205.913 296.449 205.913C292.511 205.913 290.695 209.105 290.35 213.043C290.006 216.981 291.264 220.173 295.202 220.173Z" fill="#46760A"/>
<path d="M325.363 269.384C323.267 269.384 321.498 270.181 321.347 271.914L321.179 273.837H328.769L328.937 271.914C329.088 270.181 327.459 269.384 325.363 269.384Z" fill="#46760A"/>
<path d="M325.432 268.592C326.405 268.592 326.853 267.803 326.938 266.831C327.023 265.858 326.713 265.07 325.74 265.07C324.767 265.07 324.319 265.859 324.234 266.831C324.149 267.804 324.46 268.592 325.432 268.592Z" fill="#46760A"/>
<path d="M301.994 314.038H271.985C268.48 314.038 265.887 311.197 266.194 307.691C266.501 304.186 269.591 301.344 273.096 301.344H303.105C306.61 301.344 309.203 304.186 308.896 307.691C308.589 311.197 305.499 314.038 301.994 314.038Z" fill="#46760A"/>
<path d="M298.374 384.818H266.257C262.553 384.818 259.813 381.815 260.137 378.111L262.186 354.686C262.51 350.982 265.775 347.979 269.479 347.979H301.596C305.3 347.979 308.04 350.982 307.716 354.686L305.667 378.111C305.343 381.815 302.078 384.818 298.374 384.818Z" fill="#46760A"/>
<g opacity="0.6">
<path d="M288.469 360.603C288.664 358.374 287.015 356.567 284.786 356.567C282.557 356.567 280.592 358.374 280.397 360.603C280.281 361.93 280.828 363.098 281.753 363.833L281.047 371.899C280.931 373.223 281.91 374.296 283.234 374.296C284.558 374.296 285.725 373.223 285.841 371.899L286.547 363.833C287.602 363.098 288.353 361.931 288.469 360.603Z" fill="white"/>
</g>
<path d="M301.881 352.855H297.742L298.756 341.265C299.365 334.3 294.195 328.634 287.23 328.634C280.265 328.634 274.103 334.3 273.494 341.265L272.48 352.855H268.341L269.355 341.265C270.164 332.018 278.345 324.495 287.592 324.495C296.839 324.495 303.704 332.018 302.895 341.265L301.881 352.855Z" fill="#46760A"/>
<path d="M325.871 287.134L325.968 286.022C326.068 284.885 325.224 283.961 324.087 283.961C322.95 283.961 321.945 284.886 321.846 286.022L321.749 287.134C321.295 287.134 320.895 287.502 320.856 287.956L320.597 290.912C320.557 291.366 320.893 291.734 321.347 291.734H325.467C325.921 291.734 326.321 291.366 326.361 290.912L326.62 287.956C326.66 287.502 326.325 287.134 325.871 287.134ZM324.043 284.469C324.899 284.469 325.534 285.165 325.46 286.021L325.363 287.133H322.258L322.355 286.021C322.43 285.165 323.187 284.469 324.043 284.469Z" fill="#46760A"/>
<path d="M263.847 288.318L262.409 288.021C262.239 287.986 262.151 287.807 262.222 287.639L262.821 286.223C262.95 285.919 262.58 285.694 262.347 285.935L261.26 287.055C261.131 287.188 260.924 287.188 260.819 287.055L259.928 285.935C259.737 285.695 259.328 285.919 259.403 286.223L259.754 287.639C259.796 287.807 259.677 287.986 259.5 288.021L258.01 288.318C257.69 288.382 257.651 288.831 257.96 288.895L259.398 289.192C259.568 289.227 259.656 289.406 259.585 289.574L258.986 290.99C258.857 291.294 259.227 291.519 259.46 291.278L260.547 290.158C260.676 290.025 260.883 290.025 260.988 290.158L261.879 291.278C262.07 291.519 262.479 291.294 262.404 290.99L262.053 289.574C262.011 289.406 262.13 289.227 262.307 289.192L263.797 288.895C264.117 288.831 264.156 288.381 263.847 288.318Z" fill="#263238"/>
<path d="M273.31 288.318L271.872 288.021C271.702 287.986 271.614 287.807 271.685 287.639L272.284 286.223C272.413 285.919 272.043 285.694 271.81 285.935L270.723 287.055C270.594 287.188 270.388 287.188 270.282 287.055L269.391 285.935C269.2 285.695 268.791 285.919 268.866 286.223L269.217 287.639C269.259 287.807 269.139 287.986 268.963 288.021L267.473 288.318C267.153 288.382 267.114 288.831 267.422 288.895L268.86 289.192C269.03 289.227 269.118 289.406 269.047 289.574L268.448 290.99C268.319 291.294 268.689 291.519 268.922 291.278L270.009 290.158C270.138 290.025 270.344 290.025 270.45 290.158L271.341 291.278C271.532 291.519 271.941 291.294 271.866 290.99L271.515 289.574C271.473 289.406 271.593 289.227 271.769 289.192L273.259 288.895C273.58 288.831 273.619 288.381 273.31 288.318Z" fill="#263238"/>
<path d="M282.773 288.318L281.335 288.021C281.165 287.986 281.077 287.807 281.148 287.639L281.747 286.223C281.876 285.919 281.506 285.694 281.273 285.935L280.186 287.055C280.057 287.188 279.85 287.188 279.745 287.055L278.854 285.935C278.663 285.695 278.254 285.919 278.329 286.223L278.68 287.639C278.722 287.807 278.603 287.986 278.426 288.021L276.936 288.318C276.616 288.382 276.577 288.831 276.885 288.895L278.323 289.192C278.493 289.227 278.581 289.406 278.51 289.574L277.911 290.99C277.782 291.294 278.152 291.519 278.385 291.278L279.472 290.158C279.601 290.025 279.808 290.025 279.913 290.158L280.804 291.278C280.995 291.519 281.404 291.294 281.329 290.99L280.978 289.574C280.936 289.406 281.055 289.227 281.232 289.192L282.722 288.895C283.043 288.831 283.082 288.381 282.773 288.318Z" fill="#263238"/>
<path d="M292.237 288.318L290.799 288.021C290.629 287.986 290.541 287.807 290.612 287.639L291.211 286.223C291.34 285.919 290.97 285.694 290.737 285.935L289.65 287.055C289.521 287.188 289.314 287.188 289.209 287.055L288.318 285.935C288.127 285.695 287.718 285.919 287.793 286.223L288.144 287.639C288.186 287.807 288.067 287.986 287.89 288.021L286.4 288.318C286.08 288.382 286.041 288.831 286.35 288.895L287.788 289.192C287.958 289.227 288.046 289.406 287.975 289.574L287.376 290.99C287.247 291.294 287.617 291.519 287.85 291.278L288.937 290.158C289.066 290.025 289.273 290.025 289.378 290.158L290.269 291.278C290.46 291.519 290.869 291.294 290.794 290.99L290.443 289.574C290.401 289.406 290.52 289.227 290.697 289.192L292.187 288.895C292.506 288.831 292.546 288.381 292.237 288.318Z" fill="#263238"/>
<path d="M301.7 288.318L300.262 288.021C300.092 287.986 300.004 287.807 300.075 287.639L300.674 286.223C300.803 285.919 300.433 285.694 300.2 285.935L299.113 287.055C298.984 287.188 298.777 287.188 298.672 287.055L297.781 285.935C297.59 285.695 297.181 285.919 297.256 286.223L297.607 287.639C297.649 287.807 297.53 287.986 297.353 288.021L295.863 288.318C295.543 288.382 295.504 288.831 295.812 288.895L297.25 289.192C297.42 289.227 297.508 289.406 297.437 289.574L296.838 290.99C296.71 291.294 297.079 291.519 297.312 291.278L298.399 290.158C298.528 290.025 298.734 290.025 298.84 290.158L299.731 291.278C299.922 291.519 300.331 291.294 300.256 290.99L299.905 289.574C299.863 289.406 299.983 289.227 300.159 289.192L301.649 288.895C301.969 288.831 302.009 288.381 301.7 288.318Z" fill="#263238"/>
<path d="M311.163 288.318L309.725 288.021C309.555 287.986 309.467 287.807 309.538 287.639L310.137 286.223C310.265 285.919 309.896 285.694 309.663 285.935L308.576 287.055C308.447 287.188 308.241 287.188 308.135 287.055L307.244 285.935C307.053 285.695 306.644 285.919 306.719 286.223L307.07 287.639C307.112 287.807 306.992 287.986 306.816 288.021L305.326 288.318C305.006 288.382 304.967 288.831 305.275 288.895L306.713 289.192C306.883 289.227 306.971 289.406 306.9 289.574L306.301 290.99C306.172 291.294 306.542 291.519 306.775 291.278L307.862 290.158C307.991 290.025 308.198 290.025 308.303 290.158L309.194 291.278C309.385 291.519 309.794 291.294 309.719 290.99L309.368 289.574C309.326 289.406 309.445 289.227 309.622 289.192L311.112 288.895C311.432 288.831 311.472 288.381 311.163 288.318Z" fill="#263238"/>
<path d="M288.353 267.612H270.585C269.481 267.612 268.508 268.507 268.411 269.611C268.314 270.715 269.131 271.61 270.235 271.61H288.003C289.107 271.61 290.08 270.715 290.177 269.611C290.274 268.507 289.457 267.612 288.353 267.612Z" fill="#263238"/>
<path d="M306.39 267.612H296.08C294.976 267.612 294.003 268.507 293.906 269.611C293.809 270.715 294.626 271.61 295.73 271.61H306.04C307.144 271.61 308.117 270.715 308.214 269.611C308.311 268.507 307.494 267.612 306.39 267.612Z" fill="#263238"/>
<path d="M320.001 358.264C313.302 360.939 307.429 364.841 303.409 369.278C301.052 367.272 297.701 365.879 293.684 365.242L293.213 365.167L293.007 367.526L293.27 367.625C297.235 369.123 300.462 371.781 302.603 375.31L302.939 375.865L303.311 375.27C307.431 368.674 313.439 363.148 320.227 359.71L320.457 359.593L320.594 358.025L320.001 358.264Z" fill="#263238"/>
<path opacity="0.2" d="M230.645 161.374C229.396 163.571 228.572 166.022 228.344 168.619L213.452 338.84H259.529L268.787 303.347L265.74 267.854L274.998 232.361L271.951 196.868L281.209 161.375H230.645V161.374Z" fill="black"/>
<path d="M267.951 186.868L277.208 151.374H160.684L151.426 186.868L154.474 222.361L145.216 257.854L148.263 293.348L139.005 328.841H255.529L264.787 293.348L261.74 257.854L270.997 222.361L267.951 186.868Z" fill="#46760A"/>
<path opacity="0.7" d="M267.951 186.868L277.208 151.374H160.684L151.426 186.868L154.474 222.361L145.216 257.854L148.263 293.348L139.005 328.841H255.529L264.787 293.348L261.74 257.854L270.997 222.361L267.951 186.868Z" fill="white"/>
<path opacity="0.5" d="M267.95 186.868H151.426L160.684 151.374H277.208L267.95 186.868Z" fill="white"/>
<path opacity="0.5" d="M261.74 257.854H145.216L154.474 222.361H270.998L261.74 257.854Z" fill="white"/>
<path opacity="0.5" d="M255.529 328.841H139.005L148.263 293.348H264.787L255.529 328.841Z" fill="white"/>
<path opacity="0.2" d="M252.358 201.7C251.357 202.013 250.075 202.201 248.678 202.201C246.621 202.201 244.813 201.794 243.785 201.181C243.503 201.012 243.193 200.928 242.883 200.928C242.595 200.928 242.308 201.009 242.042 201.154C242.022 201.165 242 201.169 241.981 201.181C241.97 201.188 241.956 201.193 241.945 201.2C241.564 201.422 241.084 201.617 240.524 201.774C239.563 202.043 238.375 202.202 237.089 202.202C236.74 202.202 236.397 202.19 236.065 202.168C235.068 202.1 234.159 201.936 233.409 201.702C233.278 201.661 233.146 201.637 233.017 201.628C232.11 201.568 231.295 202.264 231.295 203.226V204.31H186.004C182.499 204.31 179.657 207.151 179.657 210.657V217.053C179.657 220.558 182.499 223.4 186.004 223.4H237.531C237.645 223.4 237.755 223.389 237.868 223.383C238.424 223.843 239.003 224.302 239.616 224.767C240.35 225.323 241.123 225.887 241.933 226.475C242.497 226.884 243.271 226.884 243.835 226.475C250.314 221.776 254.474 218.535 254.474 209.63V203.227C254.473 202.126 253.408 201.372 252.358 201.7Z" fill="black"/>
<path d="M236.546 219.875H185.019C181.514 219.875 178.672 217.034 178.672 213.528V207.132C178.672 203.627 181.513 200.785 185.019 200.785H236.546C240.051 200.785 242.893 203.626 242.893 207.132V213.528C242.893 217.033 240.051 219.875 236.546 219.875Z" fill="#46760A"/>
<path d="M247.694 198.677C245.637 198.677 243.83 198.27 242.801 197.657C242.236 197.32 241.562 197.32 240.997 197.657C239.969 198.27 238.162 198.677 236.104 198.677C234.706 198.677 233.425 198.489 232.424 198.177C231.375 197.849 230.309 198.602 230.309 199.702V206.105C230.309 215.01 234.469 218.251 240.948 222.95C241.512 223.359 242.286 223.359 242.85 222.95C249.329 218.251 253.489 215.01 253.489 206.105V199.702C253.489 198.602 252.424 197.849 251.374 198.177C250.373 198.489 249.092 198.677 247.694 198.677Z" fill="#46760A"/>
<path opacity="0.3" d="M247.694 198.677C245.637 198.677 243.83 198.27 242.801 197.657C242.236 197.32 241.562 197.32 240.997 197.657C239.969 198.27 238.162 198.677 236.104 198.677C234.706 198.677 233.425 198.489 232.424 198.177C231.375 197.849 230.309 198.602 230.309 199.702V206.105C230.309 215.01 234.469 218.251 240.948 222.95C241.512 223.359 242.286 223.359 242.85 222.95C249.329 218.251 253.489 215.01 253.489 206.105V199.702C253.489 198.602 252.424 197.849 251.374 198.177C250.373 198.489 249.092 198.677 247.694 198.677Z" fill="white"/>
<path opacity="0.2" d="M240.997 197.657C239.969 198.27 238.162 198.677 236.104 198.677C234.706 198.677 233.425 198.489 232.424 198.177C231.375 197.849 230.309 198.602 230.309 199.701V206.105C230.309 215.01 234.469 218.251 240.948 222.95C241.23 223.154 241.564 223.257 241.899 223.257V197.404C241.589 197.404 241.279 197.488 240.997 197.657Z" fill="white"/>
<path d="M251.186 204.357C246.999 206.089 243.416 208.616 241.065 211.49C239.425 210.191 237.176 209.289 234.538 208.876L234.229 208.828V210.356L234.405 210.42C237.058 211.39 239.298 213.112 240.885 215.397L241.134 215.756L241.341 215.371C243.636 211.099 247.214 207.52 251.415 205.294L251.558 205.218V204.203L251.186 204.357Z" fill="#263238"/>
<path d="M275.151 161.355H270.73C268.278 161.355 266.465 159.368 266.679 156.916L267.066 152.495C267.281 150.043 269.442 148.056 271.894 148.056H276.315C278.767 148.056 280.58 150.044 280.366 152.495L279.979 156.916C279.764 159.368 277.603 161.355 275.151 161.355Z" fill="#46760A"/>
<path d="M276.988 152.486L276.029 151.434L273.614 153.654L271.588 151.434L270.444 152.486L272.47 154.706L270.056 156.926L271.016 157.978L273.43 155.758L275.456 157.978L276.6 156.926L274.574 154.706L276.988 152.486Z" fill="white"/>
<path d="M176.372 199.494C178.935 202.281 181.384 205.168 183.802 208.082C186.223 210.993 188.584 213.956 190.916 216.945C191.018 217.075 190.977 217.022 191.001 217.061C191.012 217.078 191.014 217.106 191.028 217.12C191.054 217.149 191.068 217.197 191.099 217.223C191.145 217.297 191.212 217.35 191.279 217.42C191.421 217.547 191.615 217.644 191.831 217.684C191.938 217.7 192.051 217.716 192.166 217.704C192.228 217.712 192.283 217.693 192.348 217.691C192.382 217.692 192.407 217.674 192.44 217.67C192.491 217.648 192.459 217.693 192.597 217.611L195.102 216.253C198.462 214.474 201.849 212.735 205.352 211.174L208.28 214.8C205.458 217.397 202.519 220.645 199.553 223.025L197.313 224.786C197.256 224.838 197.015 224.996 196.864 225.097C196.691 225.208 196.522 225.328 196.339 225.426C195.976 225.626 195.61 225.826 195.221 225.98C194.453 226.312 193.633 226.523 192.802 226.651C191.135 226.899 189.403 226.731 187.786 226.152C186.98 225.862 186.199 225.475 185.488 224.981C185.124 224.745 184.791 224.468 184.459 224.189C184.292 224.05 184.143 223.895 183.987 223.744L183.589 223.341C180.943 220.627 178.326 217.887 175.768 215.095C173.208 212.305 170.678 209.49 168.262 206.574L176.372 199.494Z" fill="#B55B52"/>
<path d="M203.99 213.382L206.321 205.895L212.457 208.953C212.457 208.953 211.563 214.416 207.096 215.363L203.99 213.382Z" fill="#B55B52"/>
<path d="M208.783 203.818L214.317 205.342L212.458 208.952L206.322 205.894L208.783 203.818Z" fill="#B55B52"/>
<path d="M144.094 201.534C143.426 204.715 142.61 207.86 141.755 210.996C140.904 214.133 139.975 217.251 139.009 220.36L138.649 221.526L138.469 222.109C138.431 222.236 138.406 222.268 138.372 222.353C138.262 222.648 138.196 222.968 138.183 223.304C138.166 223.97 138.324 224.711 138.76 225.355C138.796 225.459 139.141 225.821 139.41 226.113L140.24 227.015L141.877 228.848C142.955 230.085 144.029 231.326 145.049 232.631L141.564 236.665C140.125 235.846 138.741 234.963 137.36 234.076L135.309 232.723L134.295 232.032C133.95 231.792 133.673 231.631 133.121 231.174C131.219 229.561 129.798 227.271 129.277 224.728C129.011 223.459 128.946 222.136 129.094 220.826C129.133 220.512 129.192 220.146 129.24 219.877L129.346 219.276L129.558 218.074C130.119 214.867 130.717 211.669 131.392 208.489C132.064 205.309 132.775 202.138 133.633 199.003L144.094 201.534Z" fill="#B55B52"/>
<path d="M141.625 232.346L145.751 230.236L147.571 237.249C147.571 237.249 144.26 238.518 141.697 236.888L141.625 232.346Z" fill="#B55B52"/>
<path d="M151.452 227.993L151.639 234.426L147.032 237.439L145.434 230.372L151.452 227.993Z" fill="#B55B52"/>
<path d="M164.942 168.469C165.043 168.965 165.387 169.313 165.711 169.247C166.035 169.181 166.216 168.726 166.115 168.23C166.014 167.734 165.67 167.386 165.346 167.452C165.023 167.518 164.842 167.973 164.942 168.469Z" fill="#263238"/>
<path d="M165.342 169.322C165.342 169.322 167.05 171.952 168.571 173.079C167.86 174.076 166.294 174.005 166.294 174.005L165.342 169.322Z" fill="#A02724"/>
<path d="M162.568 166.085C162.496 166.085 162.423 166.059 162.366 166.006C162.246 165.895 162.238 165.707 162.35 165.586C163.465 164.379 164.818 164.594 164.877 164.603C165.039 164.631 165.147 164.784 165.12 164.946C165.092 165.107 164.937 165.215 164.779 165.189C164.734 165.182 163.676 165.027 162.787 165.989C162.728 166.053 162.648 166.085 162.568 166.085Z" fill="#263238"/>
<path d="M150.521 175.44C151.624 180.027 152.725 188.432 148.788 191.492C148.788 191.492 150.326 196.145 160.783 196.145C172.281 196.145 166.278 193.148 166.278 193.148C160.003 191.927 160.164 186.476 161.257 182.912L150.521 175.44Z" fill="#B55B52"/>
<path d="M147.563 192.343C146.878 191.068 146.123 189.61 147.684 189.153C149.401 188.65 160.432 187.718 163.672 188.662C162.676 190.433 164.362 192.61 164.362 192.61L147.563 192.343Z" fill="#263238"/>
<path d="M156.696 406.919H163.911L164.629 392.398H157.415L156.696 406.919Z" fill="#B55B52"/>
<path d="M110.913 404.919L118.22 405.305L122.661 391L115.353 390.613L110.913 404.919Z" fill="#B55B52"/>
<path d="M117.997 404.727L111.112 403.236C110.862 403.182 110.607 403.309 110.5 403.542L108.11 408.727C107.862 409.265 108.19 409.896 108.771 410.011C111.183 410.49 112.382 410.602 115.409 411.257C117.272 411.66 121.476 412.685 124.049 413.242C126.565 413.787 127.508 411.328 126.505 410.87C122.007 408.815 120.128 407.005 118.91 405.319C118.691 405.016 118.364 404.807 117.997 404.727Z" fill="#263238"/>
<path d="M163.529 406.193H156.682C156.426 406.193 156.204 406.371 156.148 406.621L154.909 412.194C154.781 412.772 155.219 413.319 155.811 413.309C158.281 413.267 161.85 413.122 164.955 413.122C168.585 413.122 171.72 413.32 175.977 413.32C178.551 413.32 179.265 410.718 178.188 410.482C173.283 409.409 169.278 409.294 165.039 406.681C164.579 406.397 164.07 406.193 163.529 406.193Z" fill="#263238"/>
<path d="M135.725 193.612C130.28 196.201 128.8 211.896 128.8 211.896L142.27 218.12C142.27 218.12 145.613 213.195 145.869 205.451C146.137 197.338 141.292 190.965 135.725 193.612Z" fill="#263238"/>
<path opacity="0.4" d="M143.032 203.291C140.6 207.066 140.83 212.907 141.672 217.843L142.267 218.122C142.267 218.122 145.614 213.191 145.871 205.449C145.886 204.965 145.884 204.484 145.867 204.016L143.032 203.291Z" fill="black"/>
<path d="M173.313 193.233C173.313 193.233 179.987 200.771 173.684 247.428C163.579 247.428 145.064 247.428 140.147 247.428C139.916 242.28 143.151 217.167 138.185 192.91C138.185 192.91 143.934 191.756 149.412 191.492C153.697 191.286 159.901 191.149 163.668 191.492C168.635 191.946 173.313 193.233 173.313 193.233Z" fill="#46760A"/>
<path opacity="0.6" d="M173.313 193.233C173.313 193.233 179.987 200.771 173.684 247.428C163.579 247.428 145.064 247.428 140.147 247.428C139.916 242.28 143.151 217.167 138.185 192.91C138.185 192.91 143.934 191.756 149.412 191.492C153.697 191.286 159.901 191.149 163.668 191.492C168.635 191.946 173.313 193.233 173.313 193.233Z" fill="#FAFAFA"/>
<path opacity="0.2" d="M176.244 207.493L176.116 207.382L169.446 203.818C168.768 214.088 173.359 220.526 176.09 223.342C176.466 216.762 176.457 211.572 176.244 207.493Z" fill="black"/>
<path opacity="0.2" d="M164.628 392.402L164.259 399.887H157.041L157.41 392.402H164.628Z" fill="black"/>
<path opacity="0.2" d="M115.351 390.617L122.661 391.004L120.368 398.377L113.058 397.991L115.351 390.617Z" fill="black"/>
<path d="M148.199 170.778C149.81 176.789 150.447 180.389 154.157 182.888C159.736 186.647 166.683 182.333 166.9 175.962C167.096 170.228 164.428 161.362 157.978 160.15C151.623 158.957 146.588 164.767 148.199 170.778Z" fill="#B55B52"/>
<path d="M161.787 247.428C161.787 247.428 154.671 295.345 150.765 313.297C146.487 332.955 123.549 397.995 123.549 397.995L112.325 395.565C112.325 395.565 126.709 342.562 130.299 315.079C131.7 304.354 133.391 287.066 135.531 272.652C137.603 258.693 140.147 247.428 140.147 247.428H161.787Z" fill="#263238"/>
<path d="M126.236 394.247C126.284 394.257 124.144 398.306 124.144 398.306L111.516 395.572L112.581 391.776L126.236 394.247Z" fill="#46760A"/>
<path opacity="0.6" d="M126.236 394.247C126.284 394.257 124.144 398.306 124.144 398.306L111.516 395.572L112.581 391.776L126.236 394.247Z" fill="white"/>
<path opacity="0.6" d="M157.29 264.5C149.062 266.113 149.933 296.796 150.923 312.578C153.296 301.423 156.769 279.957 159.142 264.722C158.596 264.449 157.981 264.364 157.29 264.5Z" fill="black"/>
<path d="M173.684 247.428C173.684 247.428 177.031 294.308 176.349 313.429C175.64 333.317 166.21 398.438 166.21 398.438H155.588C155.588 398.438 155.198 334.479 154.726 314.947C154.211 293.653 151.64 247.428 151.64 247.428H173.684Z" fill="#263238"/>
<path d="M168.253 394.207C168.302 394.207 167.654 398.617 167.654 398.617H154.733L154.384 394.681L168.253 394.207Z" fill="#46760A"/>
<path opacity="0.6" d="M168.253 394.207C168.302 394.207 167.654 398.617 167.654 398.617H154.733L154.384 394.681L168.253 394.207Z" fill="white"/>
<path d="M169.399 202.015C169.399 214.596 176.094 219.776 176.094 219.776L186.976 209.138C186.976 209.138 183.276 202.763 178.188 196.911C171.901 189.681 169.399 193.925 169.399 202.015Z" fill="#263238"/>
<path opacity="0.2" d="M166.519 178.239C166.243 179.01 165.518 180.317 163.697 180.838C161.041 181.598 161.006 183.849 161.006 183.849L161.039 183.891C163.573 183.054 165.683 180.96 166.519 178.239Z" fill="black"/>
<path d="M163.698 158.831C165.94 156.004 162.491 155.869 162.491 155.869C163.387 152.494 159.353 154.311 159.353 154.311C156.931 150.973 155.565 155.035 155.565 155.035C153.053 152.207 152.591 156.829 152.591 156.829C150.072 153.242 148.789 158.416 148.789 158.416C146.469 154.691 145.049 159.544 145.049 159.544C140.259 157.829 142.536 162.807 142.536 162.807C138.447 162.922 141.727 166.085 141.727 166.085C136.829 166.097 141.148 168.902 141.148 168.902C137.258 171.454 142.141 172.141 142.141 172.141C138.967 177.104 144.417 175.263 144.417 175.263C142.209 180.175 147.105 178.011 147.105 178.011C146.787 182.751 149.525 181.461 150.841 180.583C151.095 181.538 151.569 182.549 152.449 182.664C154.157 182.887 154.489 179.663 154.489 179.663C154.489 179.663 156.074 180.896 157.403 180.228C158.732 179.56 158.231 177.869 158.231 177.869C158.231 177.869 159.248 178.628 160.18 177.904C160.75 177.461 160.753 174.278 160.026 173.159L162.629 172.14C162.629 172.14 164.561 171.868 163.698 169.321C162.836 166.775 163.567 164.764 163.567 164.764C166.505 163.387 164.095 161.731 164.095 161.731C167.492 159.53 163.698 158.831 163.698 158.831Z" fill="#263238"/>
<path d="M158.425 171.03C158.834 172.608 159.871 173.964 160.955 174.771C162.587 175.985 163.805 174.79 163.689 172.944C163.585 171.282 162.61 168.648 160.81 168.155C159.038 167.669 157.958 169.226 158.425 171.03Z" fill="#B55B52"/>
</svg>
