<svg width="947" height="1059" viewBox="0 0 947 1059" fill="none" xmlns="http://www.w3.org/2000/svg">
<path d="M947 809.919H0V810.448H947V809.919Z" fill="#E6E6E6"/>
<path d="M236.421 841.964H173.688V842.494H236.421V841.964Z" fill="#E6E6E6"/>
<path d="M153.834 841.964H117.483V842.494H153.834V841.964Z" fill="#E6E6E6"/>
<path d="M398.789 849.758H362.44V850.288H398.789V849.758Z" fill="#E6E6E6"/>
<path d="M588.307 861.583H506.499V862.113H588.307V861.583Z" fill="#E6E6E6"/>
<path d="M489.637 861.583H477.642V862.113H489.637V861.583Z" fill="#E6E6E6"/>
<path d="M858.632 849.758H681.209V850.288H858.632V849.758Z" fill="#E6E6E6"/>
<path d="M448.904 715.46H83.175C77.2145 715.46 72.364 710.036 72.364 703.371V128.478C72.364 121.812 77.2145 116.388 83.175 116.388H448.904C454.863 116.388 459.714 121.812 459.714 128.478V703.371C459.714 710.036 454.863 715.46 448.904 715.46ZM83.175 116.92C77.474 116.92 72.8375 122.105 72.8375 128.48V703.373C72.8375 709.748 77.474 714.933 83.175 714.933H448.904C454.604 714.933 459.24 709.748 459.24 703.373V128.478C459.24 122.105 454.604 116.918 448.904 116.918L83.175 116.92Z" fill="#E6E6E6"/>
<path d="M858.569 715.46H492.842C486.883 715.46 482.032 710.036 482.032 703.371V128.478C482.032 121.812 486.883 116.388 492.842 116.388H858.569C864.531 116.388 869.38 121.812 869.38 128.478V703.371C869.382 710.036 864.531 715.46 858.569 715.46ZM492.842 116.92C487.142 116.92 482.506 122.105 482.506 128.48V703.373C482.506 709.748 487.142 714.933 492.842 714.933H858.569C864.27 714.933 868.907 709.748 868.907 703.373V128.478C868.907 122.105 864.27 116.918 858.569 116.918L492.842 116.92Z" fill="#E6E6E6"/>
<path d="M506.454 628.997H464.806V813.759H506.454V628.997Z" fill="#E0E0E0"/>
<path d="M498.544 813.761H506.454V788.599H490.25L498.544 813.761Z" fill="#FAFAFA"/>
<path d="M323.957 628.997H282.31V813.759H323.957V628.997Z" fill="#E0E0E0"/>
<path d="M506.456 628.997H317.054V798.321H506.456V628.997Z" fill="#FAFAFA"/>
<path d="M499.586 637.321V682.119H323.921V637.321H499.586ZM500.317 636.503H323.188V682.938H500.317V636.503Z" fill="#E0E0E0"/>
<path d="M324.963 813.761H317.054V788.599H333.257L324.963 813.761Z" fill="#FAFAFA"/>
<path d="M407.564 659.719C407.564 662.305 409.439 664.404 411.754 664.404C414.066 664.404 415.943 662.307 415.943 659.719C415.943 657.133 414.068 655.034 411.754 655.034C409.441 655.036 407.564 657.133 407.564 659.719Z" fill="#E6E6E6"/>
<path d="M499.586 691.26V736.058H323.921V691.26H499.586ZM500.317 690.442H323.188V736.877H500.317V690.442Z" fill="#E0E0E0"/>
<path d="M407.564 713.658C407.564 716.244 409.439 718.343 411.754 718.343C414.066 718.343 415.943 716.246 415.943 713.658C415.943 711.069 414.068 708.973 411.754 708.973C409.441 708.975 407.564 711.072 407.564 713.658Z" fill="#E6E6E6"/>
<path d="M499.586 745.199V789.997H323.921V745.199H499.586ZM500.317 744.381H323.188V790.816H500.317V744.381Z" fill="#E0E0E0"/>
<path d="M407.564 767.599C407.564 770.185 409.439 772.284 411.754 772.284C414.066 772.284 415.943 770.187 415.943 767.599C415.943 765.011 414.068 762.914 411.754 762.914C409.441 762.914 407.564 765.011 407.564 767.599Z" fill="#E6E6E6"/>
<path d="M298.513 521.697H256.866V813.761H298.513V521.697Z" fill="#E0E0E0"/>
<path d="M290.604 813.761H298.513V788.599H282.31L290.604 813.761Z" fill="#FAFAFA"/>
<path d="M142.859 521.697H101.212V813.761H142.859V521.697Z" fill="#E0E0E0"/>
<path d="M298.513 521.697H135.957V798.321H298.513V521.697Z" fill="#FAFAFA"/>
<path d="M291.515 529.53V592.159H142.956V529.53H291.515ZM292.377 528.566H142.094V593.125H292.377V528.566Z" fill="#E0E0E0"/>
<path d="M291.515 599.771V765.898H220.753V599.771H291.515ZM292.377 598.807H219.89V766.866H292.377V598.807Z" fill="#E0E0E0"/>
<path d="M213.717 599.771V765.898H142.956V599.771H213.717ZM214.581 598.807H142.094V766.866H214.581V598.807Z" fill="#E0E0E0"/>
<path d="M143.866 813.761H135.957V788.599H152.16L143.866 813.761Z" fill="#FAFAFA"/>
<path d="M213.047 560.844C213.047 563.432 214.922 565.529 217.236 565.529C219.549 565.529 221.426 563.432 221.426 560.844C221.426 558.258 219.551 556.159 217.236 556.159C214.922 556.161 213.047 558.258 213.047 560.844Z" fill="#E6E6E6"/>
<path d="M228.043 678.874C228.043 681.46 229.919 683.559 232.233 683.559C234.547 683.559 236.423 681.462 236.423 678.874C236.423 676.288 234.547 674.189 232.233 674.189C229.919 674.189 228.043 676.286 228.043 678.874Z" fill="#E6E6E6"/>
<path d="M198.048 678.874C198.048 681.46 199.923 683.559 202.238 683.559C204.55 683.559 206.427 681.462 206.427 678.874C206.427 676.288 204.552 674.189 202.238 674.189C199.925 674.189 198.048 676.286 198.048 678.874Z" fill="#E6E6E6"/>
<path d="M193.33 440.267H175.761C175.761 440.267 178.811 458.428 178.811 469.116C178.811 479.803 165.447 521.697 184.546 521.697C203.643 521.697 190.281 479.801 190.281 469.116C190.279 458.426 193.33 440.267 193.33 440.267Z" fill="#E0E0E0"/>
<path d="M126.525 483.217V495.982C126.525 510.124 136.872 521.695 149.52 521.695H160.935C173.581 521.695 183.928 510.124 183.928 495.982V483.217H126.525Z" fill="#F5F5F5"/>
<path d="M370.593 602.073C370.593 616.882 385.425 628.999 403.553 628.999H419.915C438.044 628.999 452.876 616.882 452.876 602.073H370.593Z" fill="#E0E0E0"/>
<path d="M804.204 580.395C794.279 589.454 780.582 606.042 768.03 629.38C759.67 644.922 754.632 661.208 752.42 682.722C752.467 658.367 752.535 632.2 752.611 607.504C755.132 601.148 760.89 586.502 765.021 574.929C778.803 536.316 783.936 526.821 796.332 493.515C812.865 449.092 829.807 396.381 824.956 400.594C815.072 409.176 777.19 488.5 773.095 499.854C759.011 538.91 755.089 567.378 752.651 594.851C752.727 571.654 752.808 550.356 752.888 533.922C753.142 480.32 753.958 463.02 754.356 457.685C755.888 454.974 757.698 451.814 758.752 450.111C767.65 435.723 771.082 423.466 779.466 402.007C791.347 371.599 801.579 317.611 798.588 320.335C786.133 331.672 776.309 356.048 763.399 387.109C750.492 418.169 754.181 436.03 751.621 462.558C751.083 467.764 750.672 487.409 750.374 514.636C747.026 485.63 740.745 466.515 729.287 449.145C715.191 427.781 701.557 413.349 691.552 405.811C681.548 398.275 708.828 450.755 721.873 473.661C733.491 494.059 744.192 512.06 750.227 529.788C749.907 566.688 749.759 613.415 749.759 656.91C746.766 637.115 741.88 615.802 735.361 599.296C727.527 579.466 715.476 549.049 705.882 538.732C703.577 536.254 715.913 595.41 723.828 611.14C731.745 626.871 737.556 641.695 742.539 650.611C743.702 652.691 747.558 660.714 749.761 665.327C749.782 718.425 750.024 765.28 750.437 781.228H752.488C752.348 777.113 752.325 750.102 752.369 714.353C757.308 694.941 768.606 672.791 777.928 652.583C788.105 630.522 814.13 571.335 804.204 580.395Z" fill="#E0E0E0"/>
<path d="M781.162 813.76H721.798L717.317 748.687H785.643L781.162 813.76Z" fill="#F0F0F0"/>
<path d="M790.067 756.27H712.892L710.682 734.314H792.277L790.067 756.27Z" fill="#F5F5F5"/>
<path d="M235.349 159.902H129.186V290.263H235.349V159.902Z" fill="#E0E0E0"/>
<path d="M246.847 159.902H137.188V290.263H246.847V159.902Z" fill="#F5F5F5"/>
<path d="M237.659 279.989L237.659 170.175L146.374 170.175V279.989H237.659Z" fill="white"/>
<path d="M215.533 253.375V196.794H168.501V253.375H215.533Z" fill="#F5F5F5"/>
<path d="M776.637 175.099H678.016V296.2H776.637V175.099Z" fill="#E0E0E0"/>
<path d="M787.319 175.099H685.45V296.2H787.319V175.099Z" fill="#F5F5F5"/>
<path d="M778.784 286.658V184.644L693.984 184.644V286.658H778.784Z" fill="white"/>
<path d="M736.384 265.235C750.995 265.235 762.839 251.99 762.839 235.651C762.839 219.312 750.995 206.066 736.384 206.066C721.773 206.066 709.928 219.312 709.928 235.651C709.928 251.99 721.773 265.235 736.384 265.235Z" fill="#F5F5F5"/>
<path d="M345.634 237.633H266.882V334.337H345.634V237.633Z" fill="#E0E0E0"/>
<path d="M354.167 237.633H272.819V334.337H354.167V237.633Z" fill="#F5F5F5"/>
<path d="M347.351 326.717V245.255H279.635V326.717H347.351Z" fill="white"/>
<path d="M313.493 265.392L294.973 301.264H332.012L313.493 265.392Z" fill="#F5F5F5"/>
<path d="M473.5 905.574C676.313 905.574 840.726 894.837 840.726 881.592C840.726 868.347 676.313 857.61 473.5 857.61C270.687 857.61 106.274 868.347 106.274 881.592C106.274 894.837 270.687 905.574 473.5 905.574Z" fill="#F5F5F5"/>
<path d="M661.472 346.149L642.685 337.63C642.685 337.63 617.893 388.193 610.792 390.746C601.129 394.219 581.146 403.875 569.27 405.684C567.67 407.776 565.03 414.376 565.281 416.782C581.214 422.723 616.215 414.834 623.708 408.613C640.788 394.425 661.472 346.149 661.472 346.149Z" fill="#E58A7B"/>
<path d="M667.256 334.675C670.751 349.16 651.775 378.255 651.775 378.255L626.846 362.618C626.846 362.618 631.494 350.658 637.183 338.477C646.371 318.807 663.266 318.144 667.256 334.675Z" fill="#46760A"/>
<path opacity="0.2" d="M667.256 334.675C670.751 349.16 651.775 378.255 651.775 378.255L626.846 362.618C626.846 362.618 631.494 350.658 637.183 338.477C646.371 318.807 663.266 318.144 667.256 334.675Z" fill="black"/>
<path opacity="0.2" d="M636.786 368.845L646.576 374.983L648.288 341.379C642.606 346.276 638.575 361.011 636.786 368.845Z" fill="black"/>
<path d="M650.896 323.764C650.896 323.764 631.541 371.918 642.826 461.597C665.807 461.597 707.915 461.597 719.097 461.597C720.309 448.503 716.301 384.633 730.828 322.942C730.828 322.942 717.908 320.008 705.485 319.337C695.767 318.812 681.675 318.464 673.061 319.339C661.705 320.491 650.896 323.764 650.896 323.764Z" fill="#46760A"/>
<path opacity="0.2" d="M650.896 323.764C650.896 323.764 631.541 371.918 642.826 461.597C665.807 461.597 707.915 461.597 719.097 461.597C720.309 448.503 716.301 384.633 730.828 322.942C730.828 322.942 717.908 320.008 705.485 319.337C695.767 318.812 681.675 318.464 673.061 319.339C661.705 320.491 650.896 323.764 650.896 323.764Z" fill="black"/>
<path d="M633.208 883.507C633.089 885.781 662.006 887.624 697.797 887.624C733.588 887.624 762.699 885.781 762.818 883.507C762.937 881.232 734.02 879.389 698.229 879.389C662.438 879.387 633.327 881.232 633.208 883.507Z" fill="#E8ECF1"/>
<path d="M685.896 826.354L672.323 832.202L683.961 865.983L697.534 860.135L685.896 826.354Z" fill="#E58A7B"/>
<path d="M744.439 867.223H730.179L724.948 830.294H739.207L744.439 867.223Z" fill="#E58A7B"/>
<path d="M729.262 865.376H745.283C745.867 865.376 746.348 865.83 746.441 866.465L748.515 880.639C748.73 882.109 747.624 883.5 746.278 883.475C740.69 883.367 737.992 883 730.948 883C726.614 883 717.658 883.504 711.671 883.504C705.816 883.504 705.25 876.886 707.733 876.286C718.86 873.599 723.194 869.892 726.896 866.357C727.563 865.72 728.41 865.376 729.262 865.376Z" fill="#263238"/>
<path d="M681.787 859.793L696.979 854.854C697.547 854.67 698.132 854.943 698.384 855.513L704.013 868.212C704.596 869.527 703.907 871.179 702.589 871.582C697.087 873.261 693.388 874.312 686.499 876.551C681.74 878.097 676.899 880.617 672.196 882.295C668.94 883.455 661.294 883.502 657.334 883.502C651.479 883.502 650.174 876.599 652.684 876.284C659.034 875.487 659.887 875.856 663.392 873.89C669.188 870.639 673.671 867.947 678.688 862.07C679.563 861.049 680.588 860.183 681.787 859.793Z" fill="#263238"/>
<path d="M571.672 405.531L555.98 398.148L549.52 417.587C549.52 417.587 558.575 419.423 568.916 417.587L571.672 405.531Z" fill="#E58A7B"/>
<path d="M544.319 397.671L543.904 410.606L549.52 417.587L555.98 398.148L544.319 397.671Z" fill="#E58A7B"/>
<path d="M685.947 826.316L672.371 832.176L678.381 849.585L691.956 843.726L685.947 826.316Z" fill="#CF6F64"/>
<path d="M739.211 830.305H724.946L727.65 849.339H741.916L739.211 830.305Z" fill="#CF6F64"/>
<path opacity="0.2" d="M640.405 437.339C640.678 441.171 641.009 445.087 641.416 449.113L698.132 428.524C706.989 425.563 714.695 419.338 719.951 410.83C720.165 405.171 720.457 399.23 720.885 393.026C721.08 390.002 721.313 386.91 721.567 383.777C721.839 380.513 722.15 377.182 722.5 373.831L640.405 437.339Z" fill="black"/>
<path d="M658.923 367.871L656.991 367.615C658.116 357.046 665.171 348.693 672.624 348.892L672.567 351.069C666.133 350.859 659.934 358.393 658.923 367.871Z" fill="white"/>
<path d="M669.014 387.429C668.908 387.429 668.802 387.427 668.694 387.424L668.751 385.247C675.264 385.514 681.384 377.921 682.395 368.443L684.327 368.701C683.217 379.12 676.385 387.429 669.014 387.429Z" fill="white"/>
<path d="M704.413 278.51C701.755 290.176 698.594 311.551 705.485 319.335C705.485 319.335 700.672 331.168 681.287 331.168C663.572 331.168 673.061 319.335 673.061 319.335C684.857 316.228 685.064 306.576 683.512 297.511L704.413 278.51Z" fill="#E58A7B"/>
<path d="M695.892 286.265L683.522 297.505C683.895 299.65 684.16 301.826 684.185 303.939C687.801 307.966 695.058 297.765 695.803 292.561C696.172 289.969 696.206 287.474 695.892 286.265Z" fill="#CF6F64"/>
<path d="M662.264 278.366C664.076 281.997 667.275 284.257 670.298 285.008C674.846 286.142 677.132 281.463 675.878 276.755C674.749 272.516 671.024 266.821 666.453 267.798C661.951 268.761 660.19 274.215 662.264 278.366Z" fill="#CF6F64"/>
<path d="M669.768 241.028C662.684 244.658 660.188 276.126 669.093 280.779C677.999 285.43 683.185 234.155 669.768 241.028Z" fill="#263238"/>
<path d="M706.574 260.954C704.879 276.75 704.6 286.046 697.041 294.154C685.67 306.349 668.612 299.116 666.069 283.348C663.779 269.155 666.936 245.707 681.094 239.42C695.041 233.227 708.269 245.158 706.574 260.954Z" fill="#E58A7B"/>
<path d="M683.306 249.214C693.784 246.217 701.496 244.175 698.744 253.956C695.077 266.986 690.679 279.61 696.579 280.198C700.166 280.556 716.078 273.006 714.057 265.372C712.297 258.722 719.693 256.928 721.057 253.537C725.968 241.325 711.936 242.911 714.432 235.521C716.864 228.327 703.127 216.167 695.515 222.108C683.194 231.726 662.019 231.588 673.152 215.813C681.124 204.516 666.9 206.835 666.9 206.835C666.9 206.835 675.491 212.535 661.031 221.346C645.701 230.682 659.733 255.958 683.306 249.214Z" fill="#263238"/>
<path d="M712.042 278.366C709.847 281.997 706.413 284.257 703.311 285.008C698.644 286.142 696.85 281.463 698.596 276.755C700.17 272.516 704.492 266.821 708.96 267.798C713.36 268.761 714.55 274.215 712.042 278.366Z" fill="#E58A7B"/>
<path d="M642.826 461.597C642.826 461.597 630.024 589.73 629.024 638.359C627.986 688.941 672.412 846.757 672.412 846.757L695.161 836.074C695.161 836.074 668.673 691.895 672.353 642.218C676.365 588.063 692.962 461.595 692.962 461.595H642.826V461.597Z" fill="#46760A"/>
<path opacity="0.2" d="M674.641 496.779C664.442 520.458 671.313 567.274 676.84 595.027C678.942 575.437 681.433 554.175 683.808 534.498C683.575 504.245 681.473 480.892 674.641 496.779Z" fill="black"/>
<path d="M694.132 827.769C694.238 827.721 696.829 835.877 696.829 835.877L670.609 848.189L666.478 839.6L694.132 827.769Z" fill="#46760A"/>
<path d="M669.881 461.597C669.881 461.597 679.675 583.462 686.166 629.118C693.274 679.113 721.195 845.654 721.195 845.654H747.314C747.314 845.654 731.664 683.15 728.707 633.65C725.499 579.925 719.095 461.597 719.095 461.597H669.881Z" fill="#46760A"/>
<path d="M747.713 838.044C747.825 838.044 748.586 846.206 748.586 846.206H719.879L717.83 836.836L747.713 838.044Z" fill="#46760A"/>
<path opacity="0.2" d="M737.707 828.396C737.584 828.396 737.48 828.292 737.467 828.155C737.325 826.676 723.212 679.965 720.557 635.491C717.676 587.228 711.883 480.216 711.824 479.14C711.816 478.99 711.919 478.861 712.051 478.852C712.057 478.852 712.063 478.852 712.066 478.852C712.193 478.852 712.303 478.964 712.311 479.108C712.367 480.182 718.161 587.194 721.044 635.453C723.697 679.918 737.808 826.619 737.95 828.095C737.965 828.246 737.868 828.379 737.736 828.394C737.724 828.396 737.715 828.396 737.707 828.396Z" fill="black"/>
<path d="M684.916 265.37C684.848 266.656 684.185 267.7 683.433 267.7C682.681 267.7 682.126 266.658 682.194 265.37C682.26 264.085 682.925 263.041 683.677 263.041C684.429 263.041 684.984 264.085 684.916 265.37Z" fill="#263238"/>
<path d="M671.916 265.37C671.847 266.656 671.184 267.7 670.433 267.7C669.681 267.7 669.126 266.658 669.194 265.37C669.262 264.085 669.925 263.041 670.677 263.041C671.429 263.041 671.984 264.085 671.916 265.37Z" fill="#263238"/>
<path d="M676.014 266.01C676.014 266.01 673.01 273.431 669.942 277.011C671.866 279.135 675.376 278.163 675.376 278.163L676.014 266.01Z" fill="#DF5753"/>
<path d="M676.346 283.56C676.16 283.56 676.016 283.39 676.027 283.183C676.039 282.975 676.2 282.806 676.385 282.806C681.435 282.806 683.997 278.862 684.024 278.822C684.138 278.648 684.35 278.597 684.497 278.712C684.647 278.826 684.679 279.059 684.568 279.235C684.454 279.409 681.757 283.56 676.346 283.56Z" fill="#263238"/>
<path d="M687.228 261.458C687.033 261.543 686.814 261.53 686.632 261.401C684.147 259.652 681.831 260.825 681.808 260.84C681.49 261.022 681.067 260.863 680.925 260.486C680.783 260.109 680.95 259.658 681.295 259.478C681.418 259.412 684.317 257.94 687.401 260.111C687.71 260.329 687.785 260.793 687.573 261.149C687.486 261.293 687.363 261.399 687.228 261.458Z" fill="#263238"/>
<path d="M666.889 257.233C666.796 257.203 666.705 257.15 666.631 257.07C666.366 256.795 666.366 256.318 666.631 256.005C669.275 252.881 672.34 253.357 672.469 253.378C672.828 253.423 673.069 253.823 672.991 254.236C672.914 254.647 672.558 254.931 672.194 254.871C672.092 254.855 669.7 254.514 667.588 257.006C667.4 257.231 667.126 257.309 666.889 257.233Z" fill="#263238"/>
<path d="M738.149 343.787L718.445 337.922C718.445 337.922 699.127 391.101 692.303 394.572C683.016 399.298 659.504 415.64 649.511 423.521C648.956 426.156 649.392 433.179 650.65 435.092C667.641 431.64 700.329 417.587 707.146 410.443C722.688 394.157 738.149 343.787 738.149 343.787Z" fill="#E58A7B"/>
<path d="M724.4 868.162C723.315 868.162 722.311 867.954 721.698 867.35C721.211 866.87 721.012 866.196 721.105 865.353C721.173 864.724 721.485 864.425 721.739 864.286C723.347 863.383 727.796 866.539 728.298 866.903C728.408 866.986 728.461 867.136 728.433 867.287C728.402 867.435 728.296 867.556 728.162 867.59C727.156 867.857 725.719 868.162 724.4 868.162ZM722.455 864.862C722.279 864.862 722.129 864.891 722.012 864.957C721.919 865.01 721.807 865.107 721.777 865.4C721.711 866.001 721.836 866.45 722.163 866.772C722.904 867.507 724.76 867.604 727.211 867.058C725.654 866.016 723.548 864.862 722.455 864.862Z" fill="#46760A"/>
<path d="M728.082 867.6C728.027 867.6 727.972 867.586 727.923 867.556C726.493 866.658 723.824 863.165 724.22 861.386C724.29 861.064 724.533 860.507 725.347 860.397C725.879 860.323 726.351 860.488 726.76 860.88C728.338 862.394 728.436 866.997 728.44 867.192C728.444 867.329 728.378 867.463 728.27 867.537C728.211 867.579 728.147 867.6 728.082 867.6ZM725.544 861.136C725.495 861.136 725.444 861.143 725.391 861.149C724.949 861.208 724.898 861.435 724.877 861.53C724.643 862.581 726.323 865.222 727.724 866.467C727.628 865.122 727.313 862.439 726.304 861.469C726.071 861.244 725.823 861.136 725.544 861.136Z" fill="#46760A"/>
<path d="M674.107 865.527C672.713 865.904 671.383 866.016 670.535 865.501C669.995 865.175 669.684 864.629 669.613 863.885C669.569 863.44 669.703 863.053 669.997 862.763C671.524 861.244 677.702 862.877 678.403 863.068C678.539 863.106 678.636 863.237 678.641 863.398C678.647 863.559 678.564 863.709 678.429 863.779C677.283 864.36 675.654 865.107 674.107 865.527ZM671.027 863.01C670.768 863.08 670.563 863.18 670.429 863.313C670.31 863.432 670.266 863.568 670.285 863.762C670.334 864.266 670.531 864.618 670.883 864.834C671.889 865.446 674.224 864.961 677.23 863.555C675.118 863.059 672.357 862.648 671.027 863.01Z" fill="#46760A"/>
<path d="M678.366 863.8C678.319 863.813 678.272 863.813 678.224 863.807C676.389 863.426 672.468 860.99 672.432 859.166C672.423 858.741 672.603 858.156 673.501 857.809C674.152 857.535 674.823 857.59 675.452 857.936C677.51 859.071 678.586 863.138 678.632 863.309C678.664 863.436 678.633 863.576 678.55 863.68C678.499 863.741 678.435 863.781 678.366 863.8ZM673.887 858.45C673.823 858.467 673.756 858.493 673.688 858.516C673.101 858.747 673.107 859.016 673.107 859.105C673.13 860.198 675.851 862.21 677.774 862.888C677.391 861.719 676.471 859.359 675.122 858.616C674.717 858.391 674.309 858.336 673.887 858.45Z" fill="#46760A"/>
<path d="M651.116 422.27L631.365 432.436L629.073 438.667L636.373 444.159C636.373 444.159 649.994 442.501 653.875 432.713L651.116 422.27Z" fill="#E58A7B"/>
<path d="M651.956 435.452C650.722 427.247 648.309 423.504 648.286 423.468L651.4 420.857C651.521 421.037 654.383 425.358 655.796 434.73L651.956 435.452Z" fill="#263238"/>
<path d="M655.32 425.275C655.96 427.048 654.932 429.183 653.021 430.047C651.11 430.911 649.043 430.174 648.403 428.401C647.763 426.628 648.792 424.494 650.703 423.629C652.612 422.767 654.68 423.502 655.32 425.275Z" fill="#263238"/>
<path d="M618.02 440.645L620.643 443.617L638.365 435.141L631.365 432.438L618.02 440.645Z" fill="#E58A7B"/>
<path opacity="0.2" d="M694.132 827.769C694.238 827.721 696.829 835.877 696.829 835.877L670.609 848.189L666.478 839.6L694.132 827.769Z" fill="black"/>
<path opacity="0.2" d="M747.713 838.044C747.825 838.044 748.586 846.206 748.586 846.206H719.879L717.83 836.836L747.713 838.044Z" fill="black"/>
<path d="M743.283 337.692C748.494 356.472 728.207 382.127 728.207 382.127L700.085 369.292C700.085 369.292 704.047 355.648 711.587 337.368C720.159 316.592 738.024 318.738 743.283 337.692Z" fill="#46760A"/>
<path opacity="0.2" d="M743.283 337.692C748.494 356.472 728.207 382.127 728.207 382.127L700.085 369.292C700.085 369.292 704.047 355.648 711.587 337.368C720.159 316.592 738.024 318.738 743.283 337.692Z" fill="black"/>
<path d="M463.791 149.467H451.694V151.645H463.791V149.467Z" fill="#46760A"/>
<path d="M620.48 235.798L619.016 272.14L620.959 272.238L622.423 235.896L620.48 235.798Z" fill="#46760A"/>
<path d="M616.711 159.261H393.221L372.415 679.694H595.905L616.711 159.261Z" fill="#46760A"/>
<path opacity="0.56" d="M610.038 166.403H386.548L365.745 686.836H589.235L610.038 166.403Z" fill="#FAFAFA"/>
<path opacity="0.07" d="M603.366 173.545H379.878L359.072 693.978H582.562L603.366 173.545Z" fill="#46760A"/>
<path d="M577.927 400.526H387.17L385.577 440.357H576.337L577.927 400.526Z" fill="white"/>
<path d="M492.09 371.476H388.331L387.618 389.297H491.375L492.09 371.476Z" fill="#46760A"/>
<path d="M573.632 508H382.872L381.279 547.831H572.039L573.632 508Z" fill="white"/>
<path opacity="0.47" d="M538.65 601.588H410.371L408.464 649.326H536.741L538.65 601.588Z" fill="#46760A"/>
<path d="M530.07 656.72H401.793C401.732 656.72 401.674 656.69 401.63 656.641C401.588 656.593 401.566 656.525 401.57 656.457L403.479 608.72C403.482 608.584 403.583 608.478 403.702 608.478H531.979C532.04 608.478 532.098 608.508 532.142 608.556C532.184 608.605 532.206 608.673 532.202 608.741L530.293 656.478C530.29 656.614 530.189 656.72 530.07 656.72ZM402.028 656.216H529.854L531.74 608.982H403.914L402.028 656.216Z" fill="white"/>
<path d="M469.67 478.952H384.033L383.321 496.773H468.956L469.67 478.952Z" fill="#46760A"/>
<path d="M536.203 271.907C535.725 283.833 531.86 294.847 525.663 303.793C516.304 317.353 501.647 326.168 485.512 326.168C469.377 326.168 455.443 317.353 447.17 303.793C441.688 294.847 438.703 283.835 439.181 271.907C440.38 241.937 463.07 217.648 489.851 217.648C516.651 217.646 537.4 241.937 536.203 271.907Z" fill="white"/>
<path d="M540.766 229.005C540.639 232.173 539.612 235.1 537.964 237.477C535.477 241.079 531.583 243.422 527.295 243.422C523.007 243.422 519.306 241.079 517.108 237.477C515.651 235.1 514.858 232.173 514.984 229.005C515.303 221.041 521.333 214.587 528.449 214.587C535.57 214.587 541.084 221.041 540.766 229.005Z" fill="#46760A"/>
<path d="M407.712 420.442C407.572 423.966 404.901 426.824 401.75 426.824C398.598 426.824 396.157 423.966 396.297 420.442C396.437 416.918 399.107 414.061 402.259 414.061C405.413 414.058 407.854 416.918 407.712 420.442Z" fill="#263238"/>
<path d="M433.256 420.442C433.116 423.966 430.446 426.824 427.294 426.824C424.142 426.824 421.701 423.966 421.841 420.442C421.981 416.918 424.652 414.061 427.803 414.061C430.955 414.061 433.398 416.918 433.256 420.442Z" fill="#263238"/>
<path d="M458.802 420.442C458.662 423.966 455.992 426.824 452.84 426.824C449.689 426.824 447.247 423.966 447.387 420.442C447.527 416.918 450.198 414.061 453.35 414.061C456.501 414.058 458.943 416.918 458.802 420.442Z" fill="#263238"/>
<path d="M403.416 527.916C403.276 531.44 400.606 534.297 397.454 534.297C394.302 534.297 391.861 531.44 392.001 527.916C392.141 524.392 394.812 521.532 397.963 521.532C401.115 521.534 403.556 524.392 403.416 527.916Z" fill="#263238"/>
<path d="M428.961 527.916C428.821 531.44 426.15 534.297 422.998 534.297C419.847 534.297 417.405 531.44 417.546 527.916C417.686 524.392 420.356 521.532 423.508 521.532C426.661 521.534 429.101 524.392 428.961 527.916Z" fill="#263238"/>
<path d="M454.505 527.916C454.365 531.44 451.694 534.297 448.543 534.297C445.391 534.297 442.95 531.44 443.09 527.916C443.23 524.392 445.901 521.532 449.052 521.532C452.204 521.532 454.647 524.392 454.505 527.916Z" fill="#263238"/>
<path d="M480.051 527.916C479.911 531.44 477.241 534.297 474.089 534.297C470.937 534.297 468.496 531.44 468.636 527.916C468.776 524.392 471.447 521.532 474.598 521.532C477.75 521.534 480.191 524.392 480.051 527.916Z" fill="#263238"/>
<path d="M505.596 527.916C505.456 531.44 502.785 534.297 499.633 534.297C496.482 534.297 494.04 531.44 494.181 527.916C494.321 524.392 496.991 521.532 500.143 521.532C503.294 521.534 505.736 524.392 505.596 527.916Z" fill="#263238"/>
<path d="M508.039 253.77C507.554 265.889 498.376 275.715 487.537 275.715C476.699 275.715 468.305 265.889 468.79 253.77C469.275 241.649 478.453 231.826 489.292 231.826C500.13 231.826 508.524 241.651 508.039 253.77Z" fill="#46760A"/>
<path d="M525.663 303.791C516.304 317.35 501.647 326.166 485.512 326.166C469.377 326.166 455.443 317.35 447.17 303.791C456.376 293.54 470.949 286.881 487.084 286.881C503.236 286.881 517.276 293.54 525.663 303.791Z" fill="#46760A"/>
<path opacity="0.1" d="M508.039 253.77C507.554 265.889 498.376 275.715 487.537 275.715C476.699 275.715 468.305 265.889 468.79 253.77C469.275 241.649 478.453 231.826 489.292 231.826C500.13 231.826 508.524 241.651 508.039 253.77Z" fill="white"/>
<path opacity="0.1" d="M525.663 303.791C516.304 317.35 501.647 326.166 485.512 326.166C469.377 326.166 455.443 317.35 447.17 303.791C456.376 293.54 470.949 286.881 487.084 286.881C503.236 286.881 517.276 293.54 525.663 303.791Z" fill="white"/>
<path d="M246.991 449.954C245.197 454.353 243.309 459.193 241.652 463.914C239.981 468.68 238.314 473.449 236.862 478.287C234.04 487.962 231.394 497.726 230.091 507.517L229.659 510.635C229.625 511.01 229.649 511.544 229.797 512.213C230.074 513.558 230.824 515.358 231.878 517.125C234.011 520.698 237.034 524.315 240.294 527.674C243.546 531.086 247.078 534.35 250.748 537.449C254.383 540.575 258.216 543.636 261.967 546.503L258.436 553.935C249.424 549.53 241.032 544.262 232.903 537.652C228.907 534.246 224.96 530.58 221.463 525.624C219.74 523.125 218.045 520.302 216.935 516.574C216.397 514.714 216.022 512.611 216.02 510.336C216.033 509.813 216.058 509.078 216.09 508.727L216.183 507.674L216.372 505.569C217.403 494.341 219.626 483.55 222.556 473.083C224.034 467.856 225.609 462.681 227.409 457.604C229.246 452.494 231.058 447.588 233.356 442.444L246.991 449.954Z" fill="#E58A7B"/>
<path d="M259.315 545.241L272.698 537.648L269.242 554.096C269.242 554.096 260.052 556.966 255.777 551.98L259.315 545.241Z" fill="#E58A7B"/>
<path d="M284.954 540.348L281.393 553.946L269.24 554.098L272.698 537.648L284.954 540.348Z" fill="#E58A7B"/>
<path d="M303.858 370.652C303.858 370.652 305.019 375.426 306.86 379.024C305.279 380.676 303.858 380.102 303.858 380.102V370.652Z" fill="#DF5753"/>
<path d="M303.462 370.777C304.246 370.777 304.881 369.69 304.881 368.35C304.881 367.009 304.246 365.922 303.462 365.922C302.679 365.922 302.044 367.009 302.044 368.35C302.044 369.69 302.679 370.777 303.462 370.777Z" fill="#263238"/>
<path d="M303.115 365.997L305.994 365.069C305.994 365.069 304.517 367.585 303.115 365.997Z" fill="#263238"/>
<path d="M266.859 386.188C268.588 396.047 270.313 414.113 264.143 420.692C264.143 420.692 266.554 430.693 282.937 430.693C300.953 430.693 291.547 420.692 291.547 420.692C281.715 418.066 281.969 409.909 283.681 402.248L266.859 386.188Z" fill="#E58A7B"/>
<path d="M262.078 363.75C262.982 380.211 263.05 387.198 270.486 395.647C281.668 408.355 299.549 403.513 303.063 387.084C306.224 372.294 304.214 347.86 289.806 341.309C275.609 334.856 261.173 347.289 262.078 363.75Z" fill="#E58A7B"/>
<path d="M263.529 345.124C256.148 348.133 246.301 345.895 250.165 371.372C254.256 398.349 247.958 407.223 247.958 407.223C247.958 407.223 275.975 413.897 304.574 406.825C304.574 406.825 295.843 389.75 298.293 377.29C301.419 361.398 298.941 355.525 298.941 355.525C298.941 355.525 273.908 340.892 263.529 345.124Z" fill="#263238"/>
<path d="M294.782 372.327C294.752 375.589 295.774 378.874 297.1 381.155C299.095 384.588 301.462 383.191 302.055 379.626C302.589 376.419 302.193 370.768 299.638 368.576C297.123 366.42 294.818 368.6 294.782 372.327Z" fill="#E58A7B"/>
<path d="M257.118 348.006C254.987 341.345 265.109 331.1 286.507 335.362C307.906 339.623 308.845 359.524 308.845 359.524L304.515 353.778L304.71 359.829L282.719 364.554L257.118 348.006Z" fill="#263238"/>
<path d="M258.932 421.812C258.637 419.777 259.86 417.86 261.679 417.526C268.342 416.295 283.486 413.804 291.11 414.984C296.773 415.861 298.271 419.559 298.509 422.583C298.687 424.826 297.028 426.718 295.017 426.616L262.082 424.951C260.501 424.871 259.184 423.562 258.932 421.812Z" fill="#46760A"/>
<path opacity="0.6" d="M258.932 421.812C258.637 419.777 259.86 417.86 261.679 417.526C268.342 416.295 283.486 413.804 291.11 414.984C296.773 415.861 298.271 419.559 298.509 422.583C298.687 424.826 297.028 426.718 295.017 426.616L262.082 424.951C260.501 424.871 259.184 423.562 258.932 421.812Z" fill="black"/>
<path d="M277.963 791.84L290.17 801.316L310.61 770.338L298.403 760.862L277.963 791.84Z" fill="#E58A7B"/>
<path d="M249.468 791.212L262.381 799.437L280.471 766.673L267.56 758.451L249.468 791.212Z" fill="#E58A7B"/>
<path d="M310.601 770.344L300.068 786.314L287.857 776.834L298.39 760.864L310.601 770.344Z" fill="#CF6F64"/>
<path d="M267.552 758.458L280.469 766.684L271.137 783.569L258.22 775.343L267.552 758.458Z" fill="#CF6F64"/>
<path d="M288.263 525.238C288.263 525.238 335.954 592.453 327.007 656.728C319.779 708.644 277.927 778.943 277.927 778.943L258.249 768.006C258.249 768.006 279.63 721.287 293.67 671.762C299.559 650.992 297.049 628.112 286.041 610.134C261.883 570.676 223.179 594.154 249.214 525.24L288.263 525.238Z" fill="#46760A"/>
<path opacity="0.6" d="M288.263 525.238C288.263 525.238 335.954 592.453 327.007 656.728C319.779 708.644 277.927 778.943 277.927 778.943L258.249 768.006C258.249 768.006 279.63 721.287 293.67 671.762C299.559 650.992 297.049 628.112 286.041 610.134C261.883 570.676 223.179 594.154 249.214 525.24L288.263 525.238Z" fill="black"/>
<path opacity="0.4" d="M311.656 568.429L304.728 560.724C304.728 561.334 318.158 654.03 321.933 680.081C324.209 672.094 325.961 664.215 327.012 656.728C331.391 625.257 322.185 593.068 311.656 568.429Z" fill="black"/>
<path d="M309.563 525.238C309.563 525.238 366.987 609.704 368.603 660.356C369.957 702.797 306.053 784.778 306.053 784.778L287.502 771.356C287.502 771.356 324.868 713.075 334.276 665.433C330.688 618.276 253.701 525.236 253.701 525.236H309.563V525.238Z" fill="#46760A"/>
<path opacity="0.6" d="M309.563 525.238C309.563 525.238 366.987 609.704 368.603 660.356C369.957 702.797 306.053 784.778 306.053 784.778L287.502 771.356C287.502 771.356 324.868 713.075 334.276 665.433C330.688 618.276 253.701 525.236 253.701 525.236H309.563V525.238Z" fill="black"/>
<path d="M238.517 424.468C232.367 426.091 226.49 451.055 226.49 451.055L250.474 468.959C250.474 468.959 258.466 449.228 255.677 440.584C252.769 431.583 246.282 422.42 238.517 424.468Z" fill="#46760A"/>
<path opacity="0.2" d="M243.21 440.531L241.534 462.281L250.463 468.963C250.463 468.963 254.646 458.625 255.893 449.615L243.21 440.531Z" fill="black"/>
<path d="M316.663 424.949C316.663 424.949 323.741 427.737 309.563 525.239C285.615 525.239 260.866 525.239 249.214 525.239C250.227 497.772 250.256 480.835 238.517 424.468C238.517 424.468 251.161 421.393 264.143 420.692C274.298 420.146 282.619 419.781 291.547 420.694C303.316 421.895 316.663 424.949 316.663 424.949Z" fill="#46760A"/>
<path d="M322.792 440.431C324.16 444.657 325.607 449.228 327.113 453.616C328.558 458.07 330.058 462.516 331.605 466.942L336.249 480.246L337.424 483.571L338.013 485.234L338.308 486.064C338.359 486.212 338.35 486.199 338.331 486.185C338.249 486.144 338.179 485.725 337.005 484.863C336.429 484.463 335.463 484.077 334.531 484.056C333.594 484.018 332.851 484.274 332.425 484.482C331.571 484.937 331.558 485.134 331.577 485.102C331.632 485.07 331.808 484.882 332.001 484.621C332.829 483.509 333.829 481.593 334.706 479.686C335.602 477.744 336.448 475.669 337.291 473.563C338.967 469.342 340.492 464.937 342.043 460.525C343.577 456.1 345.022 451.61 346.454 447.107L350.765 433.59L358.062 435.647C356.619 445.316 354.752 454.785 352.526 464.289C351.439 469.05 350.182 473.771 348.744 478.536C348.028 480.923 347.227 483.304 346.306 485.731C345.35 488.178 344.401 490.59 342.708 493.392C342.263 494.102 341.759 494.851 341.056 495.677C340.314 496.491 339.456 497.473 337.605 498.403C336.685 498.846 335.405 499.238 333.927 499.172C332.456 499.125 330.963 498.541 329.931 497.825C327.832 496.325 327.107 494.898 326.486 493.826C326.198 493.288 325.952 492.733 325.781 492.333L325.421 491.511L324.702 489.868L323.27 486.578C321.398 482.171 319.565 477.74 317.828 473.26C316.108 468.77 314.432 464.255 312.807 459.705C311.252 455.086 309.714 450.611 308.345 445.697L322.792 440.431Z" fill="#E58A7B"/>
<path d="M316.663 424.949C323.917 426.881 332.067 450.848 332.067 450.848L310.51 471.39C310.51 471.39 296.538 445.256 299.365 436.628C302.309 427.641 307.188 422.424 316.663 424.949Z" fill="#46760A"/>
<path d="M354.132 426.118L361.699 419.042L366.962 428.211L363.085 435.867C363.085 435.867 356.911 442.187 351.445 438.972C349.68 434.497 350.776 429.257 354.132 426.118Z" fill="#E58A7B"/>
<path d="M375.432 419.063L374.866 421.37L362.879 423.621L361.697 419.042L375.432 419.063Z" fill="#E58A7B"/>
<path d="M307.589 785.89L285.962 770.246L289.835 762.715L314.141 779.424L307.589 785.89Z" fill="#46760A"/>
<path d="M270.81 798.329C269.09 798.329 266.826 797.109 265.455 796.258C265.332 796.181 265.262 796.031 265.277 795.872C265.29 795.718 265.387 795.586 265.52 795.535C266.103 795.33 271.234 793.572 272.687 794.936C272.916 795.152 273.171 795.55 273.09 796.213C272.984 797.092 272.624 797.713 272.022 798.047C271.673 798.242 271.26 798.329 270.81 798.329ZM266.55 796.018C268.902 797.357 270.796 797.85 271.707 797.344C272.096 797.128 272.319 796.724 272.395 796.107C272.435 795.775 272.33 795.629 272.234 795.54C271.471 794.822 268.626 795.381 266.55 796.018Z" fill="#263238"/>
<path d="M265.628 796.304C265.533 796.304 265.442 796.262 265.376 796.186C265.289 796.084 265.256 795.94 265.29 795.804C265.34 795.61 266.522 791.009 268.467 789.961C268.986 789.683 269.512 789.669 270.027 789.908C270.846 790.293 270.927 790.963 270.899 791.325C270.766 793.229 267.294 795.859 265.711 796.292C265.684 796.3 265.656 796.304 265.628 796.304ZM269.298 790.528C269.124 790.528 268.948 790.577 268.77 790.672C267.611 791.297 266.637 793.78 266.171 795.29C267.838 794.506 270.113 792.426 270.194 791.266C270.207 791.077 270.169 790.831 269.751 790.636C269.601 790.564 269.45 790.528 269.298 790.528Z" fill="#263238"/>
<path d="M297.865 807.481C295.733 807.481 292.759 804.416 291.132 802.533C291.028 802.413 291.003 802.233 291.07 802.082C291.138 801.934 291.308 801.849 291.43 801.868C292.18 801.976 298.767 802.972 299.697 805.052C299.875 805.454 299.86 805.882 299.653 806.291C299.305 806.977 298.799 807.371 298.153 807.462C298.061 807.475 297.964 807.481 297.865 807.481ZM292.379 802.817C294.773 805.418 296.864 806.858 298.066 806.678C298.487 806.619 298.805 806.367 299.042 805.901C299.133 805.723 299.14 805.566 299.066 805.403C298.561 804.272 295.043 803.296 292.379 802.817Z" fill="#263238"/>
<path d="M292.587 802.752C292.1 802.752 291.665 802.718 291.322 802.646C291.201 802.62 291.098 802.525 291.055 802.396C291.013 802.264 291.034 802.116 291.113 802.008C291.221 801.862 293.784 798.408 296.204 798.17C296.962 798.105 297.604 798.329 298.153 798.854C298.898 799.568 298.847 800.204 298.672 800.61C298.072 802.021 294.799 802.752 292.587 802.752ZM292.098 801.957C294.214 802.089 297.597 801.303 298.038 800.271C298.076 800.184 298.187 799.922 297.697 799.454C297.288 799.062 296.814 798.899 296.267 798.954C294.678 799.111 292.903 800.996 292.098 801.957Z" fill="#263238"/>
<path d="M266.147 794.076L250.082 788.997C249.496 788.813 248.907 789.116 248.665 789.728L243.242 803.362C242.68 804.777 243.46 806.53 244.816 806.931C250.443 808.593 253.235 809.078 260.3 811.313C264.646 812.687 270.868 815.199 276.87 817.095C282.74 818.95 284.869 812.456 282.522 811.065C271.997 804.827 271.167 800.551 268.289 795.813C267.77 794.96 267.003 794.347 266.147 794.076Z" fill="#46760A"/>
<path d="M291.57 800.06L277.857 789.413C277.357 789.025 276.713 789.099 276.304 789.588L267.209 800.509C266.266 801.642 266.495 803.584 267.66 804.455C272.497 808.074 274.997 809.548 281.028 814.231C284.738 817.112 292.144 823.5 297.267 827.477C302.278 831.368 306.18 826.001 304.366 823.832C296.229 814.106 294.433 808.011 293.091 802.481C292.846 801.485 292.299 800.625 291.57 800.06Z" fill="#46760A"/>
<path d="M280.454 780.347L255.724 766.603L258.285 759.121L284.679 773.589L280.454 780.347Z" fill="#46760A"/>
<path d="M248.311 521.278L246.218 527.318C246.006 527.786 246.502 528.265 247.201 528.265H309.86C310.404 528.265 310.854 527.966 310.889 527.585L311.432 521.545C311.47 521.125 310.998 520.771 310.404 520.771H249.292C248.845 520.771 248.447 520.977 248.311 521.278Z" fill="#46760A"/>
<path opacity="0.4" d="M248.311 521.278L246.218 527.318C246.006 527.786 246.502 528.265 247.201 528.265H309.86C310.404 528.265 310.854 527.966 310.889 527.585L311.432 521.545C311.47 521.125 310.998 520.771 310.404 520.771H249.292C248.845 520.771 248.447 520.977 248.311 521.278Z" fill="white"/>
<path d="M258.165 528.919H256.529C256.203 528.919 255.955 528.731 255.978 528.502L256.745 520.655C256.768 520.426 257.052 520.238 257.379 520.238H259.016C259.342 520.238 259.59 520.426 259.567 520.655L258.8 528.502C258.777 528.733 258.491 528.919 258.165 528.919Z" fill="#46760A"/>
<path d="M296.816 528.919H295.18C294.854 528.919 294.606 528.731 294.629 528.502L295.396 520.655C295.418 520.426 295.703 520.238 296.03 520.238H297.667C297.992 520.238 298.24 520.426 298.218 520.655L297.451 528.502C297.428 528.733 297.142 528.919 296.816 528.919Z" fill="#46760A"/>
<path d="M256.724 887.626C284.748 887.626 307.466 885.783 307.466 883.509C307.466 881.235 284.748 879.392 256.724 879.392C228.7 879.392 205.982 881.235 205.982 883.509C205.982 885.783 228.7 887.626 256.724 887.626Z" fill="#F5F5F5"/>
<path d="M287.647 877.699C278.67 874.785 268.789 871.03 262.675 867.037C262.505 866.927 262.325 866.847 262.152 866.745V821.358H280.21C283.196 821.358 285.617 818.652 285.617 815.312C285.617 811.974 283.196 809.267 280.21 809.267H262.152V602.078H251.339V809.267H233.282C230.297 809.267 227.877 811.974 227.877 815.312C227.877 818.652 230.297 821.358 233.282 821.358H251.339V866.743C251.167 866.845 250.987 866.923 250.817 867.035C244.703 871.028 234.822 874.783 225.844 877.697C222.899 878.652 223.52 883.505 226.587 883.505H256.745H286.903C289.971 883.507 290.593 878.655 287.647 877.699Z" fill="#E0E0E0"/>
<path d="M290.426 625.333H223.066C217.67 625.333 213.255 620.396 213.255 614.362V591.968C213.255 585.934 217.67 580.997 223.066 580.997H290.426C295.822 580.997 300.237 585.934 300.237 591.968V614.362C300.237 620.396 295.822 625.333 290.426 625.333Z" fill="#46760A"/>
<path d="M222.447 625.333V629.188C222.447 632.365 225.539 634.966 229.318 634.966H284.174C287.952 634.966 291.045 632.367 291.045 629.188V625.333H222.447Z" fill="#46760A"/>
<path opacity="0.3" d="M222.447 625.333V629.188C222.447 632.365 225.539 634.966 229.318 634.966H284.174C287.952 634.966 291.045 632.367 291.045 629.188V625.333H222.447Z" fill="white"/>
</svg>
