<svg xmlns="http://www.w3.org/2000/svg" xmlns:xlink="http://www.w3.org/1999/xlink" width="1920" zoomAndPan="magnify" viewBox="0 0 1440 809.999993" height="1080" preserveAspectRatio="xMidYMid meet" version="1.0"><defs><g/><clipPath id="579259469c"><path d="M 432 132.484375 L 608 132.484375 L 608 354 L 432 354 Z M 432 132.484375 " clip-rule="nonzero"/></clipPath><clipPath id="54e667c71a"><path d="M 832 132.484375 L 1008 132.484375 L 1008 354 L 832 354 Z M 832 132.484375 " clip-rule="nonzero"/></clipPath><clipPath id="a72fc6ceaf"><path d="M 617 132.484375 L 826 132.484375 L 826 354 L 617 354 Z M 617 132.484375 " clip-rule="nonzero"/></clipPath></defs><rect x="-144" width="1728" fill="#ffffff" y="-80.999999" height="971.999992" fill-opacity="1"/><rect x="-144" width="1728" fill="#ffffff" y="-80.999999" height="971.999992" fill-opacity="1"/><g clip-path="url(#579259469c)"><path fill="#6b5ef8" d="M 607.765625 258.234375 L 582.324219 258.234375 L 582.324219 181.183594 L 543.503906 181.183594 L 543.503906 258.234375 L 480.023438 258.234375 L 556.394531 132.496094 L 508.355469 132.496094 L 432 258.234375 L 432 297.074219 L 543.503906 297.074219 L 543.503906 353.042969 L 582.324219 353.042969 L 582.324219 297.074219 L 607.765625 297.074219 Z M 607.765625 258.234375 " fill-opacity="1" fill-rule="nonzero"/></g><g clip-path="url(#54e667c71a)"><path fill="#6b5ef8" d="M 1008 258.234375 L 982.558594 258.234375 L 982.558594 181.183594 L 943.75 181.183594 L 943.75 258.234375 L 880.269531 258.234375 L 956.628906 132.496094 L 908.589844 132.496094 L 832.234375 258.234375 L 832.234375 297.074219 L 943.75 297.074219 L 943.75 353.042969 L 982.558594 353.042969 L 982.558594 297.074219 L 1008 297.074219 Z M 1008 258.234375 " fill-opacity="1" fill-rule="nonzero"/></g><g clip-path="url(#a72fc6ceaf)"><path fill="#6b5ef8" d="M 721.285156 353.042969 C 663.898438 353.042969 617.230469 303.621094 617.230469 242.859375 C 617.230469 182.097656 663.898438 132.722656 721.285156 132.722656 C 778.667969 132.722656 825.335938 182.144531 825.335938 242.894531 C 825.335938 303.644531 778.65625 353.042969 721.285156 353.042969 Z M 721.285156 167.984375 C 683.496094 167.984375 652.753906 201.613281 652.753906 242.859375 C 652.753906 284.105469 683.496094 317.746094 721.285156 317.746094 C 759.070312 317.746094 789.804688 284.117188 789.804688 242.859375 C 789.804688 201.601562 759.058594 167.984375 721.285156 167.984375 Z M 721.285156 167.984375 " fill-opacity="1" fill-rule="nonzero"/></g><path fill="#fb865d" d="M 703.847656 238.570312 C 704.742188 238.28125 705.652344 238.070312 706.585938 237.945312 C 707.027344 238.019531 706.1875 238.957031 705.695312 239.148438 C 705.695312 239.148438 706.355469 238.738281 706.210938 239.148438 C 706.066406 239.554688 705.277344 240.074219 705.277344 240.074219 L 704.773438 240.699219 C 704.773438 240.699219 705.097656 240.230469 705.347656 240.410156 C 705.601562 240.589844 704.6875 242.03125 704.6875 242.03125 L 704.242188 244.035156 L 702.347656 241.5625 Z M 703.847656 238.570312 " fill-opacity="1" fill-rule="nonzero"/><path fill="#0e133f" d="M 753.070312 282.300781 C 751.359375 282.105469 749.675781 281.769531 748.019531 281.292969 C 748.019531 281.714844 748.019531 282.167969 748.019531 282.664062 C 749.621094 283.101562 751.242188 283.414062 752.890625 283.597656 C 757.691406 284.164062 767.589844 287.371094 771.371094 293.855469 C 771.671875 293.496094 771.984375 293.148438 772.273438 292.789062 C 768.070312 286.144531 757.957031 282.855469 753.070312 282.300781 Z M 753.070312 282.300781 " fill-opacity="1" fill-rule="nonzero"/><path fill="#0e133f" d="M 702.589844 243.75 C 702.515625 244.371094 703.222656 244.398438 703.222656 244.398438 C 703.222656 244.398438 703.402344 244.167969 703.5 244.046875 C 703.34375 243.5625 703.132812 243.097656 702.875 242.65625 C 702.761719 243.015625 702.664062 243.378906 702.589844 243.75 Z M 702.589844 243.75 " fill-opacity="1" fill-rule="nonzero"/><path fill="#0e133f" d="M 703.5 244.046875 C 703.8125 243.652344 704.136719 243.253906 704.460938 242.847656 C 704.164062 242.210938 703.816406 241.601562 703.417969 241.023438 C 703.199219 241.574219 703.019531 242.140625 702.875 242.617188 C 703.136719 243.074219 703.34375 243.546875 703.5 244.046875 Z M 703.5 244.046875 " fill-opacity="1" fill-rule="nonzero"/><path fill="#0e133f" d="M 700.296875 237.417969 L 699.394531 238.378906 C 699.394531 238.378906 700.308594 239.257812 701.28125 240.421875 C 701.507812 239.988281 701.734375 239.570312 701.964844 239.21875 C 701.101562 238.1875 700.367188 237.492188 700.296875 237.417969 Z M 700.296875 237.417969 " fill-opacity="1" fill-rule="nonzero"/><path fill="#0e133f" d="M 709.546875 260.585938 C 706.164062 254.691406 705.335938 246.871094 705.179688 244.972656 C 705.0625 245.199219 704.921875 245.410156 704.761719 245.609375 C 704.40625 246.03125 704.175781 246.511719 704.0625 247.050781 C 704.625 252.050781 706.070312 256.78125 708.40625 261.234375 C 711.949219 267.421875 720.625 274.757812 722.914062 276.632812 C 722.675781 275.851562 722.449219 275.082031 722.21875 274.316406 C 718.882812 271.457031 712.390625 265.535156 709.546875 260.585938 Z M 709.546875 260.585938 " fill-opacity="1" fill-rule="nonzero"/><path fill="#0e133f" d="M 775.285156 337.011719 C 771.011719 349.691406 748.128906 363.433594 718.320312 358.039062 C 697.835938 354.367188 694.511719 355.867188 691.585938 357.1875 C 690.632812 357.679688 689.621094 357.996094 688.558594 358.136719 C 686.816406 358.546875 685.140625 359.140625 683.53125 359.925781 C 674.519531 363.746094 655.753906 371.695312 620.617188 363.386719 C 591.816406 356.5625 571.96875 328.0625 561.695312 278.652344 C 558.242188 262.027344 549.828125 255.085938 535.199219 256.816406 C 534.015625 256.988281 532.960938 257.460938 532.042969 258.234375 L 534.914062 258.234375 C 535.070312 258.234375 535.199219 258.148438 535.355469 258.125 C 549.359375 256.480469 557.078125 262.929688 560.414062 278.925781 C 562.105469 287.105469 566.089844 306.25 575.078125 324.21875 C 586.25 346.605469 601.476562 360.25 620.304688 364.671875 C 629.898438 367.035156 639.632812 368.261719 649.511719 368.359375 C 655.460938 368.429688 661.347656 367.859375 667.171875 366.644531 C 673 365.425781 678.625 363.597656 684.046875 361.152344 C 685.550781 360.414062 687.113281 359.851562 688.738281 359.457031 C 689.925781 359.289062 691.054688 358.9375 692.125 358.402344 C 694.882812 357.199219 698.003906 355.746094 718.09375 359.347656 C 749.566406 364.996094 773.554688 349.65625 776.890625 336.179688 C 776.910156 336.09375 776.910156 336.003906 776.890625 335.917969 C 776.398438 336.265625 775.835938 336.648438 775.285156 337.011719 Z M 775.285156 337.011719 " fill-opacity="1" fill-rule="nonzero"/><path fill="#0e133f" d="M 519.097656 297.074219 C 518.183594 298.257812 517.132812 299.3125 515.957031 300.234375 C 514.777344 301.15625 513.5 301.917969 512.132812 302.515625 C 510.761719 303.117188 509.339844 303.542969 507.863281 303.785156 C 506.386719 304.027344 504.902344 304.085938 503.414062 303.957031 C 495.230469 303.535156 488.390625 300.355469 484.632812 295.226562 C 481.320312 290.722656 480.492188 284.835938 482.234375 278.207031 C 486.035156 263.457031 486.589844 255.613281 483.984375 251.78125 L 483.203125 253.054688 C 485.160156 256.753906 484.40625 264.382812 480.949219 277.894531 C 479.113281 284.894531 480 291.164062 483.601562 296.066406 C 487.597656 301.519531 494.808594 304.894531 503.375 305.339844 L 504.578125 305.339844 C 506.152344 305.363281 507.710938 305.195312 509.246094 304.839844 C 510.785156 304.480469 512.253906 303.945312 513.660156 303.226562 C 515.0625 302.507812 516.359375 301.628906 517.550781 300.59375 C 518.742188 299.558594 519.789062 298.390625 520.691406 297.097656 Z M 519.097656 297.074219 " fill-opacity="1" fill-rule="nonzero"/><path fill="#0e133f" d="M 518.785156 201.589844 C 518.558594 201.0625 513.085938 188.523438 500.207031 184.621094 C 487.332031 180.714844 471.15625 186.253906 465.074219 193.722656 C 461.628906 197.953125 461.222656 204.761719 461.472656 209.6875 L 462.746094 207.585938 C 462.746094 203.164062 463.367188 197.890625 466.082031 194.566406 C 471.78125 187.550781 487.753906 182.230469 499.8125 185.882812 C 512.089844 189.605469 517.511719 201.988281 517.5625 202.109375 C 517.585938 202.199219 517.628906 202.285156 517.691406 202.359375 C 517.75 202.429688 517.824219 202.488281 517.910156 202.53125 C 517.996094 202.574219 518.085938 202.59375 518.183594 202.597656 C 518.277344 202.597656 518.371094 202.582031 518.460938 202.542969 C 518.546875 202.503906 518.625 202.453125 518.6875 202.378906 C 518.75 202.308594 518.796875 202.226562 518.828125 202.136719 C 518.855469 202.046875 518.863281 201.953125 518.851562 201.855469 C 518.839844 201.761719 518.8125 201.671875 518.761719 201.589844 Z M 518.785156 201.589844 " fill-opacity="1" fill-rule="nonzero"/><path fill="#fb865d" d="M 710.746094 280.910156 C 710.746094 280.910156 711.863281 277.546875 711.636719 276.730469 C 711.40625 275.914062 701.507812 253.019531 701.578125 252.613281 C 702.410156 251.46875 703.074219 250.234375 703.570312 248.914062 C 704.089844 246.953125 704.207031 246.175781 704.773438 245.574219 C 705.335938 244.972656 706.320312 242.5 706.066406 241.839844 C 705.816406 241.179688 704.28125 243.039062 703.234375 244.398438 C 703.234375 244.398438 702.527344 244.398438 702.601562 243.75 C 702.671875 243.097656 703.90625 239.160156 704.628906 238.945312 C 705.347656 238.726562 707.386719 237.609375 707.207031 236.601562 C 707.027344 235.59375 703.835938 237.695312 703.019531 237.960938 C 702.203125 238.222656 700.308594 242.5 699.816406 243.410156 C 699.324219 244.324219 697.25 249.933594 696.898438 251.097656 C 696.550781 252.261719 697.738281 254.929688 698.101562 256.058594 C 698.460938 257.1875 702.984375 274.902344 703.871094 275.792969 C 704.003906 277 703.867188 278.179688 703.453125 279.324219 C 703.453125 279.324219 707.914062 281.535156 710.746094 280.910156 Z M 710.746094 280.910156 " fill-opacity="1" fill-rule="nonzero"/><path fill="#0e133f" d="M 679.453125 269.773438 C 679.792969 269.25 680.277344 268.984375 680.902344 268.980469 C 680.902344 268.980469 679.894531 267.78125 676.753906 268.25 C 676.753906 268.25 677.472656 267.046875 680.039062 267.046875 C 679.484375 266.476562 678.871094 265.976562 678.195312 265.550781 C 677.519531 265.125 676.804688 264.785156 676.050781 264.527344 C 675.296875 264.273438 674.519531 264.109375 673.726562 264.039062 C 672.933594 263.964844 672.140625 263.988281 671.351562 264.105469 C 671.300781 263.734375 671.367188 263.382812 671.546875 263.054688 C 671.730469 262.722656 671.992188 262.480469 672.335938 262.328125 C 672.335938 262.328125 667.800781 261.523438 662.964844 268.332031 C 662.566406 267.957031 662.316406 267.5 662.21875 266.960938 C 662.117188 266.425781 662.1875 265.910156 662.425781 265.414062 C 662.425781 265.414062 659.160156 269.019531 659.507812 272.550781 C 659.855469 276.082031 660.300781 276.5 660.300781 276.5 C 660.300781 276.5 657.839844 275.886719 657.707031 274.601562 C 657.707031 274.601562 656.820312 278.207031 659.21875 280.453125 C 658.667969 281.589844 658.558594 282.765625 658.894531 283.984375 C 658.894531 283.984375 659.269531 282.554688 659.902344 282.339844 C 659.902344 282.339844 662.304688 289.339844 667.402344 290.433594 C 672.503906 291.527344 675.253906 290.132812 675.253906 290.132812 C 675.253906 290.132812 679.234375 289.472656 679.933594 290.757812 L 680.902344 288.5 L 682.164062 287.984375 C 682.164062 287.984375 680.902344 277.835938 680.902344 277.761719 C 680.902344 277.691406 679.453125 269.773438 679.453125 269.773438 Z M 679.453125 269.773438 " fill-opacity="1" fill-rule="nonzero"/><path fill="#fb865d" d="M 679.453125 269.773438 C 680.523438 270.269531 681.648438 270.539062 682.824219 270.589844 C 684.21875 270.421875 685.617188 270.335938 687.023438 270.339844 C 687.3125 270.542969 687.023438 272.070312 687.515625 272.371094 C 688.007812 272.667969 690.816406 275.972656 690.574219 277.605469 C 690.335938 279.238281 686.820312 280.714844 687.265625 282.097656 C 687.707031 283.480469 690.863281 285.304688 690.863281 285.304688 C 691.230469 285.914062 691.398438 286.574219 691.367188 287.285156 C 691.261719 288.320312 685.535156 292.761719 685.535156 292.761719 L 685.441406 293.207031 L 680.363281 289.722656 C 680.574219 288.714844 680.597656 287.703125 680.4375 286.6875 C 680.4375 286.6875 681.253906 287.105469 681.371094 287.707031 C 681.371094 287.707031 681.648438 284.105469 679.476562 282.050781 C 679.476562 282.050781 676.703125 282.589844 675.179688 281.402344 C 673.65625 280.210938 674.269531 277.628906 675.574219 277.507812 L 677.28125 277.328125 C 677.28125 277.328125 674.148438 276.703125 672.960938 275.3125 C 674.957031 275.285156 676.929688 275.054688 678.875 274.617188 C 678.875 274.617188 675.277344 273.796875 674.195312 273.414062 C 674.195312 273.402344 678 272.34375 679.453125 269.773438 Z M 679.453125 269.773438 " fill-opacity="1" fill-rule="nonzero"/><path fill="#0e133f" d="M 729.058594 292.320312 C 729.058594 292.320312 729.949219 266.941406 730.535156 260.417969 C 731.125 253.898438 731.519531 240.074219 737.84375 237.597656 C 744.167969 235.125 770.953125 217.746094 770.953125 217.746094 L 777.3125 224.171875 C 777.3125 224.171875 761.328125 239.929688 757.03125 241.597656 C 752.734375 243.269531 748.152344 247.277344 747.5625 249.550781 C 746.976562 251.820312 748.054688 276.957031 748.007812 278.6875 C 747.960938 280.417969 748.5 303.378906 748.007812 305.601562 C 747.515625 307.824219 745.441406 314.539062 738.289062 315.535156 L 732.804688 315.773438 C 732.804688 315.773438 727.199219 298.695312 729.058594 292.320312 Z M 729.058594 292.320312 " fill-opacity="1" fill-rule="nonzero"/><path fill="#0e133f" d="M 738.636719 313.949219 L 742.234375 314.140625 C 742.234375 314.140625 748.5 312.773438 750.769531 309.902344 C 753.035156 307.03125 751.96875 298.347656 746.519531 290.867188 L 738.585938 257.234375 C 741.898438 257.859375 745.234375 258.082031 748.597656 257.898438 C 753.550781 257.535156 771.097656 252.863281 771.097656 252.863281 L 769.03125 243.460938 C 769.03125 243.460938 736.390625 245.238281 734.902344 245.238281 C 733.414062 245.238281 722.761719 244.277344 719.953125 247.230469 C 717.144531 250.1875 718.105469 259.757812 719.0625 263.601562 C 720.023438 267.445312 727.464844 291.609375 727.464844 291.609375 Z M 738.636719 313.949219 " fill-opacity="1" fill-rule="nonzero"/><path fill="#fb865d" d="M 674.785156 307.632812 C 674.785156 307.632812 668.710938 318.25 668.710938 320.84375 C 668.933594 323.539062 669.578125 326.128906 670.644531 328.613281 C 671.375 330.621094 682.644531 350.617188 683.292969 351.363281 C 683.402344 353.167969 683.660156 354.953125 684.058594 356.71875 C 684.710938 358.734375 685.535156 360.675781 686.53125 362.542969 C 687.078125 362.546875 687.621094 362.480469 688.152344 362.351562 C 688.152344 362.351562 688.152344 363.15625 688.570312 363.265625 C 689.246094 363.277344 689.914062 363.226562 690.574219 363.109375 C 690.574219 363.109375 690.574219 363.503906 691.390625 363.503906 C 692.207031 363.503906 693.214844 363.0625 693.3125 362.640625 C 693.847656 362.890625 694.382812 362.890625 694.921875 362.640625 C 695.53125 362.195312 695.113281 358.472656 695.113281 358.472656 C 695.113281 358.472656 695.605469 358.796875 695.675781 358.050781 C 695.75 357.308594 695.675781 355.578125 695.136719 355.109375 C 694.597656 354.640625 690.394531 350.003906 689.269531 349.476562 C 689.269531 349.476562 685.441406 342.269531 683.808594 338.320312 C 682.175781 334.367188 680.113281 325.925781 676.609375 323.511719 C 676.609375 323.511719 682.726562 316.84375 683.617188 315.558594 Z M 674.785156 307.632812 " fill-opacity="1" fill-rule="nonzero"/><path fill="#ffbb19" d="M 688.03125 289.28125 C 686.914062 289.449219 685.851562 289.796875 684.847656 290.316406 C 683.84375 290.835938 682.949219 291.503906 682.164062 292.320312 C 679.523438 295.058594 672.46875 308.964844 672.46875 308.964844 C 674.15625 309.746094 675.683594 310.765625 677.050781 312.027344 C 679.003906 314.0625 681.078125 315.96875 683.269531 317.746094 C 683.664062 317.816406 689.976562 307.476562 689.976562 307.476562 C 689.976562 307.476562 694.777344 314.140625 707.304688 316.425781 C 714.136719 317.664062 721.023438 318.257812 727.96875 318.203125 C 731.617188 317.8125 735.171875 317.011719 738.636719 315.800781 C 738.636719 315.800781 738.636719 315.140625 737.542969 314.933594 C 736.453125 314.730469 731.0625 307.234375 730.34375 301.796875 C 729.875 297.996094 729.625 294.179688 729.601562 290.347656 C 729.601562 290.347656 729.265625 289.738281 728.710938 290.046875 C 727.976562 290.515625 727.175781 290.804688 726.3125 290.914062 C 725.675781 290.914062 716.710938 286.347656 709.933594 285.234375 C 707.355469 284.742188 704.753906 284.503906 702.132812 284.511719 C 698.230469 284.597656 690.78125 284.957031 690.78125 284.957031 C 690.78125 284.957031 690.40625 284.882812 690.40625 285.484375 C 690.40625 286.085938 690.085938 288.75 688.03125 289.28125 Z M 688.03125 289.28125 " fill-opacity="1" fill-rule="nonzero"/><path fill="#ffbb19" d="M 694.691406 285.6875 C 694.691406 285.6875 700.945312 278.949219 702.203125 278.207031 C 703.726562 278.925781 705.328125 279.355469 707.003906 279.503906 C 709.523438 279.695312 712.367188 279.574219 712.703125 279.730469 C 713.039062 279.886719 710.304688 287.695312 710.304688 287.695312 C 710.304688 287.695312 696.324219 286.554688 694.691406 285.6875 Z M 694.691406 285.6875 " fill-opacity="1" fill-rule="nonzero"/><path fill="#fb865d" d="M 771.695312 243.351562 L 779.878906 243.351562 C 779.878906 243.351562 781.957031 244.648438 781.917969 246.511719 C 781.773438 247.886719 781.289062 249.132812 780.46875 250.246094 L 773.699219 250.796875 Z M 771.695312 243.351562 " fill-opacity="1" fill-rule="nonzero"/><path fill="#0e133f" d="M 788.867188 228.097656 C 787.476562 227.535156 785.566406 227.59375 785.0625 229.023438 C 783.226562 234.261719 778.882812 242.234375 778.824219 242.726562 C 778.765625 243.21875 778.917969 243.351562 778.917969 243.351562 L 779.398438 243.351562 C 779.398438 243.351562 781.210938 244.878906 781.210938 246.28125 C 781.042969 247.660156 780.6875 248.992188 780.144531 250.269531 L 779.542969 250.269531 C 779.542969 250.269531 778.957031 250.269531 779.652344 250.75 C 780.347656 251.230469 785.21875 251.195312 786.753906 251.121094 C 788.015625 248.300781 788.230469 241.320312 788.351562 239.90625 C 788.472656 238.488281 788.773438 230.824219 788.867188 228.097656 Z M 788.867188 228.097656 " fill-opacity="1" fill-rule="nonzero"/><path fill="#dfe3ff" d="M 790.414062 229.46875 C 790.117188 228.765625 789.601562 228.308594 788.867188 228.097656 C 788.773438 230.824219 788.472656 238.582031 788.351562 239.953125 C 788.230469 241.320312 788.015625 248.359375 786.753906 251.171875 L 787.164062 251.171875 C 787.726562 251.0625 789.5625 250.894531 789.636719 248.097656 C 789.707031 245.296875 790.800781 231.066406 790.414062 229.46875 Z M 790.414062 229.46875 " fill-opacity="1" fill-rule="nonzero"/><path fill="#dfe3ff" d="M 783.601562 238.800781 C 783.5 238.792969 783.417969 238.753906 783.347656 238.679688 C 783.082031 238.410156 782.769531 238.21875 782.40625 238.113281 C 782.042969 238.003906 781.675781 237.996094 781.308594 238.078125 C 781.21875 238.09375 781.136719 238.074219 781.0625 238.023438 C 780.988281 237.972656 780.941406 237.902344 780.921875 237.816406 C 780.910156 237.726562 780.929688 237.644531 780.980469 237.570312 C 781.03125 237.5 781.101562 237.453125 781.1875 237.429688 C 781.675781 237.324219 782.15625 237.347656 782.632812 237.492188 C 783.109375 237.640625 783.519531 237.898438 783.863281 238.257812 C 783.925781 238.324219 783.957031 238.398438 783.957031 238.488281 C 783.957031 238.578125 783.925781 238.652344 783.863281 238.714844 C 783.792969 238.792969 783.703125 238.820312 783.601562 238.800781 Z M 783.601562 238.800781 " fill-opacity="1" fill-rule="nonzero"/><path fill="#dfe3ff" d="M 784.414062 236.914062 C 784.3125 236.914062 784.230469 236.871094 784.164062 236.792969 C 783.898438 236.523438 783.582031 236.332031 783.214844 236.226562 C 782.851562 236.121094 782.484375 236.109375 782.113281 236.195312 C 782.023438 236.207031 781.941406 236.191406 781.867188 236.136719 C 781.792969 236.085938 781.746094 236.011719 781.730469 235.921875 C 781.71875 235.832031 781.738281 235.75 781.789062 235.679688 C 781.84375 235.605469 781.914062 235.558594 782.003906 235.546875 C 782.488281 235.4375 782.96875 235.460938 783.445312 235.609375 C 783.917969 235.757812 784.328125 236.011719 784.667969 236.375 C 784.730469 236.4375 784.761719 236.511719 784.761719 236.601562 C 784.761719 236.691406 784.730469 236.765625 784.667969 236.828125 C 784.597656 236.902344 784.515625 236.933594 784.414062 236.914062 Z M 784.414062 236.914062 " fill-opacity="1" fill-rule="nonzero"/><path fill="#fb865d" d="M 772.800781 216.195312 L 779.304688 211.234375 C 779.304688 211.234375 781.703125 211.007812 782.832031 212.507812 C 783.550781 213.6875 783.921875 214.96875 783.949219 216.351562 L 778.894531 220.902344 Z M 772.800781 216.195312 " fill-opacity="1" fill-rule="nonzero"/><path fill="#0e133f" d="M 777.214844 193.640625 C 775.765625 194.035156 774.289062 195.238281 774.753906 196.691406 C 776.449219 201.976562 777.816406 210.933594 778.066406 211.367188 C 778.320312 211.800781 778.523438 211.8125 778.523438 211.8125 L 778.90625 211.523438 C 778.90625 211.523438 781.308594 211.632812 782.125 212.726562 C 782.824219 213.921875 783.34375 215.195312 783.683594 216.542969 L 783.238281 216.953125 C 783.238281 216.953125 782.796875 217.324219 783.625 217.253906 C 784.453125 217.179688 788.316406 214.238281 789.492188 213.253906 C 788.785156 210.238281 784.691406 204.558594 783.972656 203.34375 C 783.25 202.132812 778.800781 195.875 777.214844 193.640625 Z M 777.214844 193.640625 " fill-opacity="1" fill-rule="nonzero"/><path fill="#dfe3ff" d="M 779.269531 193.796875 C 778.609375 193.417969 777.925781 193.367188 777.214844 193.640625 C 778.789062 195.875 783.214844 202.226562 783.972656 203.378906 C 784.726562 204.535156 788.773438 210.273438 789.492188 213.289062 L 789.804688 213 C 790.175781 212.582031 791.496094 211.367188 789.898438 209.0625 C 788.304688 206.753906 780.5625 194.816406 779.269531 193.796875 Z M 779.269531 193.796875 " fill-opacity="1" fill-rule="nonzero"/><path fill="#dfe3ff" d="M 779.484375 205.363281 C 779.402344 205.425781 779.308594 205.445312 779.207031 205.421875 C 778.832031 205.367188 778.46875 205.40625 778.113281 205.539062 C 777.757812 205.675781 777.457031 205.886719 777.214844 206.179688 C 777.152344 206.242188 777.074219 206.273438 776.980469 206.273438 C 776.890625 206.273438 776.8125 206.242188 776.746094 206.179688 C 776.679688 206.117188 776.648438 206.039062 776.648438 205.945312 C 776.648438 205.851562 776.679688 205.773438 776.746094 205.710938 C 777.070312 205.332031 777.464844 205.058594 777.929688 204.886719 C 778.394531 204.714844 778.875 204.671875 779.363281 204.75 C 779.449219 204.773438 779.519531 204.824219 779.566406 204.898438 C 779.613281 204.976562 779.632812 205.058594 779.617188 205.144531 C 779.59375 205.230469 779.550781 205.304688 779.484375 205.363281 Z M 779.484375 205.363281 " fill-opacity="1" fill-rule="nonzero"/><path fill="#dfe3ff" d="M 778.992188 203.355469 C 778.914062 203.421875 778.824219 203.441406 778.726562 203.417969 C 778.351562 203.363281 777.988281 203.402344 777.632812 203.539062 C 777.28125 203.671875 776.980469 203.882812 776.734375 204.171875 C 776.675781 204.238281 776.597656 204.273438 776.507812 204.277344 C 776.417969 204.28125 776.339844 204.253906 776.273438 204.191406 C 776.207031 204.128906 776.171875 204.054688 776.167969 203.964844 C 776.164062 203.875 776.195312 203.796875 776.253906 203.730469 C 776.578125 203.351562 776.972656 203.078125 777.4375 202.910156 C 777.90625 202.738281 778.382812 202.695312 778.871094 202.78125 C 778.960938 202.796875 779.027344 202.84375 779.078125 202.921875 C 779.125 202.996094 779.140625 203.078125 779.125 203.164062 C 779.101562 203.242188 779.058594 203.308594 778.992188 203.355469 Z M 778.992188 203.355469 " fill-opacity="1" fill-rule="nonzero"/><path fill="#6570fd" d="M 771.972656 215.332031 C 771.488281 215.621094 771.050781 215.976562 770.664062 216.386719 C 770.214844 216.804688 769.910156 217.308594 769.75 217.902344 C 769.691406 218.105469 769.691406 218.308594 769.75 218.515625 C 769.8125 218.6875 769.910156 218.839844 770.039062 218.96875 C 771.414062 220.351562 772.886719 221.621094 774.457031 222.777344 C 775.25 223.632812 776.195312 224.25 777.300781 224.628906 C 777.503906 224.667969 777.707031 224.667969 777.910156 224.628906 C 778.253906 224.496094 778.53125 224.28125 778.738281 223.980469 L 780.097656 222.382812 C 780.34375 222.136719 780.5 221.84375 780.574219 221.503906 C 780.59375 221.222656 780.535156 220.957031 780.394531 220.710938 C 780.140625 220.234375 779.828125 219.796875 779.460938 219.402344 C 778.335938 218.324219 777.132812 217.335938 775.859375 216.4375 C 775.441406 216.089844 775 215.773438 774.539062 215.488281 L 774.203125 215.269531 C 774.113281 215.210938 774.03125 215.140625 773.953125 215.066406 C 773.675781 214.925781 773.382812 214.878906 773.074219 214.933594 C 772.753906 214.988281 772.449219 215.09375 772.164062 215.246094 Z M 771.972656 215.332031 " fill-opacity="1" fill-rule="nonzero"/><path fill="#6570fd" d="M 773.269531 244.421875 C 773.269531 244.421875 772.546875 242.34375 771.371094 242.414062 C 770.195312 242.488281 769.738281 242.8125 769.296875 242.789062 C 769.136719 242.789062 768.984375 242.816406 768.835938 242.878906 C 768.691406 242.941406 768.558594 243.027344 768.445312 243.140625 C 768.335938 243.25 768.25 243.382812 768.1875 243.527344 C 768.125 243.675781 768.097656 243.828125 768.097656 243.988281 C 768.167969 244.851562 769.210938 253.367188 770.496094 253.71875 C 771.78125 254.066406 772.140625 253.320312 772.8125 253.273438 C 773.484375 253.222656 775.210938 252.78125 775.332031 251.542969 C 774.769531 249.132812 774.082031 246.757812 773.269531 244.421875 Z M 773.269531 244.421875 " fill-opacity="1" fill-rule="nonzero"/><path fill="#0e133f" d="M 680.894531 270.988281 C 681.21875 271.050781 681.480469 271.171875 681.679688 271.347656 C 681.882812 271.523438 681.964844 271.703125 681.929688 271.886719 C 681.890625 272.074219 681.746094 272.210938 681.492188 272.296875 C 681.238281 272.382812 680.953125 272.394531 680.628906 272.332031 C 680.308594 272.265625 680.046875 272.148438 679.84375 271.972656 C 679.644531 271.796875 679.5625 271.613281 679.597656 271.429688 C 679.632812 271.242188 679.777344 271.109375 680.03125 271.019531 C 680.285156 270.933594 680.574219 270.921875 680.894531 270.988281 Z M 680.894531 270.988281 " fill-opacity="1" fill-rule="nonzero"/><path fill="#0e133f" d="M 536.988281 211.246094 L 534.203125 207.117188 C 533.667969 206.320312 532.992188 205.671875 532.179688 205.164062 C 531.367188 204.652344 530.484375 204.332031 529.535156 204.199219 L 522.578125 203.222656 L 520.800781 200.546875 C 520.722656 200.433594 520.625 200.335938 520.511719 200.261719 C 520.394531 200.183594 520.269531 200.132812 520.132812 200.105469 C 519.996094 200.078125 519.863281 200.078125 519.726562 200.105469 C 519.589844 200.128906 519.464844 200.183594 519.347656 200.257812 L 516.949219 201.890625 C 516.835938 201.96875 516.738281 202.0625 516.664062 202.179688 C 516.585938 202.292969 516.535156 202.417969 516.507812 202.554688 C 516.480469 202.6875 516.480469 202.824219 516.507812 202.957031 C 516.535156 203.09375 516.585938 203.21875 516.660156 203.332031 L 518.402344 205.988281 L 516.503906 212.929688 C 516.242188 213.878906 516.1875 214.839844 516.347656 215.808594 C 516.507812 216.78125 516.863281 217.675781 517.417969 218.488281 L 520.152344 222.550781 Z M 536.988281 211.246094 " fill-opacity="1" fill-rule="nonzero"/><path fill="#524fd0" d="M 521.675781 225.578125 C 524.160156 225.492188 527.929688 224.015625 531.671875 221.492188 C 535.417969 218.96875 538.199219 216.015625 539.207031 213.746094 L 540.539062 212.84375 L 539.339844 211.03125 C 537.984375 209.011719 532.355469 210.441406 526.777344 214.203125 C 521.195312 217.960938 517.777344 222.609375 519.132812 224.664062 L 520.332031 226.476562 Z M 521.675781 225.578125 " fill-opacity="1" fill-rule="nonzero"/><path fill="#b583fd" d="M 540.550781 212.824219 C 540.710938 213.0625 540.808594 213.34375 540.835938 213.667969 C 540.863281 213.988281 540.824219 214.34375 540.722656 214.738281 C 540.617188 215.128906 540.445312 215.550781 540.210938 216 C 539.976562 216.445312 539.679688 216.914062 539.328125 217.398438 C 538.972656 217.886719 538.5625 218.382812 538.101562 218.886719 C 537.636719 219.390625 537.128906 219.898438 536.578125 220.402344 C 536.027344 220.90625 535.441406 221.402344 534.824219 221.890625 C 534.203125 222.375 533.5625 222.84375 532.898438 223.289062 C 532.234375 223.738281 531.558594 224.160156 530.878906 224.550781 C 530.195312 224.945312 529.515625 225.300781 528.84375 225.625 C 528.167969 225.945312 527.507812 226.226562 526.867188 226.464844 C 526.226562 226.707031 525.613281 226.898438 525.03125 227.046875 C 524.445312 227.195312 523.902344 227.292969 523.402344 227.34375 C 522.898438 227.394531 522.445312 227.394531 522.042969 227.34375 C 521.640625 227.292969 521.292969 227.195312 521.007812 227.046875 C 520.71875 226.902344 520.496094 226.707031 520.332031 226.46875 C 520.171875 226.230469 520.078125 225.949219 520.046875 225.625 C 520.019531 225.304688 520.058594 224.945312 520.164062 224.554688 C 520.269531 224.160156 520.4375 223.742188 520.671875 223.292969 C 520.90625 222.84375 521.203125 222.378906 521.558594 221.894531 C 521.914062 221.40625 522.320312 220.910156 522.785156 220.40625 C 523.246094 219.898438 523.753906 219.394531 524.304688 218.890625 C 524.855469 218.382812 525.441406 217.886719 526.0625 217.402344 C 526.679688 216.917969 527.324219 216.449219 527.988281 216 C 528.652344 215.554688 529.324219 215.132812 530.007812 214.742188 C 530.6875 214.347656 531.367188 213.992188 532.042969 213.667969 C 532.71875 213.347656 533.375 213.066406 534.015625 212.824219 C 534.65625 212.585938 535.269531 212.390625 535.855469 212.246094 C 536.4375 212.097656 536.980469 212 537.484375 211.949219 C 537.984375 211.898438 538.4375 211.898438 538.839844 211.949219 C 539.246094 212 539.589844 212.097656 539.878906 212.242188 C 540.164062 212.390625 540.390625 212.585938 540.550781 212.824219 Z M 540.550781 212.824219 " fill-opacity="1" fill-rule="nonzero"/><path fill="#0e133f" d="M 528.164062 221.230469 C 528.226562 221.316406 528.246094 221.425781 528.226562 221.558594 C 528.207031 221.691406 528.152344 221.832031 528.058594 221.988281 C 527.964844 222.140625 527.839844 222.296875 527.683594 222.449219 C 527.527344 222.605469 527.355469 222.746094 527.164062 222.875 C 526.96875 223.007812 526.773438 223.113281 526.574219 223.199219 C 526.371094 223.285156 526.183594 223.34375 526.003906 223.375 C 525.824219 223.402344 525.671875 223.402344 525.542969 223.371094 C 525.414062 223.339844 525.320312 223.277344 525.261719 223.191406 C 525.199219 223.101562 525.179688 222.992188 525.199219 222.859375 C 525.21875 222.726562 525.273438 222.585938 525.367188 222.429688 C 525.460938 222.277344 525.585938 222.121094 525.742188 221.96875 C 525.898438 221.8125 526.070312 221.671875 526.261719 221.542969 C 526.457031 221.410156 526.652344 221.304688 526.855469 221.21875 C 527.054688 221.132812 527.242188 221.074219 527.421875 221.042969 C 527.601562 221.015625 527.753906 221.015625 527.882812 221.046875 C 528.011719 221.082031 528.105469 221.140625 528.164062 221.230469 Z M 528.164062 221.230469 " fill-opacity="1" fill-rule="nonzero"/><path fill="#0e133f" d="M 535.664062 216.167969 C 535.722656 216.253906 535.742188 216.367188 535.726562 216.496094 C 535.707031 216.628906 535.648438 216.773438 535.554688 216.925781 C 535.460938 217.082031 535.335938 217.234375 535.183594 217.390625 C 535.027344 217.542969 534.851562 217.683594 534.660156 217.816406 C 534.46875 217.945312 534.269531 218.054688 534.070312 218.140625 C 533.871094 218.226562 533.679688 218.285156 533.5 218.3125 C 533.324219 218.34375 533.167969 218.339844 533.039062 218.308594 C 532.910156 218.277344 532.816406 218.214844 532.757812 218.128906 C 532.699219 218.039062 532.679688 217.929688 532.695312 217.796875 C 532.714844 217.667969 532.773438 217.523438 532.867188 217.367188 C 532.960938 217.214844 533.085938 217.058594 533.238281 216.90625 C 533.394531 216.753906 533.570312 216.609375 533.761719 216.480469 C 533.953125 216.351562 534.152344 216.242188 534.351562 216.15625 C 534.550781 216.070312 534.742188 216.011719 534.921875 215.984375 C 535.097656 215.953125 535.25 215.953125 535.378906 215.988281 C 535.507812 216.019531 535.605469 216.078125 535.664062 216.167969 Z M 535.664062 216.167969 " fill-opacity="1" fill-rule="nonzero"/><path fill="#0e133f" d="M 680.171875 230.308594 L 683.4375 234.066406 C 684.066406 234.792969 684.816406 235.355469 685.683594 235.761719 C 686.554688 236.164062 687.46875 236.371094 688.429688 236.386719 L 695.449219 236.503906 L 697.570312 238.90625 C 697.664062 239.011719 697.773438 239.09375 697.898438 239.152344 C 698.019531 239.214844 698.152344 239.25 698.289062 239.257812 C 698.429688 239.265625 698.5625 239.25 698.695312 239.207031 C 698.824219 239.160156 698.941406 239.09375 699.046875 239.003906 L 701.230469 237.09375 C 701.335938 237.003906 701.417969 236.898438 701.480469 236.773438 C 701.542969 236.648438 701.578125 236.519531 701.585938 236.382812 C 701.59375 236.242188 701.578125 236.109375 701.53125 235.980469 C 701.488281 235.847656 701.417969 235.730469 701.328125 235.628906 L 699.203125 233.226562 L 700.234375 226.105469 C 700.378906 225.128906 700.3125 224.171875 700.03125 223.226562 C 699.753906 222.28125 699.289062 221.441406 698.640625 220.699219 L 695.4375 217 Z M 680.171875 230.308594 " fill-opacity="1" fill-rule="nonzero"/><path fill="#524fd0" d="M 693.601562 214.214844 C 691.140625 214.597656 687.601562 216.519531 684.179688 219.5 C 680.761719 222.476562 678.382812 225.730469 677.664062 228.109375 L 676.464844 229.179688 L 677.890625 230.824219 C 679.488281 232.648438 684.886719 230.546875 689.964844 226.117188 C 695.039062 221.683594 697.871094 216.628906 696.277344 214.789062 L 694.800781 213.191406 Z M 693.601562 214.214844 " fill-opacity="1" fill-rule="nonzero"/><path fill="#b583fd" d="M 694.820312 213.152344 C 695.007812 213.371094 695.136719 213.636719 695.207031 213.953125 C 695.273438 214.269531 695.28125 214.628906 695.222656 215.03125 C 695.167969 215.433594 695.050781 215.871094 694.871094 216.34375 C 694.695312 216.816406 694.460938 217.316406 694.167969 217.84375 C 693.875 218.371094 693.527344 218.910156 693.132812 219.46875 C 692.734375 220.027344 692.292969 220.59375 691.808594 221.164062 C 691.324219 221.730469 690.804688 222.296875 690.25 222.855469 C 689.695312 223.414062 689.113281 223.957031 688.511719 224.480469 C 687.90625 225.007812 687.292969 225.507812 686.664062 225.980469 C 686.035156 226.457031 685.402344 226.894531 684.773438 227.296875 C 684.144531 227.699219 683.523438 228.058594 682.917969 228.375 C 682.3125 228.691406 681.726562 228.960938 681.164062 229.179688 C 680.605469 229.398438 680.078125 229.5625 679.585938 229.671875 C 679.09375 229.785156 678.644531 229.839844 678.238281 229.839844 C 677.832031 229.839844 677.476562 229.785156 677.171875 229.675781 C 676.871094 229.566406 676.621094 229.402344 676.433594 229.183594 C 676.242188 228.964844 676.113281 228.699219 676.046875 228.382812 C 675.980469 228.066406 675.972656 227.707031 676.027344 227.304688 C 676.085938 226.902344 676.203125 226.464844 676.378906 225.992188 C 676.558594 225.515625 676.792969 225.015625 677.085938 224.492188 C 677.378906 223.964844 677.722656 223.421875 678.121094 222.863281 C 678.515625 222.304688 678.957031 221.742188 679.441406 221.171875 C 679.929688 220.601562 680.449219 220.039062 681.003906 219.480469 C 681.558594 218.921875 682.136719 218.378906 682.742188 217.851562 C 683.34375 217.328125 683.960938 216.828125 684.589844 216.351562 C 685.21875 215.878906 685.847656 215.441406 686.480469 215.039062 C 687.109375 214.636719 687.726562 214.273438 688.335938 213.957031 C 688.941406 213.640625 689.527344 213.375 690.085938 213.15625 C 690.648438 212.9375 691.175781 212.773438 691.667969 212.660156 C 692.160156 212.550781 692.609375 212.496094 693.015625 212.492188 C 693.421875 212.492188 693.777344 212.546875 694.078125 212.660156 C 694.382812 212.769531 694.628906 212.933594 694.820312 213.152344 Z M 694.820312 213.152344 " fill-opacity="1" fill-rule="nonzero"/><path fill="#0e133f" d="M 690.132812 217.167969 L 685.488281 211.992188 C 685.351562 211.820312 685.183594 211.6875 684.988281 211.582031 C 684.792969 211.480469 684.589844 211.421875 684.371094 211.402344 C 684.152344 211.386719 683.9375 211.414062 683.730469 211.480469 C 683.523438 211.550781 683.335938 211.660156 683.171875 211.804688 C 683.007812 211.953125 682.878906 212.125 682.785156 212.324219 C 682.691406 212.523438 682.640625 212.730469 682.632812 212.949219 C 682.625 213.167969 682.660156 213.382812 682.742188 213.585938 C 682.820312 213.792969 682.933594 213.972656 683.089844 214.128906 L 687.71875 219.28125 C 688.019531 219.582031 688.777344 219.390625 689.425781 218.8125 C 690.070312 218.238281 690.394531 217.492188 690.109375 217.167969 Z M 690.132812 217.167969 " fill-opacity="1" fill-rule="nonzero"/><path fill="#0e133f" d="M 683.519531 223.113281 L 678.875 217.9375 C 678.738281 217.765625 678.570312 217.632812 678.378906 217.527344 C 678.183594 217.425781 677.976562 217.367188 677.757812 217.347656 C 677.539062 217.332031 677.324219 217.359375 677.117188 217.425781 C 676.910156 217.496094 676.722656 217.605469 676.558594 217.75 C 676.394531 217.898438 676.265625 218.070312 676.175781 218.269531 C 676.082031 218.46875 676.03125 218.675781 676.023438 218.894531 C 676.015625 219.113281 676.050781 219.328125 676.128906 219.53125 C 676.207031 219.738281 676.324219 219.917969 676.476562 220.074219 L 681.121094 225.203125 C 681.433594 225.503906 682.175781 225.3125 682.835938 224.734375 C 683.496094 224.160156 683.808594 223.425781 683.519531 223.089844 Z M 683.519531 223.113281 " fill-opacity="1" fill-rule="nonzero"/><path fill="#ff6e48" d="M 684.109375 273.617188 C 684.109375 273.800781 684.074219 273.972656 684.003906 274.140625 C 683.933594 274.308594 683.835938 274.457031 683.707031 274.585938 C 683.578125 274.714844 683.429688 274.8125 683.261719 274.882812 C 683.097656 274.953125 682.921875 274.988281 682.738281 274.988281 C 682.558594 274.988281 682.382812 274.953125 682.214844 274.882812 C 682.050781 274.8125 681.902344 274.714844 681.773438 274.585938 C 681.644531 274.457031 681.546875 274.308594 681.476562 274.140625 C 681.40625 273.972656 681.371094 273.800781 681.371094 273.617188 C 681.371094 273.4375 681.40625 273.261719 681.476562 273.09375 C 681.546875 272.925781 681.644531 272.777344 681.773438 272.648438 C 681.902344 272.523438 682.050781 272.421875 682.214844 272.351562 C 682.382812 272.285156 682.558594 272.25 682.738281 272.25 C 682.921875 272.25 683.097656 272.285156 683.261719 272.351562 C 683.429688 272.421875 683.578125 272.523438 683.707031 272.648438 C 683.835938 272.777344 683.933594 272.925781 684.003906 273.09375 C 684.074219 273.261719 684.109375 273.4375 684.109375 273.617188 Z M 684.109375 273.617188 " fill-opacity="1" fill-rule="nonzero"/><path fill="#f2700d" d="M 710.640625 285.652344 C 710.597656 285.664062 710.550781 285.664062 710.507812 285.652344 C 708.808594 285.050781 707.054688 284.714844 705.253906 284.644531 C 702.542969 284.496094 699.839844 284.566406 697.140625 284.847656 C 697.046875 284.863281 696.964844 284.839844 696.890625 284.785156 C 696.820312 284.726562 696.777344 284.652344 696.769531 284.558594 C 696.761719 284.472656 696.785156 284.390625 696.839844 284.324219 C 696.894531 284.253906 696.96875 284.210938 697.054688 284.199219 C 699.796875 283.902344 702.546875 283.835938 705.300781 283.996094 C 707.1875 284.046875 709.015625 284.402344 710.785156 285.0625 C 710.867188 285.101562 710.921875 285.164062 710.953125 285.25 C 710.980469 285.332031 710.976562 285.414062 710.941406 285.496094 C 710.871094 285.609375 710.773438 285.660156 710.640625 285.652344 Z M 710.640625 285.652344 " fill-opacity="1" fill-rule="nonzero"/><path fill="#f2700d" d="M 682.585938 292.246094 C 682.496094 292.246094 682.417969 292.214844 682.355469 292.152344 C 682.292969 292.085938 682.261719 292.007812 682.261719 291.917969 C 682.261719 291.824219 682.292969 291.746094 682.355469 291.683594 C 683.726562 290.316406 685.363281 289.449219 687.265625 289.089844 C 688.746094 288.808594 690.171875 288.976562 691.546875 289.59375 C 691.625 289.636719 691.675781 289.703125 691.699219 289.789062 C 691.722656 289.875 691.710938 289.957031 691.664062 290.035156 C 691.621094 290.113281 691.554688 290.164062 691.46875 290.1875 C 691.382812 290.210938 691.300781 290.199219 691.222656 290.15625 C 689.972656 289.632812 688.679688 289.496094 687.347656 289.738281 C 685.601562 290.078125 684.097656 290.878906 682.835938 292.136719 C 682.769531 292.210938 682.683594 292.25 682.585938 292.246094 Z M 682.585938 292.246094 " fill-opacity="1" fill-rule="nonzero"/><path fill="#f2700d" d="M 690.144531 307.5 C 690.066406 307.5 689.992188 307.472656 689.929688 307.429688 C 689.863281 307.363281 689.832031 307.285156 689.832031 307.195312 C 689.832031 307.101562 689.863281 307.023438 689.929688 306.960938 C 691.417969 305.148438 692.773438 303.246094 693.996094 301.242188 C 694.558594 299.976562 694.828125 298.652344 694.800781 297.265625 C 694.796875 297.175781 694.824219 297.097656 694.886719 297.03125 C 694.945312 296.960938 695.023438 296.925781 695.113281 296.917969 C 695.199219 296.917969 695.277344 296.949219 695.339844 297.007812 C 695.40625 297.070312 695.441406 297.144531 695.449219 297.230469 C 695.496094 298.734375 695.203125 300.167969 694.570312 301.53125 C 693.335938 303.585938 691.949219 305.535156 690.421875 307.378906 C 690.351562 307.472656 690.257812 307.511719 690.144531 307.5 Z M 690.144531 307.5 " fill-opacity="1" fill-rule="nonzero"/><path fill="#f2700d" d="M 692.734375 304.089844 C 692.5625 304.078125 692.460938 303.992188 692.425781 303.820312 C 692.390625 303.652344 692.449219 303.53125 692.605469 303.453125 C 694.609375 302.5625 696.011719 299.597656 696.023438 299.5625 C 696.0625 299.480469 696.125 299.429688 696.210938 299.398438 C 696.292969 299.367188 696.375 299.371094 696.457031 299.40625 C 696.539062 299.441406 696.597656 299.5 696.632812 299.585938 C 696.664062 299.671875 696.660156 299.753906 696.625 299.835938 C 696.5625 299.96875 695.113281 303.066406 692.878906 304.066406 Z M 692.734375 304.089844 " fill-opacity="1" fill-rule="nonzero"/><path fill="#f2700d" d="M 730.980469 309.6875 C 730.890625 309.683594 730.816406 309.652344 730.75 309.589844 C 724.75 303.476562 725.953125 292.34375 726.023438 291.875 C 726.03125 291.78125 726.070312 291.707031 726.140625 291.652344 C 726.210938 291.59375 726.292969 291.570312 726.382812 291.585938 C 726.472656 291.59375 726.546875 291.636719 726.601562 291.707031 C 726.660156 291.777344 726.683594 291.855469 726.671875 291.945312 C 726.671875 292.066406 725.472656 303.238281 731.21875 309.121094 C 731.28125 309.1875 731.308594 309.265625 731.308594 309.355469 C 731.308594 309.445312 731.28125 309.523438 731.21875 309.589844 C 731.152344 309.65625 731.074219 309.6875 730.980469 309.6875 Z M 730.980469 309.6875 " fill-opacity="1" fill-rule="nonzero"/><path fill="#f2700d" d="M 736.210938 315.761719 C 724.882812 315.089844 722.617188 297.460938 722.605469 297.292969 C 722.589844 297.203125 722.609375 297.121094 722.664062 297.046875 C 722.71875 296.972656 722.789062 296.929688 722.878906 296.917969 C 722.972656 296.90625 723.050781 296.929688 723.125 296.988281 C 723.195312 297.042969 723.238281 297.117188 723.253906 297.207031 C 723.253906 297.375 725.472656 314.464844 736.246094 315.101562 C 736.339844 315.109375 736.414062 315.144531 736.472656 315.214844 C 736.535156 315.28125 736.5625 315.359375 736.558594 315.449219 C 736.554688 315.542969 736.515625 315.617188 736.449219 315.675781 C 736.382812 315.738281 736.300781 315.765625 736.210938 315.761719 Z M 736.210938 315.761719 " fill-opacity="1" fill-rule="nonzero"/><path fill="#6570fd" d="M 729.601562 289.652344 C 729.515625 289.65625 729.4375 289.628906 729.375 289.570312 C 729.3125 289.511719 729.277344 289.4375 729.277344 289.351562 C 728.59375 282.265625 732.070312 247.640625 732.214844 246.113281 C 732.226562 246.023438 732.265625 245.945312 732.339844 245.890625 C 732.414062 245.832031 732.496094 245.8125 732.589844 245.824219 C 732.679688 245.832031 732.753906 245.871094 732.8125 245.941406 C 732.867188 246.015625 732.890625 246.09375 732.875 246.1875 C 732.875 246.546875 729.277344 282.21875 729.925781 289.242188 C 729.933594 289.335938 729.910156 289.417969 729.851562 289.488281 C 729.792969 289.558594 729.714844 289.597656 729.625 289.605469 Z M 729.601562 289.652344 " fill-opacity="1" fill-rule="nonzero"/><path fill="#6570fd" d="M 747.382812 257.632812 C 747.300781 257.632812 747.226562 257.605469 747.164062 257.546875 C 747.101562 257.488281 747.066406 257.417969 747.058594 257.332031 C 747.058594 257.105469 746.59375 251.710938 747.25 249.453125 C 747.910156 247.195312 751.273438 244.757812 751.414062 244.648438 C 751.492188 244.601562 751.574219 244.582031 751.660156 244.597656 C 751.75 244.617188 751.820312 244.660156 751.871094 244.734375 C 751.925781 244.804688 751.945312 244.886719 751.929688 244.976562 C 751.917969 245.066406 751.875 245.136719 751.800781 245.1875 C 751.800781 245.1875 748.476562 247.589844 747.875 249.632812 C 747.277344 251.675781 747.707031 257.222656 747.707031 257.285156 C 747.71875 257.375 747.695312 257.453125 747.632812 257.523438 C 747.574219 257.59375 747.5 257.628906 747.40625 257.632812 Z M 747.382812 257.632812 " fill-opacity="1" fill-rule="nonzero"/><path fill="#6570fd" d="M 731.664062 255.230469 C 729.058594 255.230469 726.613281 252.898438 726.515625 252.828125 C 726.449219 252.765625 726.417969 252.6875 726.417969 252.59375 C 726.417969 252.5 726.449219 252.421875 726.515625 252.359375 C 726.582031 252.296875 726.660156 252.265625 726.75 252.265625 C 726.839844 252.265625 726.917969 252.296875 726.984375 252.359375 C 726.984375 252.359375 729.382812 254.605469 731.675781 254.605469 C 731.765625 254.605469 731.84375 254.636719 731.910156 254.699219 C 731.972656 254.761719 732.007812 254.839844 732.011719 254.929688 C 732.003906 255.019531 731.964844 255.089844 731.898438 255.148438 C 731.832031 255.207031 731.753906 255.234375 731.664062 255.230469 Z M 731.664062 255.230469 " fill-opacity="1" fill-rule="nonzero"/><path fill="#6570fd" d="M 745.789062 308.402344 C 745.625 308.410156 745.519531 308.335938 745.464844 308.183594 C 745.410156 308.03125 745.453125 307.90625 745.582031 307.8125 C 748.765625 305.339844 747.839844 294.289062 747.828125 294.179688 C 747.820312 294.089844 747.847656 294.007812 747.90625 293.9375 C 747.964844 293.871094 748.039062 293.828125 748.128906 293.820312 C 748.21875 293.808594 748.296875 293.832031 748.367188 293.894531 C 748.4375 293.953125 748.472656 294.027344 748.476562 294.121094 C 748.476562 294.589844 749.449219 305.636719 745.992188 308.328125 C 745.933594 308.375 745.863281 308.402344 745.789062 308.402344 Z M 745.789062 308.402344 " fill-opacity="1" fill-rule="nonzero"/><path fill="#eb5f3a" d="M 677.230469 280.96875 C 676.648438 280.945312 676.152344 280.726562 675.746094 280.308594 C 675.558594 280.140625 675.441406 279.933594 675.398438 279.683594 C 675.351562 279.4375 675.386719 279.203125 675.503906 278.980469 C 675.621094 278.757812 675.792969 278.589844 676.019531 278.484375 C 676.246094 278.378906 676.484375 278.355469 676.726562 278.410156 C 676.820312 278.425781 676.890625 278.472656 676.945312 278.546875 C 677 278.621094 677.019531 278.703125 677.003906 278.796875 C 676.992188 278.886719 676.949219 278.957031 676.875 279.011719 C 676.804688 279.066406 676.722656 279.085938 676.632812 279.070312 C 676.503906 279.039062 676.382812 279.058594 676.269531 279.125 C 676.152344 279.195312 676.078125 279.292969 676.042969 279.417969 C 676.023438 279.597656 676.082031 279.742188 676.222656 279.851562 C 676.527344 280.164062 676.894531 280.316406 677.328125 280.308594 C 677.414062 280.292969 677.496094 280.3125 677.570312 280.363281 C 677.640625 280.414062 677.683594 280.484375 677.699219 280.574219 C 677.710938 280.664062 677.691406 280.746094 677.636719 280.820312 C 677.585938 280.894531 677.511719 280.9375 677.425781 280.957031 Z M 677.230469 280.96875 " fill-opacity="1" fill-rule="nonzero"/><path fill="#eb5f3a" d="M 679.609375 282.109375 C 679.519531 282.101562 679.445312 282.058594 679.390625 281.988281 C 679.332031 281.917969 679.308594 281.839844 679.320312 281.75 C 679.347656 281.554688 679.460938 281.453125 679.65625 281.449219 C 679.65625 281.449219 679.957031 281.449219 680.242188 280.871094 C 680.285156 280.789062 680.347656 280.734375 680.433594 280.707031 C 680.523438 280.679688 680.605469 280.683594 680.6875 280.730469 C 680.765625 280.773438 680.816406 280.839844 680.84375 280.925781 C 680.867188 281.011719 680.859375 281.09375 680.820312 281.171875 C 680.316406 282.039062 679.765625 282.109375 679.609375 282.109375 Z M 679.609375 282.109375 " fill-opacity="1" fill-rule="nonzero"/><path fill="#eb5f3a" d="M 683.171875 281.351562 L 683.074219 281.351562 C 682.972656 281.371094 682.878906 281.347656 682.796875 281.28125 C 682.71875 281.214844 682.675781 281.128906 682.675781 281.023438 C 682.675781 280.917969 682.71875 280.832031 682.796875 280.761719 C 682.878906 280.695312 682.972656 280.671875 683.074219 280.691406 L 683.148438 280.691406 C 684.28125 280.695312 685.402344 280.605469 686.519531 280.417969 C 686.609375 280.398438 686.691406 280.414062 686.769531 280.46875 C 686.84375 280.519531 686.890625 280.589844 686.902344 280.679688 C 686.917969 280.769531 686.902344 280.851562 686.847656 280.925781 C 686.796875 281 686.730469 281.046875 686.640625 281.066406 C 685.492188 281.257812 684.335938 281.351562 683.171875 281.351562 Z M 683.171875 281.351562 " fill-opacity="1" fill-rule="nonzero"/><path fill="#eb5f3a" d="M 687.898438 273.402344 C 688.054688 273.402344 688.15625 273.476562 688.210938 273.617188 C 688.238281 273.707031 688.226562 273.789062 688.1875 273.871094 C 688.144531 273.953125 688.082031 274.007812 687.996094 274.039062 C 687.289062 274.277344 687.324219 274.808594 687.335938 274.867188 C 687.34375 274.957031 687.320312 275.039062 687.265625 275.109375 C 687.210938 275.179688 687.136719 275.222656 687.046875 275.238281 C 686.847656 275.253906 686.722656 275.160156 686.675781 274.964844 C 686.652344 274.605469 686.742188 274.277344 686.953125 273.984375 C 687.164062 273.695312 687.441406 273.503906 687.792969 273.414062 Z M 687.898438 273.402344 " fill-opacity="1" fill-rule="nonzero"/><path fill="#f8653e" d="M 688.285156 275.359375 C 688.214844 275.355469 688.152344 275.335938 688.09375 275.300781 C 688.019531 275.246094 687.976562 275.175781 687.960938 275.085938 C 687.945312 274.996094 687.964844 274.917969 688.019531 274.84375 L 688.199219 274.589844 C 688.332031 274.457031 688.476562 274.445312 688.632812 274.554688 C 688.785156 274.664062 688.824219 274.804688 688.738281 274.976562 L 688.546875 275.226562 C 688.484375 275.316406 688.394531 275.359375 688.285156 275.359375 Z M 688.285156 275.359375 " fill-opacity="1" fill-rule="nonzero"/><path fill="#eb5f3a" d="M 693.253906 362.507812 C 693.160156 362.503906 693.082031 362.464844 693.019531 362.398438 C 692.957031 362.332031 692.929688 362.25 692.929688 362.160156 C 692.820312 361.335938 692.621094 360.535156 692.328125 359.757812 C 692.292969 359.671875 692.292969 359.589844 692.332031 359.503906 C 692.371094 359.421875 692.433594 359.367188 692.519531 359.335938 C 692.605469 359.304688 692.691406 359.308594 692.773438 359.351562 C 692.855469 359.390625 692.910156 359.453125 692.941406 359.542969 C 693.265625 360.390625 693.480469 361.269531 693.589844 362.171875 C 693.589844 362.265625 693.554688 362.34375 693.488281 362.410156 C 693.425781 362.476562 693.34375 362.507812 693.253906 362.507812 Z M 693.253906 362.507812 " fill-opacity="1" fill-rule="nonzero"/><path fill="#eb5f3a" d="M 694.921875 358.351562 C 694.738281 358.355469 694.628906 358.269531 694.597656 358.089844 C 694.40625 357.101562 694.003906 356.207031 693.394531 355.410156 C 693.277344 355.261719 693.28125 355.117188 693.410156 354.976562 C 693.535156 354.835938 693.679688 354.816406 693.839844 354.917969 C 694.535156 355.820312 694.976562 356.832031 695.171875 357.957031 C 695.195312 358.046875 695.179688 358.128906 695.132812 358.207031 C 695.082031 358.285156 695.011719 358.335938 694.921875 358.351562 Z M 694.921875 358.351562 " fill-opacity="1" fill-rule="nonzero"/><path fill="#eb5f3a" d="M 690.589844 363.121094 C 690.425781 363.117188 690.324219 363.039062 690.289062 362.878906 C 690.199219 362.234375 690.144531 361.585938 690.121094 360.933594 C 690.117188 360.84375 690.144531 360.765625 690.207031 360.699219 C 690.265625 360.628906 690.339844 360.59375 690.433594 360.585938 C 690.523438 360.585938 690.601562 360.617188 690.667969 360.675781 C 690.734375 360.734375 690.769531 360.808594 690.78125 360.898438 C 690.78125 361.691406 690.886719 362.582031 690.910156 362.710938 C 690.933594 362.800781 690.921875 362.882812 690.875 362.960938 C 690.828125 363.039062 690.761719 363.089844 690.671875 363.109375 Z M 690.589844 363.121094 " fill-opacity="1" fill-rule="nonzero"/><path fill="#eb5f3a" d="M 688.105469 362.246094 C 687.921875 362.242188 687.8125 362.148438 687.78125 361.96875 L 687.601562 360.695312 C 687.585938 360.605469 687.605469 360.523438 687.660156 360.449219 C 687.714844 360.378906 687.785156 360.335938 687.875 360.324219 C 687.964844 360.308594 688.046875 360.328125 688.121094 360.382812 C 688.191406 360.4375 688.234375 360.507812 688.25 360.597656 L 688.429688 361.871094 C 688.441406 361.960938 688.421875 362.042969 688.367188 362.117188 C 688.3125 362.1875 688.242188 362.230469 688.152344 362.246094 Z M 688.105469 362.246094 " fill-opacity="1" fill-rule="nonzero"/><path fill="#a9affc" d="M 779.363281 221.601562 C 779.3125 221.613281 779.257812 221.613281 779.207031 221.601562 C 778.445312 221.167969 777.773438 220.625 777.191406 219.96875 C 776.792969 219.535156 776.363281 219.136719 775.90625 218.765625 C 775.519531 218.503906 775.121094 218.265625 774.707031 218.046875 C 773.707031 217.613281 772.90625 216.941406 772.308594 216.027344 C 772.257812 215.851562 772.3125 215.71875 772.476562 215.632812 C 772.644531 215.550781 772.78125 215.582031 772.894531 215.726562 C 773.425781 216.515625 774.128906 217.097656 774.996094 217.480469 C 775.410156 217.707031 775.8125 217.960938 776.195312 218.238281 C 776.679688 218.601562 777.132812 219 777.550781 219.4375 C 778.085938 220.042969 778.703125 220.542969 779.398438 220.941406 C 779.480469 220.984375 779.535156 221.046875 779.5625 221.132812 C 779.589844 221.21875 779.582031 221.304688 779.542969 221.382812 C 779.519531 221.488281 779.460938 221.558594 779.363281 221.601562 Z M 779.363281 221.601562 " fill-opacity="1" fill-rule="nonzero"/><path fill="#a9affc" d="M 778.007812 223.558594 C 777.914062 223.558594 777.835938 223.527344 777.769531 223.460938 C 775.902344 221.398438 773.722656 219.753906 771.226562 218.527344 C 771.144531 218.488281 771.089844 218.421875 771.0625 218.339844 C 771.03125 218.253906 771.035156 218.167969 771.078125 218.085938 C 771.117188 218.003906 771.179688 217.949219 771.265625 217.921875 C 771.351562 217.890625 771.433594 217.898438 771.515625 217.9375 C 774.078125 219.203125 776.324219 220.890625 778.246094 223.007812 C 778.3125 223.070312 778.34375 223.148438 778.34375 223.238281 C 778.34375 223.332031 778.3125 223.410156 778.246094 223.472656 C 778.179688 223.539062 778.101562 223.566406 778.007812 223.558594 Z M 778.007812 223.558594 " fill-opacity="1" fill-rule="nonzero"/><path fill="#a9affc" d="M 772.546875 252.46875 C 772.410156 252.472656 772.308594 252.410156 772.246094 252.289062 C 770.859375 249.675781 769.824219 246.925781 769.140625 244.046875 C 769.125 243.960938 769.140625 243.878906 769.1875 243.800781 C 769.238281 243.726562 769.304688 243.675781 769.390625 243.652344 C 769.480469 243.632812 769.5625 243.648438 769.640625 243.699219 C 769.71875 243.746094 769.765625 243.816406 769.789062 243.902344 C 770.460938 246.726562 771.476562 249.414062 772.835938 251.976562 C 772.878906 252.058594 772.886719 252.144531 772.859375 252.234375 C 772.832031 252.324219 772.773438 252.390625 772.691406 252.433594 Z M 772.546875 252.46875 " fill-opacity="1" fill-rule="nonzero"/><path fill="#a9affc" d="M 774 251.445312 C 773.84375 251.445312 773.738281 251.367188 773.6875 251.21875 C 772.957031 249.085938 771.964844 247.085938 770.710938 245.214844 C 770.625 245.039062 770.664062 244.894531 770.824219 244.785156 C 770.988281 244.675781 771.132812 244.695312 771.265625 244.839844 C 772.546875 246.777344 773.5625 248.847656 774.3125 251.050781 C 774.339844 251.136719 774.335938 251.21875 774.292969 251.300781 C 774.253906 251.382812 774.191406 251.441406 774.109375 251.472656 Z M 774 251.445312 " fill-opacity="1" fill-rule="nonzero"/><path fill="#eb5f3a" d="M 702.589844 244.421875 L 702.527344 244.421875 C 702.4375 244.40625 702.367188 244.359375 702.316406 244.285156 C 702.261719 244.210938 702.246094 244.125 702.265625 244.035156 C 702.347656 243.59375 703.117188 239.738281 704.195312 238.859375 C 704.195312 238.859375 705.394531 238.152344 705.925781 237.777344 C 705.984375 237.710938 706.0625 237.679688 706.152344 237.679688 C 706.242188 237.679688 706.316406 237.710938 706.378906 237.777344 C 706.441406 237.84375 706.476562 237.921875 706.476562 238.011719 C 706.476562 238.105469 706.441406 238.183594 706.378906 238.246094 C 705.863281 238.65625 704.664062 239.328125 704.617188 239.363281 C 703.894531 239.941406 703.175781 242.96875 702.960938 244.167969 C 702.910156 244.363281 702.789062 244.449219 702.589844 244.421875 Z M 702.589844 244.421875 " fill-opacity="1" fill-rule="nonzero"/><g fill="#000000" fill-opacity="1"><g transform="translate(379.478895, 494.100427)"><g><path d="M 23.25 -18.703125 L 23.25 -29.984375 L 29.15625 -29.984375 L 29.15625 0 L 23.25 0 L 23.25 -13.65625 L 9.828125 -13.65625 L 9.828125 0 L 3.890625 0 L 3.890625 -29.984375 L 9.828125 -29.984375 L 9.828125 -18.703125 Z M 23.25 -18.703125 "/></g></g></g><g fill="#000000" fill-opacity="1"><g transform="translate(412.54877, 494.100427)"><g><path d="M 13.140625 0.4375 C 10.929688 0.4375 8.988281 -0.015625 7.3125 -0.921875 C 5.632812 -1.835938 4.332031 -3.171875 3.40625 -4.921875 C 2.488281 -6.679688 2.03125 -8.804688 2.03125 -11.296875 C 2.03125 -13.785156 2.488281 -15.910156 3.40625 -17.671875 C 4.332031 -19.441406 5.632812 -20.78125 7.3125 -21.6875 C 8.988281 -22.59375 10.929688 -23.046875 13.140625 -23.046875 C 15.359375 -23.046875 17.304688 -22.59375 18.984375 -21.6875 C 20.660156 -20.78125 21.960938 -19.441406 22.890625 -17.671875 C 23.816406 -15.910156 24.28125 -13.785156 24.28125 -11.296875 C 24.28125 -8.804688 23.816406 -6.679688 22.890625 -4.921875 C 21.960938 -3.171875 20.660156 -1.835938 18.984375 -0.921875 C 17.304688 -0.015625 15.359375 0.4375 13.140625 0.4375 Z M 13.140625 -4.390625 C 16.660156 -4.390625 18.421875 -6.691406 18.421875 -11.296875 C 18.421875 -13.691406 17.96875 -15.445312 17.0625 -16.5625 C 16.15625 -17.675781 14.847656 -18.234375 13.140625 -18.234375 C 9.628906 -18.234375 7.875 -15.921875 7.875 -11.296875 C 7.875 -6.691406 9.628906 -4.390625 13.140625 -4.390625 Z M 13.140625 -4.390625 "/></g></g></g><g fill="#000000" fill-opacity="1"><g transform="translate(438.832449, 494.100427)"><g><path d="M 3.265625 0 L 3.265625 -22.625 L 8.71875 -22.625 L 8.71875 -19.578125 L 9.140625 -19.5 C 9.878906 -20.71875 10.742188 -21.613281 11.734375 -22.1875 C 12.734375 -22.757812 14.003906 -23.046875 15.546875 -23.046875 C 17.253906 -23.046875 18.625 -22.707031 19.65625 -22.03125 C 20.695312 -21.351562 21.457031 -20.367188 21.9375 -19.078125 L 22.375 -19.078125 C 23.070312 -20.429688 23.96875 -21.429688 25.0625 -22.078125 C 26.164062 -22.722656 27.539062 -23.046875 29.1875 -23.046875 C 33.875 -23.046875 36.21875 -20.4375 36.21875 -15.21875 L 36.21875 0 L 30.53125 0 L 30.53125 -14.5 C 30.53125 -15.820312 30.269531 -16.773438 29.75 -17.359375 C 29.238281 -17.953125 28.40625 -18.25 27.25 -18.25 C 24.132812 -18.25 22.578125 -16.164062 22.578125 -12 L 22.578125 0 L 16.90625 0 L 16.90625 -14.5 C 16.90625 -15.820312 16.640625 -16.773438 16.109375 -17.359375 C 15.578125 -17.953125 14.738281 -18.25 13.59375 -18.25 C 12.132812 -18.25 10.992188 -17.757812 10.171875 -16.78125 C 9.347656 -15.800781 8.9375 -14.25 8.9375 -12.125 L 8.9375 0 Z M 3.265625 0 "/></g></g></g><g fill="#000000" fill-opacity="1"><g transform="translate(477.950436, 494.100427)"><g><path d="M 22.359375 -10.03125 L 7.8125 -10.03125 C 7.976562 -8.0625 8.539062 -6.628906 9.5 -5.734375 C 10.457031 -4.835938 11.757812 -4.390625 13.40625 -4.390625 C 14.707031 -4.390625 15.757812 -4.628906 16.5625 -5.109375 C 17.375 -5.597656 18.023438 -6.335938 18.515625 -7.328125 L 18.953125 -7.328125 L 22.71875 -4.90625 C 21.976562 -3.3125 20.863281 -2.019531 19.375 -1.03125 C 17.882812 -0.0507812 15.894531 0.4375 13.40625 0.4375 C 11.070312 0.4375 9.050781 -0.00390625 7.34375 -0.890625 C 5.644531 -1.785156 4.332031 -3.109375 3.40625 -4.859375 C 2.488281 -6.617188 2.03125 -8.765625 2.03125 -11.296875 C 2.03125 -13.867188 2.515625 -16.035156 3.484375 -17.796875 C 4.453125 -19.566406 5.765625 -20.882812 7.421875 -21.75 C 9.078125 -22.613281 10.9375 -23.046875 13 -23.046875 C 16.195312 -23.046875 18.644531 -22.195312 20.34375 -20.5 C 22.050781 -18.8125 22.90625 -16.328125 22.90625 -13.046875 C 22.90625 -11.859375 22.863281 -10.9375 22.78125 -10.28125 Z M 17.46875 -13.703125 C 17.414062 -15.421875 17.015625 -16.671875 16.265625 -17.453125 C 15.523438 -18.242188 14.4375 -18.640625 13 -18.640625 C 10.132812 -18.640625 8.445312 -16.992188 7.9375 -13.703125 Z M 17.46875 -13.703125 "/></g></g></g><g fill="#000000" fill-opacity="1"><g transform="translate(502.532447, 494.100427)"><g/></g></g><g fill="#000000" fill-opacity="1"><g transform="translate(512.434962, 494.100427)"><g><path d="M 3.265625 9.171875 L 3.265625 -22.625 L 8.9375 -22.625 L 8.9375 -19.671875 L 9.375 -19.578125 C 10.039062 -20.734375 10.929688 -21.597656 12.046875 -22.171875 C 13.171875 -22.753906 14.488281 -23.046875 16 -23.046875 C 17.8125 -23.046875 19.398438 -22.613281 20.765625 -21.75 C 22.128906 -20.894531 23.1875 -19.585938 23.9375 -17.828125 C 24.695312 -16.078125 25.078125 -13.898438 25.078125 -11.296875 C 25.078125 -8.710938 24.675781 -6.546875 23.875 -4.796875 C 23.082031 -3.046875 21.972656 -1.734375 20.546875 -0.859375 C 19.128906 0.00390625 17.488281 0.4375 15.625 0.4375 C 14.21875 0.4375 13 0.203125 11.96875 -0.265625 C 10.945312 -0.742188 10.082031 -1.484375 9.375 -2.484375 L 8.9375 -2.40625 L 8.9375 9.171875 Z M 14.046875 -4.390625 C 15.742188 -4.390625 17.03125 -4.941406 17.90625 -6.046875 C 18.78125 -7.160156 19.21875 -8.910156 19.21875 -11.296875 C 19.21875 -13.691406 18.78125 -15.445312 17.90625 -16.5625 C 17.03125 -17.675781 15.742188 -18.234375 14.046875 -18.234375 C 12.460938 -18.234375 11.203125 -17.65625 10.265625 -16.5 C 9.335938 -15.351562 8.875 -13.617188 8.875 -11.296875 C 8.875 -8.984375 9.335938 -7.253906 10.265625 -6.109375 C 11.203125 -4.960938 12.460938 -4.390625 14.046875 -4.390625 Z M 14.046875 -4.390625 "/></g></g></g><g fill="#000000" fill-opacity="1"><g transform="translate(539.518227, 494.100427)"><g><path d="M 8.8125 0.4375 C 7.363281 0.4375 6.109375 0.171875 5.046875 -0.359375 C 3.984375 -0.898438 3.160156 -1.6875 2.578125 -2.71875 C 2.003906 -3.75 1.71875 -4.988281 1.71875 -6.4375 C 1.71875 -7.78125 2.003906 -8.90625 2.578125 -9.8125 C 3.160156 -10.71875 4.050781 -11.460938 5.25 -12.046875 C 6.457031 -12.628906 8.03125 -13.078125 9.96875 -13.390625 C 11.320312 -13.609375 12.347656 -13.847656 13.046875 -14.109375 C 13.753906 -14.367188 14.226562 -14.660156 14.46875 -14.984375 C 14.71875 -15.316406 14.84375 -15.738281 14.84375 -16.25 C 14.84375 -16.96875 14.585938 -17.519531 14.078125 -17.90625 C 13.578125 -18.289062 12.738281 -18.484375 11.5625 -18.484375 C 10.3125 -18.484375 9.117188 -18.203125 7.984375 -17.640625 C 6.847656 -17.078125 5.863281 -16.335938 5.03125 -15.421875 L 4.609375 -15.421875 L 2.234375 -19.015625 C 3.378906 -20.285156 4.78125 -21.273438 6.4375 -21.984375 C 8.09375 -22.691406 9.898438 -23.046875 11.859375 -23.046875 C 14.847656 -23.046875 17.007812 -22.410156 18.34375 -21.140625 C 19.6875 -19.867188 20.359375 -18.066406 20.359375 -15.734375 L 20.359375 -5.90625 C 20.359375 -4.894531 20.804688 -4.390625 21.703125 -4.390625 C 22.035156 -4.390625 22.367188 -4.453125 22.703125 -4.578125 L 22.984375 -4.484375 L 23.40625 -0.53125 C 23.082031 -0.320312 22.640625 -0.148438 22.078125 -0.015625 C 21.523438 0.109375 20.910156 0.171875 20.234375 0.171875 C 18.890625 0.171875 17.835938 -0.0859375 17.078125 -0.609375 C 16.316406 -1.128906 15.769531 -1.945312 15.4375 -3.0625 L 15.015625 -3.09375 C 13.898438 -0.738281 11.832031 0.4375 8.8125 0.4375 Z M 10.625 -3.8125 C 11.9375 -3.8125 12.984375 -4.25 13.765625 -5.125 C 14.554688 -6.007812 14.953125 -7.238281 14.953125 -8.8125 L 14.953125 -11.109375 L 14.5625 -11.203125 C 14.21875 -10.921875 13.769531 -10.6875 13.21875 -10.5 C 12.664062 -10.320312 11.867188 -10.144531 10.828125 -9.96875 C 9.597656 -9.757812 8.710938 -9.40625 8.171875 -8.90625 C 7.628906 -8.40625 7.359375 -7.695312 7.359375 -6.78125 C 7.359375 -5.8125 7.644531 -5.070312 8.21875 -4.5625 C 8.789062 -4.0625 9.59375 -3.8125 10.625 -3.8125 Z M 10.625 -3.8125 "/></g></g></g><g fill="#000000" fill-opacity="1"><g transform="translate(563.362163, 494.100427)"><g><path d="M 11.734375 9.59375 C 7.992188 9.59375 5.234375 9.046875 3.453125 7.953125 C 1.679688 6.859375 0.796875 5.335938 0.796875 3.390625 C 0.796875 2.191406 1.175781 1.210938 1.9375 0.453125 C 2.695312 -0.296875 3.785156 -0.800781 5.203125 -1.0625 L 5.203125 -1.5 C 4.441406 -1.957031 3.894531 -2.46875 3.5625 -3.03125 C 3.226562 -3.601562 3.0625 -4.269531 3.0625 -5.03125 C 3.0625 -6.84375 4.242188 -8.066406 6.609375 -8.703125 L 6.609375 -9.125 C 5.390625 -9.820312 4.472656 -10.6875 3.859375 -11.71875 C 3.242188 -12.75 2.9375 -14 2.9375 -15.46875 C 2.9375 -16.96875 3.28125 -18.285156 3.96875 -19.421875 C 4.65625 -20.566406 5.664062 -21.457031 7 -22.09375 C 8.332031 -22.726562 9.929688 -23.046875 11.796875 -23.046875 C 13.679688 -23.046875 15.179688 -22.71875 16.296875 -22.0625 C 16.992188 -23.070312 17.398438 -24.242188 17.515625 -25.578125 L 17.9375 -25.84375 L 22.03125 -24.828125 C 21.90625 -23.753906 21.585938 -22.847656 21.078125 -22.109375 C 20.578125 -21.378906 19.789062 -20.726562 18.71875 -20.15625 L 18.71875 -19.703125 C 19.988281 -18.585938 20.625 -17.023438 20.625 -15.015625 C 20.625 -13.617188 20.273438 -12.363281 19.578125 -11.25 C 18.890625 -10.144531 17.878906 -9.269531 16.546875 -8.625 C 15.210938 -7.988281 13.628906 -7.671875 11.796875 -7.671875 L 10.9375 -7.6875 C 10.382812 -7.71875 10 -7.734375 9.78125 -7.734375 C 9.257812 -7.734375 8.851562 -7.59375 8.5625 -7.3125 C 8.269531 -7.03125 8.125 -6.671875 8.125 -6.234375 C 8.125 -5.753906 8.3125 -5.378906 8.6875 -5.109375 C 9.070312 -4.847656 9.632812 -4.703125 10.375 -4.671875 L 15.4375 -4.484375 C 20.445312 -4.335938 22.953125 -2.1875 22.953125 1.96875 C 22.953125 3.425781 22.578125 4.726562 21.828125 5.875 C 21.085938 7.019531 19.878906 7.925781 18.203125 8.59375 C 16.535156 9.257812 14.378906 9.59375 11.734375 9.59375 Z M 11.796875 -11.65625 C 12.890625 -11.65625 13.742188 -11.972656 14.359375 -12.609375 C 14.972656 -13.253906 15.28125 -14.171875 15.28125 -15.359375 C 15.28125 -16.546875 14.972656 -17.457031 14.359375 -18.09375 C 13.742188 -18.726562 12.890625 -19.046875 11.796875 -19.046875 C 10.679688 -19.046875 9.820312 -18.726562 9.21875 -18.09375 C 8.625 -17.457031 8.328125 -16.546875 8.328125 -15.359375 C 8.328125 -14.160156 8.625 -13.242188 9.21875 -12.609375 C 9.820312 -11.972656 10.679688 -11.65625 11.796875 -11.65625 Z M 11.734375 5.46875 C 13.671875 5.46875 15.078125 5.191406 15.953125 4.640625 C 16.835938 4.097656 17.28125 3.390625 17.28125 2.515625 C 17.28125 1.804688 17.054688 1.285156 16.609375 0.953125 C 16.160156 0.617188 15.441406 0.4375 14.453125 0.40625 L 9.984375 0.203125 C 9.835938 0.203125 9.695312 0.195312 9.5625 0.1875 C 9.4375 0.175781 9.3125 0.171875 9.1875 0.171875 C 8.226562 0.171875 7.5 0.375 7 0.78125 C 6.5 1.1875 6.25 1.753906 6.25 2.484375 C 6.25 3.441406 6.707031 4.175781 7.625 4.6875 C 8.539062 5.207031 9.910156 5.46875 11.734375 5.46875 Z M 11.734375 5.46875 "/></g></g></g><g fill="#000000" fill-opacity="1"><g transform="translate(586.878054, 494.100427)"><g><path d="M 22.359375 -10.03125 L 7.8125 -10.03125 C 7.976562 -8.0625 8.539062 -6.628906 9.5 -5.734375 C 10.457031 -4.835938 11.757812 -4.390625 13.40625 -4.390625 C 14.707031 -4.390625 15.757812 -4.628906 16.5625 -5.109375 C 17.375 -5.597656 18.023438 -6.335938 18.515625 -7.328125 L 18.953125 -7.328125 L 22.71875 -4.90625 C 21.976562 -3.3125 20.863281 -2.019531 19.375 -1.03125 C 17.882812 -0.0507812 15.894531 0.4375 13.40625 0.4375 C 11.070312 0.4375 9.050781 -0.00390625 7.34375 -0.890625 C 5.644531 -1.785156 4.332031 -3.109375 3.40625 -4.859375 C 2.488281 -6.617188 2.03125 -8.765625 2.03125 -11.296875 C 2.03125 -13.867188 2.515625 -16.035156 3.484375 -17.796875 C 4.453125 -19.566406 5.765625 -20.882812 7.421875 -21.75 C 9.078125 -22.613281 10.9375 -23.046875 13 -23.046875 C 16.195312 -23.046875 18.644531 -22.195312 20.34375 -20.5 C 22.050781 -18.8125 22.90625 -16.328125 22.90625 -13.046875 C 22.90625 -11.859375 22.863281 -10.9375 22.78125 -10.28125 Z M 17.46875 -13.703125 C 17.414062 -15.421875 17.015625 -16.671875 16.265625 -17.453125 C 15.523438 -18.242188 14.4375 -18.640625 13 -18.640625 C 10.132812 -18.640625 8.445312 -16.992188 7.9375 -13.703125 Z M 17.46875 -13.703125 "/></g></g></g><g fill="#000000" fill-opacity="1"><g transform="translate(611.460054, 494.100427)"><g/></g></g><g fill="#000000" fill-opacity="1"><g transform="translate(621.36258, 494.100427)"><g><path d="M 6.09375 -25.328125 C 5.0625 -25.328125 4.222656 -25.632812 3.578125 -26.25 C 2.941406 -26.875 2.625 -27.679688 2.625 -28.671875 C 2.625 -29.640625 2.941406 -30.4375 3.578125 -31.0625 C 4.222656 -31.6875 5.0625 -32 6.09375 -32 C 6.769531 -32 7.375 -31.851562 7.90625 -31.5625 C 8.445312 -31.269531 8.863281 -30.875 9.15625 -30.375 C 9.445312 -29.882812 9.59375 -29.316406 9.59375 -28.671875 C 9.59375 -28.023438 9.445312 -27.445312 9.15625 -26.9375 C 8.863281 -26.4375 8.445312 -26.039062 7.90625 -25.75 C 7.375 -25.46875 6.769531 -25.328125 6.09375 -25.328125 Z M 3.265625 0 L 3.265625 -22.625 L 8.9375 -22.625 L 8.9375 0 Z M 3.265625 0 "/></g></g></g><g fill="#000000" fill-opacity="1"><g transform="translate(633.540833, 494.100427)"><g><path d="M 10.578125 0.4375 C 9.035156 0.4375 7.617188 0.253906 6.328125 -0.109375 C 5.046875 -0.472656 3.953125 -0.972656 3.046875 -1.609375 C 2.140625 -2.242188 1.46875 -2.972656 1.03125 -3.796875 L 4.1875 -7.203125 L 4.609375 -7.203125 C 5.367188 -6.191406 6.257812 -5.429688 7.28125 -4.921875 C 8.300781 -4.410156 9.414062 -4.15625 10.625 -4.15625 C 11.726562 -4.15625 12.5625 -4.351562 13.125 -4.75 C 13.6875 -5.15625 13.96875 -5.722656 13.96875 -6.453125 C 13.96875 -7.035156 13.765625 -7.519531 13.359375 -7.90625 C 12.953125 -8.289062 12.300781 -8.59375 11.40625 -8.8125 L 8.40625 -9.53125 C 6.164062 -10.070312 4.53125 -10.890625 3.5 -11.984375 C 2.46875 -13.085938 1.953125 -14.488281 1.953125 -16.1875 C 1.953125 -17.59375 2.3125 -18.8125 3.03125 -19.84375 C 3.75 -20.882812 4.757812 -21.675781 6.0625 -22.21875 C 7.363281 -22.769531 8.882812 -23.046875 10.625 -23.046875 C 12.65625 -23.046875 14.34375 -22.75 15.6875 -22.15625 C 17.03125 -21.570312 18.078125 -20.789062 18.828125 -19.8125 L 15.796875 -16.53125 L 15.375 -16.53125 C 14.75 -17.238281 14.039062 -17.753906 13.25 -18.078125 C 12.46875 -18.410156 11.59375 -18.578125 10.625 -18.578125 C 8.382812 -18.578125 7.265625 -17.878906 7.265625 -16.484375 C 7.265625 -15.898438 7.472656 -15.421875 7.890625 -15.046875 C 8.304688 -14.679688 9.039062 -14.382812 10.09375 -14.15625 L 12.875 -13.53125 C 15.175781 -13.039062 16.851562 -12.25 17.90625 -11.15625 C 18.96875 -10.070312 19.5 -8.613281 19.5 -6.78125 C 19.5 -5.351562 19.144531 -4.09375 18.4375 -3 C 17.726562 -1.90625 16.703125 -1.054688 15.359375 -0.453125 C 14.015625 0.140625 12.421875 0.4375 10.578125 0.4375 Z M 10.578125 0.4375 "/></g></g></g><g fill="#000000" fill-opacity="1"><g transform="translate(654.391463, 494.100427)"><g/></g></g><g fill="#000000" fill-opacity="1"><g transform="translate(664.29399, 494.100427)"><g><path d="M 10.359375 0.4375 C 7.816406 0.4375 5.9375 -0.253906 4.71875 -1.640625 C 3.507812 -3.035156 2.90625 -5.03125 2.90625 -7.625 L 2.90625 -22.625 L 8.59375 -22.625 L 8.59375 -8.34375 C 8.59375 -6.96875 8.890625 -5.960938 9.484375 -5.328125 C 10.078125 -4.691406 11 -4.375 12.25 -4.375 C 13.820312 -4.375 15.046875 -4.890625 15.921875 -5.921875 C 16.796875 -6.953125 17.234375 -8.570312 17.234375 -10.78125 L 17.234375 -22.625 L 22.90625 -22.625 L 22.90625 0 L 17.453125 0 L 17.453125 -3.328125 L 17.015625 -3.421875 C 16.296875 -2.128906 15.410156 -1.160156 14.359375 -0.515625 C 13.316406 0.117188 11.984375 0.4375 10.359375 0.4375 Z M 10.359375 0.4375 "/></g></g></g><g fill="#000000" fill-opacity="1"><g transform="translate(690.454656, 494.100427)"><g><path d="M 3.265625 0 L 3.265625 -22.625 L 8.71875 -22.625 L 8.71875 -19.296875 L 9.140625 -19.203125 C 10.554688 -21.765625 12.84375 -23.046875 16 -23.046875 C 18.601562 -23.046875 20.515625 -22.332031 21.734375 -20.90625 C 22.960938 -19.488281 23.578125 -17.421875 23.578125 -14.703125 L 23.578125 0 L 17.90625 0 L 17.90625 -14 C 17.90625 -15.507812 17.601562 -16.59375 17 -17.25 C 16.394531 -17.914062 15.429688 -18.25 14.109375 -18.25 C 12.484375 -18.25 11.210938 -17.722656 10.296875 -16.671875 C 9.390625 -15.617188 8.9375 -13.960938 8.9375 -11.703125 L 8.9375 0 Z M 3.265625 0 "/></g></g></g><g fill="#000000" fill-opacity="1"><g transform="translate(716.943355, 494.100427)"><g><path d="M 11.171875 0.4375 C 9.378906 0.4375 7.796875 0.00390625 6.421875 -0.859375 C 5.054688 -1.734375 3.984375 -3.046875 3.203125 -4.796875 C 2.421875 -6.554688 2.03125 -8.722656 2.03125 -11.296875 C 2.03125 -13.878906 2.429688 -16.050781 3.234375 -17.8125 C 4.035156 -19.570312 5.140625 -20.882812 6.546875 -21.75 C 7.960938 -22.613281 9.601562 -23.046875 11.46875 -23.046875 C 12.875 -23.046875 14.09375 -22.800781 15.125 -22.3125 C 16.15625 -21.832031 17.023438 -21.082031 17.734375 -20.0625 L 18.171875 -20.15625 L 18.171875 -31.703125 L 23.84375 -31.703125 L 23.84375 0 L 18.171875 0 L 18.171875 -2.9375 L 17.734375 -3.015625 C 17.109375 -1.953125 16.25 -1.109375 15.15625 -0.484375 C 14.0625 0.128906 12.734375 0.4375 11.171875 0.4375 Z M 13.015625 -4.390625 C 14.617188 -4.390625 15.882812 -4.957031 16.8125 -6.09375 C 17.75 -7.238281 18.21875 -8.972656 18.21875 -11.296875 C 18.21875 -13.617188 17.75 -15.351562 16.8125 -16.5 C 15.882812 -17.65625 14.617188 -18.234375 13.015625 -18.234375 C 11.347656 -18.234375 10.070312 -17.675781 9.1875 -16.5625 C 8.3125 -15.445312 7.875 -13.691406 7.875 -11.296875 C 7.875 -8.921875 8.3125 -7.175781 9.1875 -6.0625 C 10.070312 -4.945312 11.347656 -4.390625 13.015625 -4.390625 Z M 13.015625 -4.390625 "/></g></g></g><g fill="#000000" fill-opacity="1"><g transform="translate(744.047129, 494.100427)"><g><path d="M 22.359375 -10.03125 L 7.8125 -10.03125 C 7.976562 -8.0625 8.539062 -6.628906 9.5 -5.734375 C 10.457031 -4.835938 11.757812 -4.390625 13.40625 -4.390625 C 14.707031 -4.390625 15.757812 -4.628906 16.5625 -5.109375 C 17.375 -5.597656 18.023438 -6.335938 18.515625 -7.328125 L 18.953125 -7.328125 L 22.71875 -4.90625 C 21.976562 -3.3125 20.863281 -2.019531 19.375 -1.03125 C 17.882812 -0.0507812 15.894531 0.4375 13.40625 0.4375 C 11.070312 0.4375 9.050781 -0.00390625 7.34375 -0.890625 C 5.644531 -1.785156 4.332031 -3.109375 3.40625 -4.859375 C 2.488281 -6.617188 2.03125 -8.765625 2.03125 -11.296875 C 2.03125 -13.867188 2.515625 -16.035156 3.484375 -17.796875 C 4.453125 -19.566406 5.765625 -20.882812 7.421875 -21.75 C 9.078125 -22.613281 10.9375 -23.046875 13 -23.046875 C 16.195312 -23.046875 18.644531 -22.195312 20.34375 -20.5 C 22.050781 -18.8125 22.90625 -16.328125 22.90625 -13.046875 C 22.90625 -11.859375 22.863281 -10.9375 22.78125 -10.28125 Z M 17.46875 -13.703125 C 17.414062 -15.421875 17.015625 -16.671875 16.265625 -17.453125 C 15.523438 -18.242188 14.4375 -18.640625 13 -18.640625 C 10.132812 -18.640625 8.445312 -16.992188 7.9375 -13.703125 Z M 17.46875 -13.703125 "/></g></g></g><g fill="#000000" fill-opacity="1"><g transform="translate(768.629129, 494.100427)"><g><path d="M 3.265625 0 L 3.265625 -22.625 L 8.78125 -22.625 L 8.78125 -19.25 L 9.203125 -19.171875 C 9.753906 -20.429688 10.472656 -21.351562 11.359375 -21.9375 C 12.242188 -22.53125 13.328125 -22.828125 14.609375 -22.828125 C 15.890625 -22.828125 16.863281 -22.609375 17.53125 -22.171875 L 16.578125 -17.265625 L 16.140625 -17.1875 C 15.773438 -17.332031 15.421875 -17.4375 15.078125 -17.5 C 14.734375 -17.570312 14.316406 -17.609375 13.828125 -17.609375 C 12.234375 -17.609375 11.019531 -17.050781 10.1875 -15.9375 C 9.351562 -14.832031 8.9375 -13.046875 8.9375 -10.578125 L 8.9375 0 Z M 3.265625 0 "/></g></g></g><g fill="#000000" fill-opacity="1"><g transform="translate(786.363442, 494.100427)"><g/></g></g><g fill="#000000" fill-opacity="1"><g transform="translate(796.265968, 494.100427)"><g><path d="M 13.1875 0.4375 C 11 0.4375 9.0625 -0.015625 7.375 -0.921875 C 5.695312 -1.835938 4.382812 -3.175781 3.4375 -4.9375 C 2.5 -6.707031 2.03125 -8.828125 2.03125 -11.296875 C 2.03125 -13.785156 2.5 -15.910156 3.4375 -17.671875 C 4.382812 -19.441406 5.691406 -20.78125 7.359375 -21.6875 C 9.023438 -22.59375 10.929688 -23.046875 13.078125 -23.046875 C 17.847656 -23.046875 20.90625 -21.316406 22.25 -17.859375 L 18.359375 -15.078125 L 17.921875 -15.078125 C 17.460938 -16.140625 16.859375 -16.929688 16.109375 -17.453125 C 15.359375 -17.972656 14.347656 -18.234375 13.078125 -18.234375 C 11.441406 -18.234375 10.164062 -17.664062 9.25 -16.53125 C 8.332031 -15.394531 7.875 -13.648438 7.875 -11.296875 C 7.875 -8.972656 8.335938 -7.238281 9.265625 -6.09375 C 10.203125 -4.957031 11.507812 -4.390625 13.1875 -4.390625 C 14.414062 -4.390625 15.457031 -4.71875 16.3125 -5.375 C 17.164062 -6.039062 17.78125 -7 18.15625 -8.25 L 18.578125 -8.28125 L 22.625 -6.078125 C 22.050781 -4.160156 20.988281 -2.59375 19.4375 -1.375 C 17.882812 -0.164062 15.800781 0.4375 13.1875 0.4375 Z M 13.1875 0.4375 "/></g></g></g><g fill="#000000" fill-opacity="1"><g transform="translate(819.57685, 494.100427)"><g><path d="M 13.140625 0.4375 C 10.929688 0.4375 8.988281 -0.015625 7.3125 -0.921875 C 5.632812 -1.835938 4.332031 -3.171875 3.40625 -4.921875 C 2.488281 -6.679688 2.03125 -8.804688 2.03125 -11.296875 C 2.03125 -13.785156 2.488281 -15.910156 3.40625 -17.671875 C 4.332031 -19.441406 5.632812 -20.78125 7.3125 -21.6875 C 8.988281 -22.59375 10.929688 -23.046875 13.140625 -23.046875 C 15.359375 -23.046875 17.304688 -22.59375 18.984375 -21.6875 C 20.660156 -20.78125 21.960938 -19.441406 22.890625 -17.671875 C 23.816406 -15.910156 24.28125 -13.785156 24.28125 -11.296875 C 24.28125 -8.804688 23.816406 -6.679688 22.890625 -4.921875 C 21.960938 -3.171875 20.660156 -1.835938 18.984375 -0.921875 C 17.304688 -0.015625 15.359375 0.4375 13.140625 0.4375 Z M 13.140625 -4.390625 C 16.660156 -4.390625 18.421875 -6.691406 18.421875 -11.296875 C 18.421875 -13.691406 17.96875 -15.445312 17.0625 -16.5625 C 16.15625 -17.675781 14.847656 -18.234375 13.140625 -18.234375 C 9.628906 -18.234375 7.875 -15.921875 7.875 -11.296875 C 7.875 -6.691406 9.628906 -4.390625 13.140625 -4.390625 Z M 13.140625 -4.390625 "/></g></g></g><g fill="#000000" fill-opacity="1"><g transform="translate(845.86054, 494.100427)"><g><path d="M 3.265625 0 L 3.265625 -22.625 L 8.71875 -22.625 L 8.71875 -19.296875 L 9.140625 -19.203125 C 10.554688 -21.765625 12.84375 -23.046875 16 -23.046875 C 18.601562 -23.046875 20.515625 -22.332031 21.734375 -20.90625 C 22.960938 -19.488281 23.578125 -17.421875 23.578125 -14.703125 L 23.578125 0 L 17.90625 0 L 17.90625 -14 C 17.90625 -15.507812 17.601562 -16.59375 17 -17.25 C 16.394531 -17.914062 15.429688 -18.25 14.109375 -18.25 C 12.484375 -18.25 11.210938 -17.722656 10.296875 -16.671875 C 9.390625 -15.617188 8.9375 -13.960938 8.9375 -11.703125 L 8.9375 0 Z M 3.265625 0 "/></g></g></g><g fill="#000000" fill-opacity="1"><g transform="translate(872.349262, 494.100427)"><g><path d="M 10.578125 0.4375 C 9.035156 0.4375 7.617188 0.253906 6.328125 -0.109375 C 5.046875 -0.472656 3.953125 -0.972656 3.046875 -1.609375 C 2.140625 -2.242188 1.46875 -2.972656 1.03125 -3.796875 L 4.1875 -7.203125 L 4.609375 -7.203125 C 5.367188 -6.191406 6.257812 -5.429688 7.28125 -4.921875 C 8.300781 -4.410156 9.414062 -4.15625 10.625 -4.15625 C 11.726562 -4.15625 12.5625 -4.351562 13.125 -4.75 C 13.6875 -5.15625 13.96875 -5.722656 13.96875 -6.453125 C 13.96875 -7.035156 13.765625 -7.519531 13.359375 -7.90625 C 12.953125 -8.289062 12.300781 -8.59375 11.40625 -8.8125 L 8.40625 -9.53125 C 6.164062 -10.070312 4.53125 -10.890625 3.5 -11.984375 C 2.46875 -13.085938 1.953125 -14.488281 1.953125 -16.1875 C 1.953125 -17.59375 2.3125 -18.8125 3.03125 -19.84375 C 3.75 -20.882812 4.757812 -21.675781 6.0625 -22.21875 C 7.363281 -22.769531 8.882812 -23.046875 10.625 -23.046875 C 12.65625 -23.046875 14.34375 -22.75 15.6875 -22.15625 C 17.03125 -21.570312 18.078125 -20.789062 18.828125 -19.8125 L 15.796875 -16.53125 L 15.375 -16.53125 C 14.75 -17.238281 14.039062 -17.753906 13.25 -18.078125 C 12.46875 -18.410156 11.59375 -18.578125 10.625 -18.578125 C 8.382812 -18.578125 7.265625 -17.878906 7.265625 -16.484375 C 7.265625 -15.898438 7.472656 -15.421875 7.890625 -15.046875 C 8.304688 -14.679688 9.039062 -14.382812 10.09375 -14.15625 L 12.875 -13.53125 C 15.175781 -13.039062 16.851562 -12.25 17.90625 -11.15625 C 18.96875 -10.070312 19.5 -8.613281 19.5 -6.78125 C 19.5 -5.351562 19.144531 -4.09375 18.4375 -3 C 17.726562 -1.90625 16.703125 -1.054688 15.359375 -0.453125 C 14.015625 0.140625 12.421875 0.4375 10.578125 0.4375 Z M 10.578125 0.4375 "/></g></g></g><g fill="#000000" fill-opacity="1"><g transform="translate(893.199893, 494.100427)"><g><path d="M 15.609375 -5.390625 L 17.078125 -1.1875 C 16.460938 -0.6875 15.691406 -0.289062 14.765625 0 C 13.835938 0.289062 12.785156 0.4375 11.609375 0.4375 C 9.160156 0.4375 7.300781 -0.226562 6.03125 -1.5625 C 4.757812 -2.894531 4.125 -4.835938 4.125 -7.390625 L 4.125 -18.125 L 0.671875 -18.125 L 0.671875 -22.640625 L 4.125 -22.640625 L 4.125 -27.046875 L 9.796875 -27.96875 L 9.796875 -22.640625 L 16.21875 -22.640625 L 16.21875 -18.125 L 9.796875 -18.125 L 9.796875 -7.796875 C 9.796875 -6.671875 10.03125 -5.851562 10.5 -5.34375 C 10.96875 -4.832031 11.644531 -4.578125 12.53125 -4.578125 C 13.539062 -4.578125 14.421875 -4.847656 15.171875 -5.390625 Z M 15.609375 -5.390625 "/></g></g></g><g fill="#000000" fill-opacity="1"><g transform="translate(910.770189, 494.100427)"><g><path d="M 3.265625 0 L 3.265625 -22.625 L 8.78125 -22.625 L 8.78125 -19.25 L 9.203125 -19.171875 C 9.753906 -20.429688 10.472656 -21.351562 11.359375 -21.9375 C 12.242188 -22.53125 13.328125 -22.828125 14.609375 -22.828125 C 15.890625 -22.828125 16.863281 -22.609375 17.53125 -22.171875 L 16.578125 -17.265625 L 16.140625 -17.1875 C 15.773438 -17.332031 15.421875 -17.4375 15.078125 -17.5 C 14.734375 -17.570312 14.316406 -17.609375 13.828125 -17.609375 C 12.234375 -17.609375 11.019531 -17.050781 10.1875 -15.9375 C 9.351562 -14.832031 8.9375 -13.046875 8.9375 -10.578125 L 8.9375 0 Z M 3.265625 0 "/></g></g></g><g fill="#000000" fill-opacity="1"><g transform="translate(928.504502, 494.100427)"><g><path d="M 10.359375 0.4375 C 7.816406 0.4375 5.9375 -0.253906 4.71875 -1.640625 C 3.507812 -3.035156 2.90625 -5.03125 2.90625 -7.625 L 2.90625 -22.625 L 8.59375 -22.625 L 8.59375 -8.34375 C 8.59375 -6.96875 8.890625 -5.960938 9.484375 -5.328125 C 10.078125 -4.691406 11 -4.375 12.25 -4.375 C 13.820312 -4.375 15.046875 -4.890625 15.921875 -5.921875 C 16.796875 -6.953125 17.234375 -8.570312 17.234375 -10.78125 L 17.234375 -22.625 L 22.90625 -22.625 L 22.90625 0 L 17.453125 0 L 17.453125 -3.328125 L 17.015625 -3.421875 C 16.296875 -2.128906 15.410156 -1.160156 14.359375 -0.515625 C 13.316406 0.117188 11.984375 0.4375 10.359375 0.4375 Z M 10.359375 0.4375 "/></g></g></g><g fill="#000000" fill-opacity="1"><g transform="translate(954.665145, 494.100427)"><g><path d="M 13.1875 0.4375 C 11 0.4375 9.0625 -0.015625 7.375 -0.921875 C 5.695312 -1.835938 4.382812 -3.175781 3.4375 -4.9375 C 2.5 -6.707031 2.03125 -8.828125 2.03125 -11.296875 C 2.03125 -13.785156 2.5 -15.910156 3.4375 -17.671875 C 4.382812 -19.441406 5.691406 -20.78125 7.359375 -21.6875 C 9.023438 -22.59375 10.929688 -23.046875 13.078125 -23.046875 C 17.847656 -23.046875 20.90625 -21.316406 22.25 -17.859375 L 18.359375 -15.078125 L 17.921875 -15.078125 C 17.460938 -16.140625 16.859375 -16.929688 16.109375 -17.453125 C 15.359375 -17.972656 14.347656 -18.234375 13.078125 -18.234375 C 11.441406 -18.234375 10.164062 -17.664062 9.25 -16.53125 C 8.332031 -15.394531 7.875 -13.648438 7.875 -11.296875 C 7.875 -8.972656 8.335938 -7.238281 9.265625 -6.09375 C 10.203125 -4.957031 11.507812 -4.390625 13.1875 -4.390625 C 14.414062 -4.390625 15.457031 -4.71875 16.3125 -5.375 C 17.164062 -6.039062 17.78125 -7 18.15625 -8.25 L 18.578125 -8.28125 L 22.625 -6.078125 C 22.050781 -4.160156 20.988281 -2.59375 19.4375 -1.375 C 17.882812 -0.164062 15.800781 0.4375 13.1875 0.4375 Z M 13.1875 0.4375 "/></g></g></g><g fill="#000000" fill-opacity="1"><g transform="translate(977.976027, 494.100427)"><g><path d="M 15.609375 -5.390625 L 17.078125 -1.1875 C 16.460938 -0.6875 15.691406 -0.289062 14.765625 0 C 13.835938 0.289062 12.785156 0.4375 11.609375 0.4375 C 9.160156 0.4375 7.300781 -0.226562 6.03125 -1.5625 C 4.757812 -2.894531 4.125 -4.835938 4.125 -7.390625 L 4.125 -18.125 L 0.671875 -18.125 L 0.671875 -22.640625 L 4.125 -22.640625 L 4.125 -27.046875 L 9.796875 -27.96875 L 9.796875 -22.640625 L 16.21875 -22.640625 L 16.21875 -18.125 L 9.796875 -18.125 L 9.796875 -7.796875 C 9.796875 -6.671875 10.03125 -5.851562 10.5 -5.34375 C 10.96875 -4.832031 11.644531 -4.578125 12.53125 -4.578125 C 13.539062 -4.578125 14.421875 -4.847656 15.171875 -5.390625 Z M 15.609375 -5.390625 "/></g></g></g><g fill="#000000" fill-opacity="1"><g transform="translate(995.546323, 494.100427)"><g><path d="M 6.09375 -25.328125 C 5.0625 -25.328125 4.222656 -25.632812 3.578125 -26.25 C 2.941406 -26.875 2.625 -27.679688 2.625 -28.671875 C 2.625 -29.640625 2.941406 -30.4375 3.578125 -31.0625 C 4.222656 -31.6875 5.0625 -32 6.09375 -32 C 6.769531 -32 7.375 -31.851562 7.90625 -31.5625 C 8.445312 -31.269531 8.863281 -30.875 9.15625 -30.375 C 9.445312 -29.882812 9.59375 -29.316406 9.59375 -28.671875 C 9.59375 -28.023438 9.445312 -27.445312 9.15625 -26.9375 C 8.863281 -26.4375 8.445312 -26.039062 7.90625 -25.75 C 7.375 -25.46875 6.769531 -25.328125 6.09375 -25.328125 Z M 3.265625 0 L 3.265625 -22.625 L 8.9375 -22.625 L 8.9375 0 Z M 3.265625 0 "/></g></g></g><g fill="#000000" fill-opacity="1"><g transform="translate(1007.724575, 494.100427)"><g><path d="M 13.140625 0.4375 C 10.929688 0.4375 8.988281 -0.015625 7.3125 -0.921875 C 5.632812 -1.835938 4.332031 -3.171875 3.40625 -4.921875 C 2.488281 -6.679688 2.03125 -8.804688 2.03125 -11.296875 C 2.03125 -13.785156 2.488281 -15.910156 3.40625 -17.671875 C 4.332031 -19.441406 5.632812 -20.78125 7.3125 -21.6875 C 8.988281 -22.59375 10.929688 -23.046875 13.140625 -23.046875 C 15.359375 -23.046875 17.304688 -22.59375 18.984375 -21.6875 C 20.660156 -20.78125 21.960938 -19.441406 22.890625 -17.671875 C 23.816406 -15.910156 24.28125 -13.785156 24.28125 -11.296875 C 24.28125 -8.804688 23.816406 -6.679688 22.890625 -4.921875 C 21.960938 -3.171875 20.660156 -1.835938 18.984375 -0.921875 C 17.304688 -0.015625 15.359375 0.4375 13.140625 0.4375 Z M 13.140625 -4.390625 C 16.660156 -4.390625 18.421875 -6.691406 18.421875 -11.296875 C 18.421875 -13.691406 17.96875 -15.445312 17.0625 -16.5625 C 16.15625 -17.675781 14.847656 -18.234375 13.140625 -18.234375 C 9.628906 -18.234375 7.875 -15.921875 7.875 -11.296875 C 7.875 -6.691406 9.628906 -4.390625 13.140625 -4.390625 Z M 13.140625 -4.390625 "/></g></g></g><g fill="#000000" fill-opacity="1"><g transform="translate(1034.008266, 494.100427)"><g><path d="M 3.265625 0 L 3.265625 -22.625 L 8.71875 -22.625 L 8.71875 -19.296875 L 9.140625 -19.203125 C 10.554688 -21.765625 12.84375 -23.046875 16 -23.046875 C 18.601562 -23.046875 20.515625 -22.332031 21.734375 -20.90625 C 22.960938 -19.488281 23.578125 -17.421875 23.578125 -14.703125 L 23.578125 0 L 17.90625 0 L 17.90625 -14 C 17.90625 -15.507812 17.601562 -16.59375 17 -17.25 C 16.394531 -17.914062 15.429688 -18.25 14.109375 -18.25 C 12.484375 -18.25 11.210938 -17.722656 10.296875 -16.671875 C 9.390625 -15.617188 8.9375 -13.960938 8.9375 -11.703125 L 8.9375 0 Z M 3.265625 0 "/></g></g></g></svg>