<svg width="303" height="232" viewBox="0 0 303 232" fill="none" xmlns="http://www.w3.org/2000/svg">
<path d="M295.529 33.083C296.347 35.2815 292.165 51.6255 278.97 72.2805C253.124 112.741 210.856 140.078 167.48 151.301C152.224 155.248 136.42 157.791 120.745 156.363C108.653 155.264 93.6976 152.354 84.0312 143.563C84.0312 143.563 125.818 201.878 222.854 174.319C336.245 142.124 295.529 33.0869 295.529 33.083Z" fill="#DB4444"/>
<path d="M155.868 217.758C163.416 210.21 163.416 197.971 155.868 190.423C148.319 182.875 136.081 182.875 128.533 190.423C120.984 197.971 120.984 210.21 128.533 217.758C136.081 225.306 148.319 225.306 155.868 217.758Z" fill="#020202"/>
<path d="M244.219 217.758C251.768 210.21 251.768 197.971 244.219 190.423C236.671 182.874 224.433 182.874 216.884 190.423C209.336 197.971 209.336 210.21 216.884 217.758C224.433 225.306 236.671 225.306 244.219 217.758Z" fill="#020202"/>
<path d="M0 2.9104C0 2.9104 32.8953 11.2545 42.8003 49.1767C52.142 84.9473 54.1136 125.357 106.721 146.345C159.329 167.332 195.131 132.446 195.131 132.446C195.131 132.446 156.168 151.027 122.944 109.178C87.7874 64.8713 101.374 6.88882 0 2.9104Z" fill="#020202"/>
<path d="M236.28 101.104C239.276 99.437 241.596 92.0709 242.687 89.0352C244.215 84.6717 245.236 80.1473 245.731 75.5508C248.035 55.7331 243.227 36.1813 235.998 17.8344L247.796 19.7903C253.766 20.7839 259.923 21.8402 265.056 25.0206C279.33 33.8341 271.949 54.5047 266.699 66.8194C260.534 81.2662 250.046 93.4557 236.28 101.104Z" fill="#020202"/>
<path d="M193.346 13.0189C193.346 17.0534 192.012 20.3876 189.345 23.0217C186.677 25.6557 183.165 26.9792 178.81 26.9923C174.457 26.9923 170.947 25.7 168.279 23.1155C166.977 21.8814 165.948 20.3881 165.258 18.732C164.568 17.0759 164.232 15.2937 164.273 13.5C164.231 11.7051 164.566 9.92127 165.256 8.2637C165.946 6.60613 166.976 5.11165 168.279 3.87671C170.952 1.29224 174.462 0 178.81 0C183.063 0 186.55 1.214 189.27 3.642C191.99 6.07 193.349 9.19562 193.346 13.0189Z" fill="#DB4444"/>
<path d="M191.833 35.528V104.057C191.825 108.002 190.253 111.783 187.461 114.57C184.669 117.357 180.885 118.922 176.94 118.922H165.783V50.4245C165.783 46.4737 167.353 42.6847 170.146 39.8911C172.94 37.0974 176.729 35.528 180.68 35.528H191.833Z" fill="#DB4444"/>
</svg>
