<svg width="2458" height="498" viewBox="0 0 2458 498" fill="none" xmlns="http://www.w3.org/2000/svg">
<path fill-rule="evenodd" clip-rule="evenodd" d="M196.513 17.2238C173.441 -5.78568 136.084 -5.73466 113.075 17.3377L102.843 27.5974L168.755 93.3299L9.31809 257.624C-3.37445 270.703 -3.061 291.595 10.0182 304.288L199.085 487.765C212.164 500.458 233.056 500.144 245.749 487.065L430.292 296.9C442.985 283.821 442.671 262.929 429.592 250.236L402.134 223.59L402.149 223.575L393.249 214.864L393.197 214.917L280.115 105.178L280.125 105.168L271.226 96.4568L271.179 96.5052L270.698 96.0388L332.852 34.0547L322.62 23.795C299.61 0.722639 262.254 0.671623 239.181 23.6811L221.085 41.7283L196.513 17.2238ZM271.179 96.5052L114.999 256.065L123.898 264.776L280.115 105.178L271.179 96.5052ZM393.197 214.917L236.292 375.218L245.191 383.929L402.134 223.59L393.197 214.917ZM341.322 164.67L332.423 155.959L176.359 315.4L185.258 324.111L341.322 164.67Z" fill="#2F2F2F"/>
<path fill-rule="evenodd" clip-rule="evenodd" d="M668.152 147H544V351.991H670.152C702.737 351.991 729.152 325.576 729.152 292.991V208C729.152 174.311 701.842 147 668.152 147ZM588.635 189.982H626.506C659.458 189.982 686.171 216.695 686.171 249.647C686.171 281.519 660.333 307.356 628.462 307.356H588.635V189.982ZM544 189.982H588.635V219.739H544V189.982Z" fill="#2F2F2F"/>
<path fill-rule="evenodd" clip-rule="evenodd" d="M942.129 167.659L942.1 148.653L769.65 148.91L769.717 193.392L889.473 193.213C886.005 198.459 881.746 203.227 876.792 207.346C864.717 217.385 849.316 222.9 833.322 222.942L832.07 222.934C832.026 222.934 831.981 222.933 831.937 222.932L831.937 222.933L815.482 222.829L815.483 222.806L771.007 222.066L768.828 353.125L813.303 353.865L814.772 265.539L831.784 265.647L831.784 265.741C841.665 265.91 851.429 264.813 860.839 262.531L915.994 352.521H965.704L900.628 244.087C902.409 242.781 904.152 241.419 905.856 240.003C926.37 222.948 941.582 192.462 942.409 167.664L942.129 167.659Z" fill="#2F2F2F"/>
<path fill-rule="evenodd" clip-rule="evenodd" d="M1165.58 150.306H983.738V193.288H1165.58V150.306ZM1147.4 223.045H983.738V266.027H984.537L984.134 353.639L1027.11 353.837L1027.12 353.379L1165.62 353.972L1165.81 310.991L1027.32 310.397L1027.52 266.027H1147.4V223.045Z" fill="#2F2F2F"/>
<path fill-rule="evenodd" clip-rule="evenodd" d="M2266.58 150.306H2084.74V193.288H2266.58V150.306ZM2248.4 223.045H2084.74V266.027H2085.54L2085.13 353.639L2128.11 353.837L2128.12 353.379L2266.62 353.972L2266.81 310.991L2128.31 310.397L2128.52 266.027H2248.4V223.045Z" fill="#2F2F2F"/>
<path fill-rule="evenodd" clip-rule="evenodd" d="M1300.94 150.306L1278.76 192.462L1369.69 355.656H1368.72L1382.7 379L1369.69 355.656L1424.59 355.657L1310.17 150.306L1300.94 150.306ZM1289.17 271.813L1262 220.556L1187.08 354.638H1242.88L1289.17 271.813Z" fill="#2F2F2F"/>
<path fill-rule="evenodd" clip-rule="evenodd" d="M1619.38 148.653L1587.16 181.217L1587.16 181.65L1538.23 229.553L1482.47 173.347L1482.44 173.38L1458.02 148.715L1446.73 148.715L1446.62 352.077L1490.15 352.101L1490.21 240.807L1538.83 289.809L1568.65 260.217L1567.82 259.381L1587.19 240.421L1587.25 352.101L1630.78 352.077L1630.67 148.653L1619.38 148.653Z" fill="#2F2F2F"/>
<path fill-rule="evenodd" clip-rule="evenodd" d="M1929.34 150.306H1967.36H2001.25L2001.28 150.568C2015.62 151.854 2029.13 157.914 2039.48 167.809C2051.08 178.905 2057.8 193.958 2058.22 209.798L2016.33 210.919C2016.19 205.646 2013.95 200.635 2010.09 196.942C2008.53 195.454 2006.76 194.226 2004.85 193.288H1936.62L1936.63 193.399C1931.89 193.641 1927.42 195.644 1924.14 198.994C1920.87 202.344 1919.03 206.788 1919.02 211.414C1919 216.039 1920.81 220.495 1924.06 223.866C1927.31 227.237 1931.77 229.267 1936.51 229.54L1936.49 229.816L1995.82 231.135L1995.85 230.484C2011.89 230.978 2027.13 237.435 2038.42 248.529C2049.71 259.624 2056.21 274.514 2056.58 290.141C2056.94 305.769 2051.15 320.948 2040.39 332.562C2031.14 342.543 2018.82 349.24 2005.38 351.719V351.991H2003.8C2002.12 352.258 2000.42 352.46 1998.7 352.593L1998.66 351.991L1935.95 351.991L1929.34 351.991V351.595C1915.44 350.373 1902.24 346.522 1892.47 336.679C1881.16 325.284 1874.84 310.061 1874.83 294.216L1916.74 294.187C1916.74 299.462 1918.85 304.529 1922.61 308.322C1924.83 308.892 1927.1 309.339 1929.34 309.684V309.009H1998.91C2002.22 308.077 2005.22 306.262 2007.57 303.736C2010.75 300.299 2012.46 295.808 2012.36 291.183C2012.25 286.559 2010.33 282.153 2006.98 278.87C2006.29 278.187 2005.71 277.482 2005.14 276.794C2003.73 275.092 2002.41 273.495 1999.68 272.577L1933.94 271.863L1933.9 272.533C1917.87 271.61 1902.82 264.748 1891.82 253.355C1880.83 241.963 1874.73 226.904 1874.79 211.273C1874.84 195.641 1881.04 180.622 1892.11 169.3C1902.02 159.155 1915.18 152.668 1929.34 150.838V150.306Z" fill="#2F2F2F"/>
<path fill-rule="evenodd" clip-rule="evenodd" d="M1716.08 148.653H1754.11H1788L1788.02 148.915C1802.37 150.201 1815.87 156.261 1826.22 166.156C1837.82 177.252 1844.54 192.305 1844.97 208.145L1803.07 209.266C1802.93 203.993 1800.7 198.982 1796.83 195.289C1795.28 193.801 1793.51 192.573 1791.59 191.635H1723.37L1723.37 191.746C1718.63 191.988 1714.16 193.991 1710.89 197.341C1707.61 200.691 1705.78 205.135 1705.76 209.761C1705.75 214.386 1707.55 218.842 1710.8 222.213C1714.05 225.584 1718.51 227.614 1723.25 227.887L1723.23 228.163L1782.56 229.482L1782.59 228.831C1798.64 229.325 1813.87 235.782 1825.16 246.876C1836.46 257.971 1842.95 272.86 1843.32 288.488C1843.68 304.116 1837.89 319.295 1827.13 330.909C1817.88 340.89 1805.57 347.587 1792.13 350.066V350.338H1790.55C1788.86 350.605 1787.16 350.807 1785.45 350.94L1785.4 350.338L1722.7 350.338L1716.08 350.338V349.942C1702.19 348.72 1688.98 344.869 1679.22 335.026C1667.91 323.631 1661.58 308.408 1661.57 292.563L1703.48 292.534C1703.48 297.809 1705.59 302.876 1709.35 306.669C1711.58 307.239 1713.84 307.686 1716.08 308.031V307.356H1785.65C1788.96 306.424 1791.97 304.609 1794.31 302.083C1797.49 298.646 1799.21 294.154 1799.1 289.53C1798.99 284.906 1797.07 280.5 1793.73 277.217C1793.03 276.534 1792.45 275.829 1791.88 275.141C1790.47 273.439 1789.15 271.841 1786.42 270.924L1720.68 270.21L1720.64 270.88C1704.61 269.957 1689.56 263.095 1678.57 251.702C1667.57 240.31 1661.48 225.251 1661.53 209.62C1661.58 193.988 1667.78 178.969 1678.85 167.647C1688.77 157.502 1701.92 151.015 1716.08 149.185V148.653Z" fill="#2F2F2F"/>
<path fill-rule="evenodd" clip-rule="evenodd" d="M2340.97 148.653H2296.34V351.991H2296.98L2296.98 352.648L2457.49 352.788L2457.53 310.611L2340.97 310.51V148.653Z" fill="#2F2F2F"/>
</svg>
