<svg width="26" height="29" viewBox="0 0 26 29" fill="none" xmlns="http://www.w3.org/2000/svg">
<g filter="url(#filter0_d_35_243)">
<path d="M21 20L17.2223 16.2156M19.3158 11.1579C19.3158 13.0563 18.5617 14.8769 17.2193 16.2193C15.8769 17.5617 14.0563 18.3158 12.1579 18.3158C10.2595 18.3158 8.43886 17.5617 7.0965 16.2193C5.75413 14.8769 5 13.0563 5 11.1579C5 9.2595 5.75413 7.43886 7.0965 6.0965C8.43886 4.75413 10.2595 4 12.1579 4C14.0563 4 15.8769 4.75413 17.2193 6.0965C18.5617 7.43886 19.3158 9.2595 19.3158 11.1579V11.1579Z" stroke="black" stroke-width="1.5" stroke-linecap="round"/>
</g>
<defs>
<filter id="filter0_d_35_243" x="-3" y="0" width="32" height="32" filterUnits="userSpaceOnUse" color-interpolation-filters="sRGB">
<feFlood flood-opacity="0" result="BackgroundImageFix"/>
<feColorMatrix in="SourceAlpha" type="matrix" values="0 0 0 0 0 0 0 0 0 0 0 0 0 0 0 0 0 0 127 0" result="hardAlpha"/>
<feOffset dy="4"/>
<feGaussianBlur stdDeviation="2"/>
<feComposite in2="hardAlpha" operator="out"/>
<feColorMatrix type="matrix" values="0 0 0 0 0 0 0 0 0 0 0 0 0 0 0 0 0 0 0.25 0"/>
<feBlend mode="normal" in2="BackgroundImageFix" result="effect1_dropShadow_35_243"/>
<feBlend mode="normal" in="SourceGraphic" in2="effect1_dropShadow_35_243" result="shape"/>
</filter>
</defs>
</svg>
