<svg width="628" height="712" viewBox="0 0 628 712" fill="none" xmlns="http://www.w3.org/2000/svg">
<path fill-rule="evenodd" clip-rule="evenodd" d="M264.136 17.2238C241.064 -5.78568 203.707 -5.73466 180.698 17.3377L149.627 48.4929L242.007 140.621L9.31809 380.398C-3.37445 393.477 -3.061 414.37 10.0182 427.062L294.026 702.674C307.105 715.367 327.997 715.053 340.689 701.974L617.796 416.427C630.488 403.348 630.175 382.455 617.096 369.763L569.102 323.188L569.122 323.167L556.649 310.958L556.576 311.033L398.085 157.227L398.099 157.212L385.626 145.003L385.56 145.071L384.886 144.418L471.998 57.5432L440.928 26.388C417.918 3.31563 380.562 3.26461 357.489 26.2741L315.35 68.2981L264.136 17.2238ZM385.56 145.071L166.664 368.703L179.137 380.912L398.085 157.227L385.56 145.071ZM556.576 311.033L336.664 535.703L349.137 547.912L569.102 323.188L556.576 311.033ZM483.87 240.608L471.397 228.399L252.664 451.866L265.137 464.074L483.87 240.608Z" fill="#2F2F2F"/>
</svg>
