<svg width="1158" height="975" viewBox="0 0 1158 975" fill="none" xmlns="http://www.w3.org/2000/svg">
<path fill-rule="evenodd" clip-rule="evenodd" d="M530.136 17.2238C507.064 -5.78568 469.707 -5.73466 446.698 17.3377L415.627 48.4929L508.007 140.621L275.318 380.398C262.626 393.477 262.939 414.37 276.018 427.062L560.026 702.674C573.105 715.366 593.997 715.053 606.689 701.974L883.796 416.427C896.488 403.348 896.175 382.455 883.096 369.763L835.102 323.188L835.122 323.167L822.649 310.958L822.576 311.033L664.085 157.227L664.099 157.212L651.626 145.003L651.56 145.071L650.886 144.418L737.998 57.5432L706.928 26.388C683.918 3.31563 646.562 3.26461 623.489 26.2741L581.35 68.2981L530.136 17.2238ZM651.56 145.071L432.664 368.703L445.137 380.912L664.085 157.227L651.56 145.071ZM822.576 311.033L602.664 535.703L615.137 547.912L835.102 323.188L822.576 311.033ZM749.87 240.608L737.397 228.399L518.664 451.866L531.137 464.074L749.87 240.608Z" fill="black"/>
<path fill-rule="evenodd" clip-rule="evenodd" d="M51 834H0V860H27H49.9083C69.8412 860 86 876.159 86 896.092C86 915.371 70.371 931 51.0917 931H27V878H0V958H53C85.5848 958 112 931.585 112 899V895C112 861.311 84.6894 834 51 834Z" fill="black"/>
<path fill-rule="evenodd" clip-rule="evenodd" d="M240.83 846.497L240.813 835L136.497 835.156L136.537 862.063L208.979 861.955C206.881 865.128 204.305 868.012 201.308 870.504C194.001 876.579 184.68 879.915 175.002 879.938L174.266 879.933C174.236 879.933 174.205 879.932 174.175 879.932L174.175 879.933L164.222 879.87L164.222 879.855L137.319 879.408L136 958.686L162.903 959.134L163.792 905.705L174.083 905.77L174.082 905.827C180.06 905.929 185.966 905.266 191.658 903.885L225.021 958.32L255.091 958.32L215.726 892.729C216.804 891.938 217.858 891.115 218.889 890.258C231.298 879.941 240.5 861.5 241 846.5L240.83 846.497Z" fill="black"/>
<path fill-rule="evenodd" clip-rule="evenodd" d="M376 836H266V862H376V836ZM365 880H266V906H266.483L266.239 958.997L292.239 959.117L292.24 958.84L376.023 959.199L376.135 933.199L292.36 932.84L292.484 906H365V880Z" fill="black"/>
<path fill-rule="evenodd" clip-rule="evenodd" d="M1042 836H932V862H1042V836ZM1031 880H932V906H932.483L932.239 958.997L958.239 959.117L958.24 958.84L1042.02 959.199L1042.13 933.199L958.36 932.84L958.484 906H1031V880Z" fill="black"/>
<path fill-rule="evenodd" clip-rule="evenodd" d="M457.878 836L444.459 861.5L499.467 960.217H498.878L507.335 974.338L499.467 960.217L532.676 960.218L463.459 836L457.878 836ZM450.755 909.5L434.324 878.495L389 959.601L422.758 959.601L450.755 909.5Z" fill="black"/>
<path fill-rule="evenodd" clip-rule="evenodd" d="M650.503 835L631.012 854.698L631.012 854.96L601.417 883.937L567.685 849.937L567.665 849.957L552.898 835.037L546.068 835.037L546 958.052L572.331 958.067L572.368 890.744L601.777 920.386L619.819 902.486L619.318 901.98L631.032 890.511L631.069 958.067L657.4 958.052L657.332 835L650.503 835Z" fill="black"/>
<path fill-rule="evenodd" clip-rule="evenodd" d="M838 836H861H881.5L881.515 836.158C890.192 836.936 898.364 840.602 904.623 846.588C911.641 853.299 915.706 862.405 915.963 871.987L890.621 872.665C890.535 869.475 889.182 866.444 886.846 864.21C885.905 863.31 884.834 862.567 883.676 862H842.406L842.41 862.067C839.54 862.214 836.837 863.425 834.856 865.451C832.874 867.478 831.765 870.166 831.756 872.964C831.746 875.762 832.838 878.457 834.805 880.497C836.773 882.536 839.468 883.764 842.336 883.929L842.326 884.096L878.212 884.894L878.231 884.5C887.937 884.799 897.152 888.705 903.983 895.416C910.815 902.127 914.744 911.134 914.966 920.587C915.187 930.04 911.682 939.222 905.172 946.248C899.578 952.285 892.129 956.336 884 957.836V958H883.043C882.024 958.162 880.995 958.284 879.959 958.365L879.93 958H842H838V957.761C829.593 957.021 821.608 954.692 815.699 948.738C808.858 941.845 805.032 932.637 805.025 923.052L830.376 923.034C830.378 926.225 831.652 929.29 833.929 931.585C835.275 931.93 836.643 932.2 838 932.409V932H880.084C882.086 931.437 883.903 930.339 885.319 928.81C887.246 926.731 888.283 924.015 888.217 921.217C888.152 918.42 886.989 915.755 884.968 913.769C884.547 913.356 884.194 912.929 883.85 912.513C882.999 911.484 882.199 910.517 880.547 909.962L840.781 909.53L840.756 909.935C831.062 909.377 821.955 905.226 815.305 898.335C808.656 891.443 804.968 882.335 805 872.879C805.032 863.423 808.781 854.338 815.476 847.489C821.476 841.353 829.434 837.428 838 836.322V836Z" fill="black"/>
<path fill-rule="evenodd" clip-rule="evenodd" d="M709 835H732H752.5L752.515 835.158C761.192 835.936 769.364 839.602 775.623 845.588C782.641 852.299 786.706 861.405 786.963 870.987L761.621 871.665C761.535 868.475 760.182 865.444 757.846 863.21C756.905 862.31 755.834 861.567 754.676 861H713.406L713.41 861.067C710.54 861.214 707.837 862.425 705.856 864.451C703.874 866.478 702.765 869.166 702.756 871.964C702.746 874.762 703.838 877.457 705.805 879.497C707.773 881.536 710.468 882.764 713.336 882.929L713.326 883.096L749.212 883.894L749.231 883.5C758.937 883.799 768.152 887.705 774.983 894.416C781.815 901.127 785.744 910.134 785.966 919.587C786.187 929.04 782.682 938.222 776.172 945.248C770.578 951.285 763.129 955.336 755 956.836V957H754.043C753.024 957.162 751.995 957.284 750.959 957.365L750.93 957H713H709V956.761C700.593 956.021 692.608 953.692 686.699 947.738C679.858 940.845 676.032 931.637 676.025 922.052L701.376 922.034C701.378 925.225 702.652 928.29 704.929 930.585C706.275 930.93 707.643 931.2 709 931.409V931H751.084C753.086 930.437 754.903 929.339 756.319 927.81C758.246 925.731 759.283 923.015 759.217 920.217C759.152 917.42 757.989 914.755 755.968 912.769C755.547 912.356 755.194 911.929 754.85 911.513C753.999 910.484 753.199 909.517 751.547 908.962L711.781 908.53L711.756 908.935C702.062 908.377 692.955 904.226 686.305 897.335C679.656 890.443 675.968 881.335 676 871.879C676.032 862.423 679.781 853.338 686.476 846.489C692.476 840.353 700.434 836.428 709 835.322V835Z" fill="black"/>
<path fill-rule="evenodd" clip-rule="evenodd" d="M1087 835H1060V958H1060.39L1060.39 958.398L1157.48 958.482L1157.5 932.969L1087 932.908V835Z" fill="black"/>
</svg>
