<svg width="1175" height="232" viewBox="0 0 1175 232" fill="none" xmlns="http://www.w3.org/2000/svg">
<path d="M362 167.522C361.32 166.712 361 165.282 361 163.232V59.3719C361 57.3719 361.33 55.9019 362 55.0919C362.67 54.2819 363.94 53.8719 365.8 53.8719H403.87C413.29 53.8719 420.823 56.5886 426.47 62.0219C432.117 67.4553 434.96 74.9853 435 84.6119C435 90.4386 434.097 95.292 432.29 99.172C430.453 103.097 427.527 106.412 423.86 108.722V109.202C433.86 113.955 438.86 123.289 438.86 137.202C438.86 147.202 435.973 154.965 430.2 160.492C424.427 166.019 416.527 168.765 406.5 168.732H365.8C363.94 168.732 362.68 168.332 362 167.522ZM403.4 101.922C407.4 101.922 410.497 100.682 412.69 98.202C414.883 95.722 415.987 91.9953 416 87.0219C416 82.1619 414.89 78.5219 412.67 76.1019C410.45 73.6819 407.327 72.4686 403.3 72.4619H380.35V101.922H403.4ZM405.72 150.132C409.953 150.132 413.307 148.799 415.78 146.132C418.253 143.465 419.493 139.662 419.5 134.722C419.5 129.655 418.26 125.772 415.78 123.072C414.489 121.722 412.922 120.665 411.186 119.975C409.45 119.285 407.586 118.977 405.72 119.072H380.35V150.132H405.72Z" fill="#020202"/>
<path d="M460.289 167.522C459.619 166.712 459.289 165.282 459.289 163.232V59.3719C459.289 57.3719 459.629 55.9019 460.289 55.0919C460.949 54.2819 462.219 53.8719 464.079 53.8719H496.429C509.636 53.8719 519.852 57.6486 527.079 65.2019C534.306 72.7553 537.916 83.2153 537.909 96.582V126.022C537.909 139.389 534.299 149.849 527.079 157.402C519.859 164.955 509.642 168.729 496.429 168.722H464.079C462.219 168.732 460.999 168.332 460.289 167.522ZM496.889 149.812C504.009 149.812 509.402 147.812 513.069 143.812C516.736 139.812 518.566 133.935 518.559 126.182V96.422C518.559 88.662 516.729 82.7853 513.069 78.7919C509.409 74.7986 504.016 72.7986 496.889 72.7919H478.629V149.792L496.889 149.812Z" fill="#020202"/>
<path d="M596.65 167.682C595.87 166.982 595.48 165.649 595.48 163.682V58.732C595.48 56.792 595.84 55.492 596.57 54.842C597.544 54.1048 598.753 53.7491 599.97 53.842H610.65C611.799 53.756 612.938 54.1139 613.83 54.842C614.5 55.492 614.83 56.792 614.83 58.732V163.732C614.83 165.672 614.44 166.992 613.67 167.732C612.676 168.488 611.435 168.845 610.19 168.732H600C598.79 168.825 597.591 168.449 596.65 167.682Z" fill="#020202"/>
<path d="M638.51 167.602C637.779 166.447 637.452 165.083 637.58 163.722V97.232C637.457 95.2667 637.8 93.3002 638.58 91.492C639.624 89.9381 641.107 88.7302 642.84 88.022C650.993 84.3487 660.28 82.5153 670.7 82.522C680.613 82.522 687.966 85.3253 692.76 90.932C697.553 96.5387 699.966 104.569 700 115.022V163.722C700.127 165.083 699.8 166.447 699.07 167.602C698.45 168.362 697.31 168.732 695.66 168.732H686.38C684.73 168.732 683.59 168.362 682.97 167.602C682.239 166.447 681.912 165.083 682.04 163.722V115.512C682.04 110.232 680.83 106.269 678.41 103.622C675.99 100.975 672.61 99.642 668.27 99.622C666.114 99.6288 663.964 99.8431 661.85 100.262C660.029 100.586 658.242 101.075 656.51 101.722C656.229 101.89 655.996 102.127 655.833 102.411C655.67 102.694 655.583 103.015 655.58 103.342V163.722C655.715 165.093 655.361 166.467 654.58 167.602C654.113 168.026 653.561 168.345 652.961 168.54C652.361 168.735 651.727 168.8 651.1 168.732H641.97C640.26 168.732 639.13 168.362 638.51 167.602Z" fill="#020202"/>
<path d="M726.111 162.752C720.951 157.139 718.374 149.102 718.381 138.642V115.022C718.381 104.669 721.114 96.6686 726.581 91.022C732.048 85.3753 740.188 82.5386 751.001 82.512C758.954 82.512 765.458 84.4253 770.511 88.252C775.583 92.1116 779.23 97.5458 780.881 103.702C781.164 104.647 781.319 105.626 781.341 106.612C781.341 108.612 780.151 110.072 777.781 110.822L771.121 113.082C770.331 113.385 769.496 113.55 768.651 113.572C768.225 113.585 767.801 113.502 767.412 113.328C767.022 113.155 766.677 112.897 766.401 112.572C765.685 111.648 765.137 110.605 764.781 109.492C763.939 106.387 762.153 103.619 759.671 101.572C757.401 99.842 754.301 98.982 750.391 98.982C740.991 98.982 736.294 104.265 736.301 114.832V138.832C736.301 143.899 737.461 147.805 739.781 150.552C742.101 153.299 745.534 154.675 750.081 154.682C753.891 154.682 756.891 153.772 759.081 151.932C761.505 149.7 763.273 146.847 764.191 143.682C765.011 141.089 766.248 139.795 767.901 139.802C768.799 139.833 769.689 139.995 770.541 140.282L778.121 142.552C780.494 143.219 781.681 144.552 781.681 146.552C781.684 147.607 781.473 148.651 781.061 149.622C778.581 156.742 774.814 162.109 769.761 165.722C764.708 169.335 758.001 171.142 749.641 171.142C739.121 171.155 731.278 168.359 726.111 162.752Z" fill="#020202"/>
<path d="M799.86 167.602C799.305 166.388 799.067 165.053 799.17 163.722V54.022C799.071 52.688 799.308 51.3506 799.86 50.132C800.179 49.7308 800.596 49.4182 801.07 49.2238C801.544 49.0295 802.061 48.96 802.57 49.022H813.72C814.217 48.9763 814.719 49.0557 815.178 49.2531C815.637 49.4504 816.04 49.7594 816.35 50.152C816.958 51.3465 817.224 52.6857 817.12 54.022V163.722C817.229 165.062 816.963 166.406 816.35 167.602C816.044 167.999 815.642 168.311 815.181 168.509C814.721 168.706 814.218 168.783 813.72 168.732H802.57C802.058 168.799 801.539 168.729 801.063 168.531C800.587 168.333 800.172 168.012 799.86 167.602Z" fill="#020202"/>
<path d="M845.911 162.752C841.058 157.139 838.631 149.102 838.631 138.642V89.792C838.631 87.962 838.941 86.692 839.561 85.992C840.028 85.5849 840.576 85.2803 841.169 85.0978C841.761 84.9152 842.385 84.8587 843.001 84.932H852.131C853.881 84.932 855.071 85.292 855.691 85.992C856.311 86.692 856.621 87.992 856.621 89.792V138.022C856.621 143.522 857.704 147.565 859.871 150.152C862.038 152.739 865.534 154.029 870.361 154.022C875.421 154.022 879.187 153.375 881.661 152.082C882.117 151.922 882.503 151.607 882.751 151.192C882.996 150.604 883.102 149.968 883.061 149.332V89.792C882.94 88.4653 883.272 87.1368 884.001 86.022C884.465 85.6189 885.008 85.3165 885.595 85.1341C886.182 84.9516 886.8 84.893 887.411 84.962H896.701C898.351 84.962 899.481 85.322 900.101 86.022C900.721 86.722 901.031 88.022 901.031 89.822V156.632C901.149 158.553 900.777 160.473 899.951 162.212C898.86 163.757 897.356 164.963 895.611 165.692C887.771 169.365 878.538 171.199 867.911 171.192C858.084 171.172 850.751 168.359 845.911 162.752Z" fill="#020202"/>
<path d="M930.001 166.472C924.948 163.339 921.281 158.432 919.001 151.752C918.676 150.866 918.467 149.942 918.381 149.002C918.381 147.062 919.471 145.762 921.631 145.122L930.151 142.532C930.941 142.23 931.776 142.065 932.621 142.042C932.97 142.039 933.317 142.109 933.637 142.249C933.958 142.388 934.245 142.594 934.481 142.852C935.147 143.671 935.662 144.602 936.001 145.602C936.783 148.402 938.561 150.82 941.001 152.402C943.72 153.902 946.798 154.628 949.901 154.502C958.768 154.502 963.204 151.319 963.211 144.952C963.211 141.399 962.101 138.892 959.881 137.432C957.661 135.982 953.721 134.922 948.041 134.282C943.008 133.789 938.053 132.695 933.281 131.022C929.245 129.544 925.78 126.828 923.381 123.262C920.841 119.589 919.574 114.572 919.581 108.212C919.581 100.452 922.248 94.2519 927.581 89.6119C932.914 84.9719 940.268 82.6386 949.641 82.6119C957.481 82.6119 963.724 84.0686 968.371 86.9819C973.128 90.0558 976.797 94.5477 978.861 99.8219C979.312 100.903 979.575 102.053 979.641 103.222C979.641 105.052 978.641 106.342 976.541 107.102L969.541 109.852C968.655 110.227 967.711 110.447 966.751 110.502C966.096 110.525 965.457 110.292 964.971 109.852C964.327 109.146 963.828 108.32 963.501 107.422C962.467 104.951 960.728 102.84 958.501 101.352C955.808 99.7775 952.716 99.0201 949.601 99.1719C945.601 99.1719 942.557 99.9819 940.471 101.602C939.464 102.381 938.657 103.389 938.118 104.542C937.579 105.695 937.323 106.96 937.371 108.232C937.371 111.902 938.461 114.382 940.621 115.672C942.781 116.962 946.621 117.942 952.231 118.582C961.524 119.542 968.647 121.969 973.601 125.862C978.554 129.755 981.021 136.012 981.001 144.632C981.001 152.725 978.334 159.169 973.001 163.962C967.668 168.755 959.981 171.155 949.941 171.162C941.668 171.162 935.021 169.599 930.001 166.472Z" fill="#020202"/>
<path d="M1057 167.932C1055.9 167.018 1055.14 165.766 1054.83 164.372L1031.17 90.762C1030.79 89.7235 1030.58 88.6288 1030.55 87.522C1030.51 87.1286 1030.59 86.7328 1030.76 86.3795C1030.94 86.0261 1031.21 85.7291 1031.55 85.522C1032.54 85.0771 1033.63 84.8814 1034.72 84.952H1042.46C1044.22 84.8335 1045.98 85.1782 1047.57 85.952C1048.6 86.6187 1049.37 87.952 1049.89 89.952L1061.35 128.782C1062.58 133.315 1063.97 139.622 1065.52 147.702H1066.3C1067.63 140.689 1068.97 134.382 1070.3 128.782L1081.76 89.952C1082.27 87.9054 1082.93 86.572 1083.76 85.952C1084.58 85.312 1086.29 84.952 1088.87 84.952H1096.45C1097.59 84.8733 1098.73 85.0687 1099.78 85.522C1100.12 85.7291 1100.39 86.0261 1100.57 86.3795C1100.74 86.7328 1100.82 87.1286 1100.78 87.522C1100.76 88.6293 1100.55 89.7248 1100.16 90.762L1076.02 164.372C1075.71 165.749 1074.98 166.994 1073.93 167.932C1072.8 168.655 1071.48 169.005 1070.14 168.932H1060.85C1059.5 168.993 1058.15 168.645 1057 167.932Z" fill="#020202"/>
<path d="M1118.24 161.782C1112.91 155.522 1110.24 147.109 1110.24 136.542V117.452C1110.24 106.239 1113.02 97.612 1118.59 91.572C1124.16 85.532 1132.16 82.512 1142.59 82.512C1153.12 82.512 1161.09 85.6386 1166.51 91.892C1171.93 98.1453 1174.64 106.189 1174.65 116.022V125.882C1174.76 127.713 1174.25 129.528 1173.18 131.022C1172.2 132.209 1170.53 132.802 1168.18 132.802H1128.07V138.802C1128.07 144.082 1129.31 148.082 1131.78 150.802C1134.25 153.522 1137.86 154.929 1142.61 155.022C1146.43 155.022 1149.47 154.302 1151.75 152.842C1154.14 151.242 1156.06 149.037 1157.32 146.452C1158.35 144.292 1159.53 143.212 1160.88 143.212C1162.01 143.261 1163.09 143.644 1164 144.312L1169.73 147.542C1171.79 148.842 1172.83 150.352 1172.83 152.072C1172.81 153.337 1172.43 154.57 1171.74 155.632C1169.26 160.49 1165.38 164.493 1160.6 167.122C1155.75 169.789 1149.72 171.122 1142.49 171.122C1131.63 171.149 1123.55 168.035 1118.24 161.782ZM1157 118.422V114.862C1157 103.862 1152.2 98.362 1142.6 98.362C1137.75 98.362 1134.12 99.792 1131.69 102.652C1129.26 105.512 1128.05 109.582 1128.06 114.862V118.422H1157Z" fill="#020202"/>
<path d="M1018.82 73.962C1018.88 75.6293 1018.59 77.2908 1017.97 78.8404C1017.36 80.3901 1016.42 81.7938 1015.23 82.962C1013.98 84.1612 1012.5 85.0941 1010.87 85.7043C1009.25 86.3144 1007.52 86.5892 1005.79 86.512C1004.06 86.5869 1002.34 86.3168 1000.72 85.7176C999.099 85.1183 997.613 84.2019 996.351 83.022C995.184 81.9176 994.261 80.5807 993.643 79.0977C993.024 77.6146 992.724 76.0184 992.761 74.412C992.725 72.8042 993.026 71.2068 993.644 69.7223C994.262 68.2378 995.184 66.899 996.351 65.792C997.615 64.6156 999.101 63.7029 1000.72 63.1071C1002.34 62.5113 1004.07 62.2444 1005.79 62.322C1009.22 62.1875 1012.57 63.3518 1015.17 65.582C1016.36 66.6261 1017.3 67.9179 1017.93 69.366C1018.56 70.814 1018.86 72.383 1018.82 73.962Z" fill="#DB4444"/>
<path d="M1017.47 94.142V155.552C1017.47 159.093 1016.06 162.488 1013.56 164.992C1011.06 167.495 1007.66 168.902 1004.12 168.902H994.119V107.492C994.119 103.951 995.526 100.556 998.029 98.0521C1000.53 95.5485 1003.93 94.142 1007.47 94.142H1017.47Z" fill="#DB4444"/>
<path d="M295.529 33.083C296.347 35.2815 292.165 51.6255 278.97 72.2805C253.124 112.741 210.856 140.078 167.48 151.301C152.224 155.248 136.42 157.791 120.745 156.363C108.653 155.264 93.6976 152.354 84.0312 143.563C84.0312 143.563 125.818 201.878 222.854 174.319C336.245 142.124 295.529 33.0869 295.529 33.083Z" fill="#DB4444"/>
<path d="M155.868 217.758C163.416 210.21 163.416 197.971 155.868 190.423C148.319 182.875 136.081 182.875 128.533 190.423C120.984 197.971 120.984 210.21 128.533 217.758C136.081 225.306 148.319 225.306 155.868 217.758Z" fill="#020202"/>
<path d="M244.219 217.758C251.768 210.21 251.768 197.971 244.219 190.423C236.671 182.875 224.433 182.875 216.884 190.423C209.336 197.971 209.336 210.21 216.884 217.758C224.433 225.306 236.671 225.306 244.219 217.758Z" fill="#020202"/>
<path d="M0 2.9104C0 2.9104 32.8953 11.2545 42.8003 49.1767C52.142 84.9473 54.1136 125.357 106.721 146.345C159.329 167.332 195.131 132.446 195.131 132.446C195.131 132.446 156.168 151.027 122.944 109.178C87.7874 64.8713 101.374 6.88882 0 2.9104Z" fill="#020202"/>
<path d="M236.28 101.104C239.276 99.437 241.596 92.0709 242.687 89.0352C244.215 84.6717 245.236 80.1473 245.731 75.5508C248.035 55.7331 243.227 36.1813 235.998 17.8344L247.796 19.7903C253.766 20.7839 259.923 21.8402 265.056 25.0206C279.33 33.8341 271.949 54.5047 266.699 66.8194C260.534 81.2662 250.046 93.4557 236.28 101.104Z" fill="#020202"/>
<path d="M193.346 13.0189C193.346 17.0534 192.012 20.3876 189.345 23.0217C186.677 25.6557 183.165 26.9792 178.81 26.9923C174.457 26.9923 170.947 25.7 168.279 23.1155C166.977 21.8814 165.948 20.3881 165.258 18.732C164.568 17.0759 164.232 15.2937 164.273 13.5C164.231 11.7051 164.566 9.92127 165.256 8.2637C165.946 6.60613 166.976 5.11165 168.279 3.87671C170.952 1.29224 174.462 0 178.81 0C183.063 0 186.55 1.214 189.27 3.642C191.99 6.07 193.349 9.19562 193.346 13.0189Z" fill="#DB4444"/>
<path d="M191.833 35.528V104.057C191.825 108.002 190.253 111.783 187.461 114.57C184.669 117.357 180.885 118.922 176.94 118.922H165.783V50.4245C165.783 46.4737 167.353 42.6847 170.146 39.8911C172.94 37.0974 176.729 35.528 180.68 35.528H191.833Z" fill="#DB4444"/>
</svg>
