<svg width="16" height="16" viewBox="0 0 16 16" fill="none" xmlns="http://www.w3.org/2000/svg">
<g clip-path="url(#clip0_59_3848)">
<path fill-rule="evenodd" clip-rule="evenodd" d="M7.33361 2.12663C7.37966 1.9806 7.47106 1.85306 7.59454 1.76252C7.71803 1.67198 7.86716 1.62317 8.02027 1.62317C8.17339 1.62317 8.32252 1.67198 8.446 1.76252C8.56949 1.85306 8.66089 1.9806 8.70694 2.12663L9.94694 5.93996H13.9469C14.1055 5.93397 14.2617 5.98006 14.3917 6.07119C14.5216 6.16232 14.6181 6.29348 14.6665 6.44464C14.7149 6.5958 14.7124 6.75863 14.6595 6.90827C14.6066 7.0579 14.5062 7.18611 14.3736 7.2733L11.1269 9.62663L12.3669 13.4466C12.416 13.5921 12.4172 13.7495 12.3705 13.8958C12.3237 14.042 12.2314 14.1695 12.1071 14.2596C11.9827 14.3497 11.8329 14.3977 11.6793 14.3966C11.5258 14.3954 11.3766 14.3452 11.2536 14.2533L8.00027 11.8733L4.75361 14.2333C4.63061 14.3252 4.48145 14.3754 4.3279 14.3766C4.17436 14.3777 4.02447 14.3297 3.90012 14.2396C3.77578 14.1495 3.68349 14.022 3.63675 13.8758C3.59 13.7295 3.59123 13.5721 3.64027 13.4266L4.88027 9.60663L1.63361 7.2533C1.501 7.16611 1.40057 7.0379 1.34769 6.88827C1.2948 6.73863 1.29235 6.5758 1.34072 6.42464C1.38909 6.27348 1.48562 6.14232 1.61555 6.05119C1.74549 5.96006 1.90168 5.91397 2.06027 5.91996H6.06027L7.33361 2.12663Z" stroke="#EBEBEB" stroke-width="1.5" stroke-linecap="round" stroke-linejoin="round"/>
</g>
<defs>
<clipPath id="clip0_59_3848">
<rect width="16" height="16" fill="white"/>
</clipPath>
</defs>
</svg>
